<svg width="360" height="493" viewBox="0 0 360 493" fill="none" xmlns="http://www.w3.org/2000/svg">
<g clip-path="url(#clip0_63_22467)">
<rect y="0.34668" width="360" height="492" rx="25" fill="#011ECB"/>
<g clip-path="url(#clip1_63_22467)">
<path d="M145.336 102.971C137.291 109.931 132.256 120.008 131.148 130.561C130.83 133.562 130.904 136.557 131.25 139.559C131.339 140.317 132.189 140.936 132.877 141.029C133.72 141.15 134.401 140.785 134.891 140.106C142.624 129.454 155.652 122.956 168.74 122.559C172.457 122.447 176.166 122.805 179.772 123.68L178.423 121.205C177.522 124.211 177.75 127.332 178.298 130.382C178.784 133.12 179.472 135.84 180.436 138.451C182.384 143.718 185.517 148.897 190.489 151.809C194.634 154.235 200.064 154.915 204.613 153.251C206.955 152.394 208.984 151.031 210.521 149.043C212.313 146.721 213.041 143.782 213.241 140.9C213.711 134.183 211.625 127.161 206.958 122.22C205.193 120.356 202.331 123.132 204.096 124.995C207.551 128.65 209.221 133.657 209.308 138.636C209.345 141.016 209.156 143.575 207.97 145.69C207.077 147.298 205.744 148.415 204.102 149.181C200.901 150.685 196.596 150.442 193.367 148.833C189.145 146.73 186.403 142.57 184.643 138.333C183.611 135.845 182.923 133.19 182.388 130.556C181.853 127.921 181.444 125.033 182.255 122.329C182.552 121.336 181.953 120.104 180.906 119.854C166.693 116.389 151.35 120.125 139.934 129.165C136.713 131.717 133.891 134.72 131.475 138.042L135.118 138.596C133.735 126.4 138.874 113.818 148.117 105.824C150.06 104.146 147.277 101.286 145.342 102.962L145.336 102.971Z" fill="white"/>
<path d="M186.913 83.7324C184.577 85.8112 183.651 89.3154 184.502 92.2993C185.439 95.5986 188.29 97.7361 191.626 98.1447C194.962 98.5534 198.058 96.9274 199.596 94.0766C201.134 91.2258 201.059 87.4594 198.939 84.7887C196.58 81.8156 192.402 80.9906 188.978 82.3855C188.008 82.7807 187.692 84.2626 188.212 85.1033C188.839 86.1145 189.884 86.2917 190.929 85.8696C190.467 86.0577 190.984 85.8563 191.061 85.8372C191.169 85.8104 191.278 85.7837 191.386 85.757C191.518 85.7245 191.663 85.7134 191.794 85.6809C192.104 85.6046 191.321 85.6911 191.841 85.6695C192.117 85.6587 192.396 85.6557 192.68 85.6759C192.788 85.6821 192.898 85.696 193.016 85.7079C192.579 85.6679 193.068 85.7197 193.165 85.7451C193.435 85.8098 193.708 85.8821 193.97 85.9816C193.97 85.9816 194.472 86.1861 194.206 86.0712C193.939 85.9563 194.432 86.1879 194.424 86.1898C194.642 86.3085 194.864 86.4425 195.07 86.5805C195.159 86.6407 195.446 86.8736 195.136 86.6135C195.261 86.7222 195.387 86.8308 195.506 86.9491C195.703 87.147 195.894 87.3544 196.063 87.5754C195.82 87.2575 196.003 87.4998 196.046 87.5714C196.122 87.7167 196.223 87.8562 196.301 88.0092C196.349 88.104 196.399 88.2067 196.449 88.3093C196.672 88.7798 196.392 88.0442 196.459 88.348C196.526 88.6517 196.618 88.9246 196.675 89.2225C196.783 89.7294 196.679 88.9422 196.684 89.2612C196.686 89.4004 196.703 89.5358 196.704 89.675C196.707 89.9534 196.683 90.2221 196.661 90.4985C196.651 90.5913 196.586 90.8617 196.673 90.4792C196.641 90.6183 196.616 90.7478 196.584 90.8869C196.51 91.1844 196.416 91.4702 196.305 91.7522C196.13 92.2388 196.435 91.5476 196.28 91.8159C196.21 91.9317 196.151 92.061 196.091 92.1826C195.953 92.4219 195.804 92.6477 195.637 92.8695C195.687 92.8078 195.895 92.5842 195.641 92.8521C195.549 92.9485 195.452 93.0545 195.361 93.1509C195.27 93.2473 195.16 93.332 195.061 93.4303C194.686 93.7771 195.384 93.2438 194.95 93.515C194.716 93.6632 194.476 93.7881 194.23 93.9227C194.143 93.9688 193.87 94.0607 194.268 93.9131C194.141 93.961 194.011 94.0012 193.881 94.0414C193.643 94.1084 193.402 94.1598 193.16 94.2113C192.649 94.3373 193.564 94.2183 193.042 94.2322C192.879 94.2394 192.709 94.2485 192.545 94.248C192.264 94.2433 191.996 94.2192 191.717 94.1894C191.793 94.1954 192.1 94.2756 191.741 94.1836C191.609 94.1504 191.472 94.1267 191.339 94.0857C191.101 94.0212 190.868 93.9393 190.634 93.8573C190.141 93.6915 190.954 94.0575 190.495 93.7931C190.352 93.7134 190.203 93.6433 190.066 93.554C189.97 93.4957 189.881 93.4355 189.792 93.3752C189.733 93.3325 189.328 92.9891 189.665 93.2917C189.476 93.1249 189.305 92.9619 189.135 92.7739C189.045 92.673 188.952 92.5645 188.869 92.4618C189.118 92.7699 188.942 92.5587 188.89 92.4812C188.731 92.2003 188.587 91.9157 188.433 91.6252C188.621 91.9893 188.489 91.7839 188.452 91.6697C188.399 91.4859 188.339 91.3117 188.293 91.126C188.261 90.9944 188.228 90.8628 188.211 90.7274C188.187 90.6268 188.18 90.1357 188.185 90.6191C188.176 90.3174 188.161 90.0255 188.17 89.7278C188.178 89.5944 188.194 89.4591 188.202 89.3257C188.246 88.8058 188.106 89.7024 188.228 89.1963C188.306 88.8814 188.384 88.5665 188.49 88.2613C188.531 88.1609 188.564 88.0624 188.605 87.962C188.428 88.3752 188.632 87.9389 188.683 87.8443C188.762 87.7015 188.844 87.5664 188.933 87.4294C188.986 87.3426 189.285 86.9569 188.994 87.3078C189.193 87.0532 189.424 86.8239 189.667 86.6081C190.448 85.9145 190.47 84.5052 189.71 83.7894C188.897 83.0213 187.727 83.006 186.891 83.7459L186.913 83.7324Z" fill="white"/>
<path d="M189.903 91.2637L190.822 91.8582C191.046 92 191.281 92.0897 191.54 92.1079C191.803 92.1744 192.064 92.1675 192.325 92.0948C192.59 92.0377 192.832 91.9205 193.026 91.7413C193.247 91.6047 193.424 91.4216 193.546 91.1861L193.751 90.7169C193.854 90.3712 193.859 90.0251 193.773 89.6769L193.577 89.1832C193.404 88.8811 193.171 88.6348 192.872 88.4541L191.954 87.8596C191.73 87.7178 191.494 87.6281 191.235 87.6099C190.972 87.5434 190.711 87.5503 190.45 87.623C190.185 87.6801 189.943 87.7973 189.749 87.9765C189.528 88.1131 189.352 88.2962 189.229 88.5317L189.025 89.0009C188.921 89.3466 188.916 89.6927 189.002 90.041L189.198 90.5346C189.371 90.8367 189.604 91.083 189.903 91.2637Z" fill="white"/>
<path d="M150.349 106.021C145.029 96.6025 143.104 85.2709 145.049 74.6183C145.616 71.49 146.503 68.4303 147.68 65.4798L144.028 65.888C144.474 66.8947 144.927 67.8995 145.372 68.9063C145.724 69.6981 146.8 70.0649 147.589 69.8702C148.502 69.6449 148.984 68.8692 149.103 67.986C149.987 61.5197 152.114 55.1985 155.262 49.4875C156.821 46.6561 158.62 43.9299 160.679 41.4268C161.209 40.7788 161.758 40.1425 162.327 39.5179C162.61 39.2017 162.895 38.8932 163.182 38.5925C163.287 38.4846 163.39 38.3689 163.502 38.2591C163.599 38.153 163.706 38.0528 163.814 37.9604L163.638 38.0449C163.403 37.9552 163.225 37.9663 162.978 37.8302C162.835 37.7504 162.922 37.7043 162.972 37.9055C163.036 38.1687 163.065 38.2848 163.063 38.3428C163.089 38.6812 163.078 39.0369 163.029 39.3693C162.942 39.9161 162.482 41.0476 162.227 41.7757C161.844 42.8881 161.452 43.9947 161.07 45.1072C160.295 47.3262 159.531 49.551 158.756 51.77C157.982 53.9891 161.176 55.2209 162.376 53.3647C165.656 48.2863 170.2 44.1109 175.495 41.2119C178.187 39.7431 181.037 38.6133 184.016 37.8782C184.573 37.7407 185.243 37.5591 185.755 37.5066C186.165 37.4711 186.774 37.5426 186.942 37.5915C186.641 37.5016 187.139 37.1571 186.7 37.6429C186.204 38.1924 185.676 38.6838 185.124 39.1731C181.925 42.0477 178.728 44.9301 175.529 47.8047C173.989 49.1861 175.546 51.5361 177.394 51.1707C181.267 50.3958 185.142 49.6287 189.015 48.8539C190.04 48.6502 191.342 48.3372 192.099 48.7746C191.83 48.6191 192.117 48.4827 191.915 48.861C191.679 49.3049 191.237 49.6767 190.844 49.979C189.365 51.1074 187.671 52.0262 186.113 53.0345C184.461 54.0908 182.81 55.1548 181.165 56.2091C177.862 58.3294 174.567 60.4478 171.264 62.5681C170.358 63.153 169.952 64.304 170.498 65.2859C170.998 66.1807 172.3 66.6313 173.216 66.0522C179.318 62.133 185.428 58.2118 191.53 54.2925C193.82 52.8245 196.835 50.6028 195.772 47.4578C194.709 44.3128 191.265 44.3659 188.642 44.8817C184.57 45.681 180.511 46.5016 176.441 47.3087L178.306 50.6747C181.652 47.6652 185.008 44.6615 188.345 41.6462C189.694 40.4266 191.031 38.9227 190.811 36.9655C190.591 35.0083 188.899 33.8082 187.011 33.5761C185.368 33.3738 183.69 33.8287 182.115 34.2666C180.279 34.7771 178.485 35.425 176.742 36.1832C173.308 37.6709 170.121 39.6639 167.231 42.0272C164.004 44.6542 161.222 47.8201 158.964 51.3164L162.585 52.911C163.377 50.6302 164.169 48.3494 164.961 46.0685C165.677 44.0117 166.687 41.8824 166.981 39.716C167.195 38.1855 166.986 36.3075 165.89 35.1248C164.427 33.5561 162.272 33.94 160.818 35.3004C158.024 37.9191 155.655 41.2294 153.617 44.4498C151.579 47.6703 149.785 51.2491 148.391 54.8853C146.781 59.0757 145.722 63.434 145.119 67.8769L148.849 66.9567C148.403 65.9499 147.95 64.9451 147.505 63.9384C146.735 62.2153 144.422 62.9254 143.853 64.3466C139.531 75.216 139.218 87.6581 142.845 98.7668C143.887 101.958 145.231 105.042 146.879 107.961C148.136 110.196 151.622 108.252 150.355 106.011L150.349 106.021Z" fill="white"/>
<path d="M175.723 69.8588C184.671 64.8927 194.846 59.3119 205.443 61.7634C210.076 62.8373 214.293 65.0893 218.248 67.6768C222.476 70.4353 226.499 73.5315 230.462 76.6507C246.246 89.0791 260.584 103.235 274.56 117.62C288.536 132.005 302.537 147.058 317.298 160.995C324.546 167.844 332.025 174.464 339.835 180.665C348.107 187.237 356.837 193.138 365.532 199.129C382.341 210.722 400.178 224.483 406.371 244.893C407.11 247.322 407.649 249.808 408.007 252.322C408.156 253.394 409.452 254.019 410.419 253.78C411.557 253.499 412.026 252.439 411.877 251.368C408.799 229.606 392.079 213.385 375.143 201.044C366.393 194.664 357.228 188.863 348.544 182.384C340.311 176.237 332.467 169.568 324.893 162.627C309.73 148.723 295.657 133.713 281.375 118.92C267.126 104.158 252.629 89.5572 236.701 76.5812C232.713 73.3285 228.64 70.1625 224.471 67.1432C220.303 64.1239 216.262 61.5245 211.657 59.5981C207.052 57.6717 201.76 56.8181 196.601 57.4091C191.149 58.0398 185.965 60.0904 181.074 62.4958C178.6 63.7138 176.185 65.0403 173.772 66.3746C171.533 67.6166 173.469 71.1046 175.721 69.851L175.723 69.8588Z" fill="white"/>
<path d="M196.467 158.439C203.247 171.709 202.957 187.109 200.762 201.477C200.131 205.607 199.327 209.705 198.499 213.801C198.283 214.856 198.751 215.955 199.848 216.276C200.814 216.563 202.109 215.989 202.323 214.926C205.392 199.809 207.974 184.115 204.433 168.83C203.445 164.558 201.95 160.395 199.951 156.487C198.781 154.206 195.303 156.148 196.475 158.437L196.467 158.439Z" fill="white"/>
<path d="M199.178 205.57C189.024 196.794 178.022 187.841 163.992 187.312C156.534 187.034 149.151 188.691 141.689 188.266C134.326 187.841 127.264 185.305 120.43 182.697C113.559 180.074 106.831 177.029 101.028 172.442C95.807 168.32 91.2054 163.445 85.6837 159.7C79.838 155.74 72.9196 153.522 65.8288 153.9C59.6701 154.229 51.5722 156.416 49.9093 163.32C49.0925 166.732 50.0562 170.173 51.4365 173.305C52.9128 176.66 54.8537 179.835 56.9769 182.817C61.3196 188.905 66.5288 194.279 71.9223 199.434C73.2755 200.726 74.6441 202.014 76.0109 203.294L78.474 200.199C70.9664 195.959 63.1167 192.329 55.0154 189.377C51.1801 187.975 47.2291 186.503 43.2219 185.668C39.9238 184.98 35.9112 184.656 32.9529 186.609C29.5141 188.878 28.9657 193.011 30.2245 196.683C31.4833 200.354 33.5295 203.856 35.5144 207.176C39.5784 213.965 44.4501 220.301 49.9696 225.967C56.2022 232.361 63.29 237.928 70.9784 242.468L72.573 238.848C68.2792 237.551 63.3663 236.406 58.9214 237.659C54.4766 238.911 51.5711 242.543 51.3231 247.062C51.092 251.118 52.8755 255.185 54.9433 258.575C57.5901 262.914 60.7983 266.999 64.1059 270.855C67.9317 275.314 72.1065 279.456 76.5761 283.264L78.57 279.964C72.6957 278.983 63.1964 279.216 62.6555 287.141C62.3761 291.2 65.3658 294.699 68.0254 297.393C70.6851 300.087 73.9268 302.744 77.2571 304.894C80.9964 307.305 85.0427 309.23 89.2568 310.67L88.8487 307.018C83.2084 310.947 78.4267 317.356 80.3665 324.587C82.3064 331.818 89.1775 336.174 96.1024 337.553C100.401 338.405 104.775 338.427 109.136 338.402L107.799 334.979C103.177 338.739 98.2367 343.176 97.9326 349.565C97.8001 352.389 98.6376 355.384 100.619 357.457C102.733 359.67 105.772 360.341 108.72 360.475C112.29 360.637 115.875 360.558 119.446 360.588C123.196 360.615 126.949 360.65 130.699 360.677C137.922 360.734 145.189 361.003 152.405 360.602C160.198 360.173 168.094 358.767 174.782 354.523C176.94 353.153 175.004 349.665 172.832 351.047C161.941 357.954 148.125 356.83 135.785 356.73C128.858 356.673 121.931 356.617 115.013 356.566C112.15 356.542 108.974 356.882 106.185 356.158C104.002 355.596 102.591 354.105 102.092 351.913C100.705 345.794 106.409 341.226 110.58 337.832C111.922 336.746 110.883 334.399 109.243 334.41C102.973 334.454 95.9974 334.631 90.436 331.258C85.7217 328.389 82.3823 322.941 84.7001 317.459C85.9154 314.598 88.2756 312.25 90.7905 310.497C92.1914 309.519 92.0954 307.432 90.3823 306.845C84.179 304.73 78.3757 301.408 73.463 297.07C70.6288 294.567 62.4938 286.918 69.1454 284.161C71.633 283.128 74.8088 283.355 77.429 283.792C78.3198 283.942 79.204 283.732 79.6996 282.912C80.1252 282.207 80.0882 281.059 79.4229 280.492C72.3038 274.432 65.9066 267.504 60.5422 259.838C57.4337 255.391 51.3181 245.577 58.7767 241.931C62.5873 240.071 67.6327 241.52 71.4301 242.668C73.5857 243.319 74.9855 240.207 73.0248 239.048C60.4849 231.649 49.6358 221.419 41.5553 209.299C39.5366 206.274 37.6884 203.142 36.0203 199.908C34.7942 197.534 32.3952 193.734 34.0063 191.045C35.3938 188.749 38.8693 188.959 41.1477 189.308C44.8406 189.867 48.5211 191.307 52.034 192.534C60.4717 195.486 68.6131 199.2 76.3889 203.595C78.2957 204.668 80.5541 202.108 78.852 200.5C73.6259 195.59 68.3864 190.659 63.7828 185.145C61.5465 182.47 59.4904 179.66 57.7036 176.677C56.0418 173.901 54.371 170.923 53.7372 167.721C53.1852 164.918 54.017 162.299 56.3732 160.601C58.7295 158.903 61.6315 158.253 64.4087 157.962C71.0984 157.256 77.6041 159.132 83.1743 162.807C88.4511 166.292 92.8332 170.909 97.7355 174.872C103.317 179.39 109.565 182.619 116.211 185.298C122.857 187.977 129.485 190.48 136.47 191.639C143.456 192.797 150.806 191.838 158.069 191.393C161.497 191.179 165.02 191.115 168.409 191.74C171.447 192.304 174.415 193.288 177.201 194.629C182.847 197.349 187.864 201.177 192.639 205.188C193.871 206.223 195.089 207.269 196.302 208.324C197.116 209.026 198.299 209.162 199.121 208.368C199.842 207.664 199.98 206.259 199.164 205.549L199.178 205.57Z" fill="white"/>
<path d="M137.695 364.108C127.358 380.049 116.567 398.443 121.602 418.186C122.922 423.37 125.38 428.207 128.973 432.189C130.115 433.459 132.394 432.544 132.395 430.852C132.406 426.67 133.005 422.574 134.21 418.573L130.363 418.488C133.646 435.954 141.434 452.449 152.653 466.209C155.833 470.112 159.306 473.771 163.019 477.174C164.904 478.893 167.778 476.131 165.881 474.399C153.221 462.817 143.511 448.053 137.982 431.798C136.397 427.139 135.148 422.373 134.242 417.539C133.866 415.547 130.94 415.636 130.395 417.454C129.102 421.763 128.429 426.256 128.423 430.757L131.845 429.42C125.966 422.898 123.93 413.909 124.422 405.323C124.945 396.228 128.481 387.63 132.823 379.736C135.38 375.09 138.236 370.625 141.122 366.185C142.519 364.026 139.106 361.97 137.707 364.122L137.695 364.108Z" fill="white"/>
<path d="M156.544 467.301C160.583 471.994 165.528 475.898 171.024 478.737C172.435 479.465 174.557 478.317 173.99 476.552C172.447 471.761 172.068 466.665 173.047 461.711L169.395 462.119C176.291 474.129 183.932 485.701 192.24 496.78C195.937 501.714 199.692 506.682 204.1 511.006C206.179 513.046 208.428 514.938 210.853 516.548C213.278 518.159 216.011 519.718 218.832 520.368C220.522 520.764 222.395 520.803 223.905 519.831C225.511 518.786 226.096 517.033 226.583 515.279C227.617 511.55 228.31 507.734 228.716 503.89L224.732 503.781C224.527 507.51 228.39 509.792 231.756 509.388C235.552 508.936 237.827 505.345 239.503 502.288C240.73 500.039 237.322 497.974 236.088 500.224C235.104 502.027 233.915 504.529 231.842 505.311C231.182 505.564 230.416 505.523 229.746 505.237C228.984 504.908 228.681 504.482 228.716 503.89C228.772 502.817 227.833 501.875 226.774 501.84C225.625 501.812 224.836 502.704 224.724 503.783C224.399 506.86 223.86 509.899 223.089 512.897C222.909 513.599 222.721 514.302 222.508 515.003C222.372 515.447 222.25 516.052 221.887 516.38C221.174 517.015 219.81 516.547 219.032 516.288C214.072 514.621 209.776 511.116 206.16 507.443C202.18 503.392 198.726 498.842 195.318 494.313C191.504 489.235 187.851 484.045 184.337 478.754C180.311 472.686 176.483 466.487 172.856 460.173C172.064 458.792 169.554 458.837 169.205 460.581C168.091 466.218 168.342 472.026 170.103 477.503L173.07 475.318C167.839 472.618 163.222 468.979 159.387 464.514C157.716 462.57 154.856 465.353 156.524 467.289L156.544 467.301Z" fill="white"/>
<path d="M241.522 499.023C246.547 491.535 251.076 483.735 255.088 475.668L251.643 475.614C254.354 479.683 259.356 479.623 263.581 478.244C266.079 477.422 268.384 476.181 270.717 474.989C273.678 473.479 276.633 471.978 279.594 470.468C290.819 464.751 302.278 459.313 313.051 452.764C318.984 449.157 324.687 445.148 329.855 440.506C331.765 438.795 328.99 435.933 327.08 437.644C318.521 445.314 308.513 451.075 298.377 456.384C287.492 462.082 276.536 467.692 265.536 473.156C263.7 474.068 261.528 474.883 259.577 475.094C258.602 475.203 257.672 475.161 256.892 474.927C256.183 474.716 255.556 474.304 255.127 473.663C254.37 472.528 252.407 472.158 251.682 473.61C247.67 481.677 243.135 489.487 238.116 496.965C236.681 499.101 240.102 501.155 241.532 499.029L241.522 499.023Z" fill="white"/>
<path d="M268.112 407.682C283.569 414.427 300.489 417.848 317.354 417.686C322.195 417.641 327.016 417.281 331.817 416.671C332.803 416.543 333.617 415.184 333.274 414.259C331.687 409.987 328.534 406.725 324.286 405.048L323.16 408.872C329.566 410.412 336.133 411.304 342.722 411.452C348.856 411.589 355.204 411.296 361.148 409.665C367.092 408.034 372.386 404.898 375.959 399.779C377.76 397.192 379.058 394.302 380.32 391.429C381.642 388.402 382.908 385.347 384.111 382.267C386.884 375.171 389.329 367.942 391.457 360.627L387.806 361.035C389.241 363.161 390.677 365.286 392.105 367.413C392.751 368.37 394.345 368.938 395.23 367.866C402.847 358.704 408.006 347.899 411.254 336.473C414.542 324.907 416.008 312.878 416.8 300.909C417.246 294.132 417.468 287.345 417.65 280.559C417.722 277.988 413.731 277.889 413.665 280.45C413.35 292.252 412.911 304.085 411.369 315.804C409.826 327.523 407.314 338.439 402.525 348.816C399.855 354.598 396.516 360.101 392.447 365.005L395.572 365.458C394.136 363.332 392.7 361.207 391.272 359.08C390.353 357.714 388.127 357.746 387.621 359.488C385.829 365.669 383.805 371.776 381.547 377.801C379.29 383.826 377.215 389.527 374.24 394.941C372.881 397.419 371.236 399.672 369.046 401.477C367.013 403.152 364.556 404.374 362.069 405.21C356.595 407.052 350.738 407.471 345 407.475C338.015 407.482 331.065 406.668 324.282 405.032C321.759 404.423 320.791 407.921 323.156 408.857C325.968 409.969 328.348 412.363 329.401 415.198L330.858 412.786C314.639 414.866 297.98 413.401 282.338 408.672C277.876 407.326 273.502 405.704 269.233 403.842C268.249 403.412 267.034 404.245 266.758 405.192C266.424 406.333 267.115 407.238 268.108 407.667L268.112 407.682Z" fill="white"/>
<path d="M331.67 439.509C333.295 446.095 335.198 452.612 337.384 459.044C338.453 462.179 339.526 465.33 340.789 468.385C341.889 471.045 344.38 473.222 347.373 471.876C348.8 471.236 349.881 469.762 350.213 468.244C350.611 466.397 350.147 464.582 349.566 462.828L346.2 464.693C350.543 469.616 356.599 473.031 363.029 474.335C366.356 475.009 369.703 475.16 373.077 474.763C374.714 474.573 376.526 474.331 378.036 473.63C379.877 472.773 380.537 470.853 380.092 468.952C379.852 467.911 379.35 466.91 378.951 465.924C378.51 464.834 378.067 463.737 377.626 462.647C376.695 460.34 375.765 458.032 374.832 455.717L373.037 458.689C378.105 459.433 381.83 454.828 383.942 450.842C385.595 447.725 387.642 442.146 391.952 442.241C394.519 442.297 394.628 438.313 392.061 438.256C387.009 438.148 383.777 442.484 381.664 446.535C379.976 449.776 377.679 455.376 373.146 454.704C371.451 454.457 370.861 456.459 371.35 457.676C372.724 461.081 374.095 464.478 375.469 467.884C375.742 468.555 375.975 469.237 376.217 469.916C376.261 470.028 376.206 470.337 376.315 470.113C376.414 469.917 376.09 470.136 375.899 470.191C374.647 470.541 373.343 470.781 372.053 470.91C366.636 471.45 361.039 470.294 356.273 467.685C353.539 466.184 351.12 464.268 349.057 461.928C347.781 460.485 345.07 461.91 345.691 463.793C346.062 464.9 346.805 466.58 346.191 467.717C345.882 468.294 345.535 468.519 345.084 468.023C344.171 467.017 343.796 465.229 343.335 463.996C342.722 462.341 342.132 460.681 341.557 459.016C339.24 452.289 337.235 445.46 335.532 438.556C334.917 436.064 331.048 437.019 331.663 439.511L331.67 439.509Z" fill="white"/>
<path d="M200.115 213.993C199.222 217.563 198.331 221.141 197.446 224.709C197.196 225.723 197.72 226.916 198.796 227.184C199.81 227.435 201.004 226.918 201.271 225.835C202.163 222.265 203.054 218.687 203.939 215.119C204.19 214.104 203.666 212.912 202.59 212.644C201.575 212.393 200.381 212.909 200.115 213.993Z" fill="white"/>
<path d="M197.294 215.306C187.665 223.469 178.372 232.026 169.451 240.96C167.64 242.769 170.409 245.641 172.226 243.822C181.149 234.896 190.44 226.331 200.069 218.168C202.025 216.511 199.242 213.651 197.294 215.306Z" fill="white"/>
<path d="M235.579 515.301C236.695 519.927 238.733 524.26 240.897 528.472C243.061 532.684 245.11 536.563 247.261 540.589C251.532 548.583 255.979 556.492 261.001 564.039C263.532 567.84 266.204 571.548 269.048 575.124C271.488 578.192 274.075 581.922 277.806 583.498C282.268 585.377 286.531 582.29 290.449 580.469C294.633 578.525 298.938 576.872 303.335 575.492C313.273 572.375 323.612 570.687 334.027 570.507L333.601 566.58C326.202 568.241 319.401 572.423 314.677 578.367C314.005 579.206 313.818 580.344 314.633 581.186C315.306 581.882 316.775 582.078 317.452 581.23C321.784 575.793 327.764 571.978 334.555 570.45C336.718 569.966 336.4 566.481 334.129 566.524C325.012 566.679 315.9 567.917 307.093 570.255C302.654 571.432 298.311 572.897 294.05 574.597C291.942 575.437 289.867 576.343 287.814 577.309C285.88 578.222 283.954 579.501 281.863 580.009C278.345 580.86 275.686 576.935 273.761 574.627C270.984 571.289 268.375 567.802 265.915 564.222C260.929 556.954 256.506 549.31 252.313 541.567C249.978 537.258 247.706 532.909 245.436 528.567C243.053 523.999 240.672 519.406 239.452 514.362C238.853 511.866 234.983 512.82 235.582 515.316L235.579 515.301Z" fill="white"/>
<path d="M365.024 485.452C368.636 490.94 372.267 496.407 375.866 501.907C379.464 507.407 382.65 512.434 385.335 518.094C386.647 520.849 387.771 523.675 388.64 526.597C389.026 527.898 389.367 529.21 389.637 530.539C389.886 531.783 390.041 533.042 389.515 534.239C389.015 535.372 388.128 536.305 387.298 537.2C386.216 538.37 385.089 539.493 383.929 540.584C381.86 542.515 379.653 544.283 377.376 545.969C372.987 549.211 368.183 552.736 366.805 558.331C366.425 559.886 367.691 561.06 369.194 560.829C375.44 559.887 381.497 558.18 387.358 555.847C388.359 555.444 388.597 553.981 388.124 553.129C387.54 552.091 386.417 551.966 385.407 552.363C379.89 554.561 374.104 556.071 368.232 556.961L370.621 559.459C371.759 554.851 375.934 551.941 379.546 549.276C381.978 547.486 384.345 545.629 386.555 543.573C388.766 541.517 391.112 539.412 392.61 536.866C394.249 534.089 393.898 531.171 393.173 528.164C392.447 525.157 391.347 521.997 390.1 519.037C387.624 513.161 384.316 507.672 380.87 502.323C376.8 496.012 372.626 489.775 368.493 483.504C367.902 482.607 366.765 482.19 365.775 482.738C364.888 483.236 364.416 484.551 365.009 485.455L365.024 485.452Z" fill="white"/>
<path d="M180.282 272.176C180.282 269.356 180.044 268.479 178.858 272.46C175.592 283.424 174.168 296.49 176.294 307.785C178.161 317.707 184.997 318.344 188.971 309.28C191.486 303.541 194.24 293.964 192.816 287.559C189.773 273.865 200.075 338.164 208.2 326.729C210.66 323.265 210.872 317.461 211.618 313.411C211.681 313.071 213.198 304.949 213.612 305.363C216.121 307.872 216.686 311.764 218.028 315.049C221.881 324.483 224.921 335.71 230.918 344.106C235.252 350.173 238.444 333.987 238.681 332.141C239.779 323.591 239.707 314.306 237.898 305.862C237.228 302.739 234.854 298.13 235.405 294.823C236.141 290.408 238.171 303.358 240.034 307.429C242.234 312.235 245.609 320.145 250.788 322.598C255.904 325.021 260.253 318.851 261.328 314.764C262.239 311.303 259.857 298.353 265.032 301.802C270.471 305.428 279.147 313.392 281.982 303.084C282.751 300.287 280.529 293.882 281.412 292.117C281.889 291.162 282.604 293.89 283.121 294.823C285.022 298.254 286.582 301.899 288.676 305.221C291.422 309.577 295.257 312.496 300.498 310.349C304.179 308.84 305.123 305.848 306.552 302.515C308.324 298.381 313.555 307.546 315.027 308.782C316.758 310.235 321.979 313.855 324.57 313.767C333.725 313.457 325.089 292.21 324.713 290.977C322.726 284.464 319.903 278.22 318.018 271.677C316.965 268.023 321.044 272.798 321.579 273.173C330.06 279.109 337.965 278.274 334.826 266.193C333.046 259.344 329.593 253.797 326.778 247.463C324.822 243.062 331.671 244.828 333.829 244.97C346.021 245.772 342.337 232.604 340.523 224.744" stroke="#FFFCF4" stroke-width="3" stroke-linecap="round"/>
<path d="M199.646 244.214C196.937 250.772 195.844 258.307 197.114 265.335C198.606 273.586 203.147 273.665 207.872 267.312C210.46 263.834 212.514 259.99 214.517 256.159C214.923 255.382 216.517 250.202 217.602 253.311C219.524 258.82 221.106 271.83 227.885 273.72C231.153 274.63 236.21 272.015 239.592 272.137C248.038 272.444 257.206 277.517 265.617 276.013C273.961 274.522 274.246 261.709 273.646 255.486C273.561 254.604 271.62 245.845 273.29 248.565C274.454 250.461 278.541 257.05 281.082 253.074C284.379 247.912 282.052 239.047 281.161 233.496C280.869 231.679 278.806 228.041 280.647 227.998C283.907 227.923 288.769 233.749 291.879 234.88C302.824 238.86 293.395 215.296 293.975 215.223C299.45 214.539 305.197 219.575 310.943 218.822C317.542 217.958 309.286 207.257 307.897 205.533C307.523 205.069 300.342 197.369 303.428 197.702C307.78 198.173 318.872 202.642 320.554 195.804C322.544 187.71 311.794 180.602 306.434 176.582" stroke="#FFFCF4" stroke-width="3" stroke-linecap="round"/>
<path d="M167.666 385.916C163.671 391.092 161.347 396.051 160.697 402.666C160.373 405.964 158.784 419.329 162.796 421.43C165.663 422.932 170.91 402.526 172.199 399.517" stroke="#FFFCF4" stroke-width="3" stroke-linecap="round"/>
<path d="M176.733 402.539C172.534 409.679 173.17 421.651 173.585 429.448C173.944 436.2 174.941 442.916 177.237 449.304C178.271 452.18 180.743 459.387 184.122 460.806C188.495 462.643 188.739 440.56 188.739 439.103C188.739 430.435 188.068 421.786 188.068 413.118" stroke="#FFFCF4" stroke-width="3" stroke-linecap="round"/>
<path d="M197.891 414.629C197.468 417.772 196.836 437.826 202.76 436.878C206.669 436.253 206.202 425.149 206.202 422.185" stroke="#FFFCF4" stroke-width="3" stroke-linecap="round"/>
<path d="M216.781 422.941C213.936 430.842 213.578 443.079 215.774 451.067C219.396 464.248 231.099 442.699 233.405 438.809" stroke="#FFFCF4" stroke-width="3" stroke-linecap="round"/>
<path d="M240.205 430.498C240.205 433.387 239.373 446.17 244.151 445.904C250.437 445.555 254.905 433.041 256.829 428.231" stroke="#FFFCF4" stroke-width="3" stroke-linecap="round"/>
</g>
</g>
<defs>
<clipPath id="clip0_63_22467">
<rect y="0.34668" width="360" height="492" rx="25" fill="white"/>
</clipPath>
<clipPath id="clip1_63_22467">
<rect width="359.135" height="591.134" fill="white" transform="translate(0 74.3662) rotate(-13.858)"/>
</clipPath>
</defs>
</svg>
