<svg width="360" height="493" viewBox="0 0 360 493" fill="none" xmlns="http://www.w3.org/2000/svg">
<rect y="0.480469" width="360" height="492" rx="25" fill="#011ECB"/>
<g clip-path="url(#clip0_63_22680)">
<path d="M304.263 274.638H56.3148C55.7867 274.638 55.2454 274.664 54.7173 274.638C50.862 274.374 48.4063 271.124 48.3799 267.439C48.3667 263.965 48.3799 260.504 48.3799 257.03C48.3799 240.742 48.3799 224.468 48.3799 208.181V151.037C48.3799 140.681 48.3139 130.325 48.3799 119.982C48.4063 116.085 51.1789 112.941 55.1661 112.849C55.5754 112.849 55.9979 112.849 56.4204 112.849H65.3587C78.007 112.849 90.642 112.849 103.29 112.849C121.484 112.849 139.69 112.849 157.884 112.849C177.688 112.849 197.479 112.849 217.283 112.849C234.381 112.849 251.478 112.849 268.576 112.849H299.906C301.623 112.849 303.458 112.664 305.174 112.902C308.858 113.39 311.049 116.574 311.063 120.101C311.063 121.356 311.063 122.611 311.063 123.865C311.063 137.709 311.063 151.539 311.063 165.383C311.063 184.8 311.063 204.232 311.063 223.649C311.063 243.067 311.063 250.729 311.063 264.268C311.063 265.352 311.063 266.435 311.063 267.505C311.036 271.401 308.277 274.532 304.276 274.638C302.111 274.691 302.111 278.059 304.276 278.006C309.94 277.861 314.31 273.436 314.416 267.782C314.429 266.871 314.416 265.972 314.416 265.061V249.791C314.416 231.773 314.416 213.756 314.416 195.738C314.416 177.72 314.416 159.069 314.416 140.747V123.879C314.416 122.624 314.416 121.369 314.416 120.114C314.403 116.429 312.805 113.034 309.637 111.039C306.877 109.282 303.867 109.48 300.804 109.48H288.961C274.808 109.48 260.668 109.48 246.514 109.48C227.383 109.48 208.252 109.48 189.108 109.48C169.964 109.48 149.526 109.48 129.722 109.48H56.262C55.6018 109.48 54.9285 109.467 54.2684 109.533C48.9608 110.022 45.1188 114.5 45.0264 119.757C44.9736 122.795 45.0264 125.834 45.0264 128.872V177.047C45.0264 196.478 45.0264 215.909 45.0264 235.34C45.0264 246.039 44.9604 256.752 45.0264 267.452C45.066 273.647 49.7398 277.98 55.8263 278.006C58.4536 278.006 61.0942 278.006 63.7216 278.006H100.901C119.134 278.006 137.367 278.006 155.613 278.006H215.699C233.166 278.006 250.633 278.006 268.087 278.006H304.263C306.428 278.006 306.428 274.638 304.263 274.638Z" fill="#FFFCF4"/>
<path d="M168.01 186.663H69.4251C67.8408 186.663 63.7479 187.416 63.4838 185.157C63.3386 183.955 63.4838 182.647 63.4838 181.432V151.275C63.4838 146.625 63.3122 141.949 63.4838 137.299C63.5763 134.855 66.7449 135.516 68.4613 135.516H123.873C136.205 135.516 148.536 135.516 160.854 135.516C163.165 135.516 165.647 135.252 167.944 135.516C169.581 135.701 169.476 136.995 169.476 138.224V183.162C169.476 184.43 169.832 186.517 168.01 186.649C165.898 186.795 165.885 190.097 168.01 189.952C171.245 189.74 172.776 187.297 172.776 184.311V138.739C172.776 136.665 172.776 134.67 170.915 133.231C169.7 132.293 168.38 132.227 166.954 132.227H92.3055C83.3276 132.227 74.3233 132.095 65.3454 132.227C62.5332 132.266 60.3284 134.076 60.1831 136.995C60.1303 138.118 60.1831 139.254 60.1831 140.39V180.56C60.1831 182.053 60.1303 183.558 60.1831 185.051C60.2756 187.878 62.2824 189.873 65.0946 189.965C73.5047 190.256 81.9809 189.965 90.4043 189.965H168.01C170.136 189.965 170.136 186.663 168.01 186.663Z" fill="#FFFCF4"/>
<path d="M299.735 186.663H254.383C252.112 186.663 249.656 186.927 247.399 186.663C246.791 186.597 246.593 186.307 246.527 185.725C246.435 184.854 246.527 183.916 246.527 183.044V143.508C246.527 141.196 246.237 138.66 246.527 136.362C246.607 135.714 246.937 135.582 247.504 135.53C248.363 135.45 249.287 135.53 250.158 135.53H298.599C299.286 135.53 300.065 135.331 300.342 136.124C300.474 136.507 300.342 137.168 300.342 137.564V184.854C300.342 185.408 300.553 186.571 299.748 186.663C297.648 186.875 297.635 190.177 299.748 189.966C303.92 189.543 303.643 185.963 303.643 182.872V141.672C303.643 139.717 303.854 137.63 303.603 135.688C303.114 131.923 299.497 132.24 296.711 132.24H269.5C262.173 132.24 254.832 132.055 247.504 132.24C245.392 132.293 243.557 133.442 243.266 135.688C243.187 136.309 243.227 136.943 243.227 137.577V177.707C243.227 180.376 243.147 183.057 243.227 185.739C243.279 187.839 244.454 189.649 246.673 189.939C247.267 190.018 247.887 189.979 248.481 189.979H299.735C301.86 189.979 301.86 186.676 299.735 186.676V186.663Z" fill="#FFFCF4"/>
<path d="M123.042 225.142H65.2661C64.9229 225.142 63.9855 225.313 63.6818 225.142C63.1009 224.812 63.4705 222.196 63.4705 221.456V204.68C63.4705 203.914 63.1405 202.25 63.4705 201.537C63.6686 201.114 63.3385 201.404 63.7478 201.233C64.1571 201.061 64.9625 201.233 65.3849 201.233H122.315C123.477 201.233 123.055 201.84 123.055 202.99V223.649C123.055 224.349 123.358 225.102 122.593 225.208C120.771 225.459 121.18 228.695 123.028 228.457C126.963 227.929 126.355 224.164 126.355 221.219V209.158C126.355 206.556 126.527 203.888 126.355 201.299C126.171 198.446 123.9 197.944 121.602 197.944H78.4029C73.5179 197.944 68.5932 197.732 63.7082 197.944C62.1635 198.01 60.7244 198.802 60.2887 200.387C60.0642 201.206 60.1698 202.171 60.1698 203.003V224.336C60.1698 226.78 61.4901 228.404 64.0119 228.457C69.3326 228.563 74.6797 228.457 80.0136 228.457H123.042C125.167 228.457 125.167 225.155 123.042 225.155V225.142Z" fill="#FFFCF4"/>
<path d="M62.1239 203.241C69.0289 205.923 75.9472 208.591 82.8522 211.272L115.899 224.085C118.434 225.063 120.969 226.054 123.504 227.031C125.484 227.797 126.342 224.614 124.375 223.848C117.47 221.166 110.552 218.498 103.647 215.816L70.6001 203.003C68.0651 202.026 65.5302 201.035 62.9953 200.058C61.0148 199.291 60.1567 202.475 62.1239 203.241Z" fill="#FFFCF4"/>
<path d="M122.765 198.763C115.859 201.444 108.941 204.112 102.036 206.794C91.025 211.061 80.0007 215.34 68.9896 219.607C66.4546 220.585 63.9197 221.575 61.3847 222.553C59.4307 223.319 60.2757 226.502 62.2561 225.736C69.1612 223.055 76.0794 220.386 82.9845 217.705L116.031 204.892C118.566 203.914 121.101 202.924 123.636 201.946C125.59 201.18 124.745 197.996 122.765 198.763Z" fill="#FFFCF4"/>
<path d="M272.008 171.617C279.307 171.617 285.224 165.697 285.224 158.395C285.224 151.092 279.307 145.172 272.008 145.172C264.709 145.172 258.792 151.092 258.792 158.395C258.792 165.697 264.709 171.617 272.008 171.617Z" fill="#FFFCF4" stroke="#FFFCF4" stroke-width="0.5" stroke-miterlimit="10"/>
<path d="M291.866 141.024V181.102L293.516 179.45H253.155L254.317 182.264C258.859 177.76 263.401 173.242 267.942 168.738C275.191 161.552 282.426 154.353 289.674 147.167C291.338 145.515 293.014 143.851 294.678 142.2C296.183 140.707 293.859 138.369 292.341 139.862C287.799 144.366 283.257 148.884 278.716 153.388C271.467 160.574 264.232 167.773 256.984 174.959C255.32 176.61 253.644 178.275 251.98 179.926C250.963 180.93 251.716 182.74 253.142 182.74H293.503C294.401 182.74 295.153 181.987 295.153 181.088V141.011C295.153 138.884 291.853 138.884 291.853 141.011L291.866 141.024Z" fill="#FFFCF4"/>
<path d="M61.8203 262.815H179.668C181.213 262.815 182.929 263.013 184.474 262.815C184.54 262.815 184.619 262.815 184.685 262.815C185.53 262.815 185.53 261.494 184.685 261.494H66.8373C65.2926 261.494 63.5762 261.296 62.0315 261.494C61.9655 261.494 61.8863 261.494 61.8203 261.494C60.9753 261.494 60.9753 262.815 61.8203 262.815Z" fill="#FFFCF4"/>
<path d="M61.7675 257.043H179.616C181.16 257.043 182.877 257.241 184.421 257.043C184.487 257.043 184.567 257.043 184.633 257.043C185.478 257.043 185.478 255.722 184.633 255.722H66.7846C65.2399 255.722 63.5235 255.524 61.9788 255.722C61.9128 255.722 61.8335 255.722 61.7675 255.722C60.9225 255.722 60.9225 257.043 61.7675 257.043Z" fill="#FFFCF4"/>
<path d="M61.7675 251.27H179.616C181.16 251.27 182.877 251.468 184.421 251.27C184.487 251.27 184.567 251.27 184.633 251.27C185.478 251.27 185.478 249.949 184.633 249.949H66.7846C65.2399 249.949 63.5235 249.751 61.9788 249.949C61.9128 249.949 61.8335 249.949 61.7675 249.949C60.9225 249.949 60.9225 251.27 61.7675 251.27Z" fill="#FFFCF4"/>
<path d="M61.8203 245.484H179.668C181.213 245.484 182.929 245.682 184.474 245.484C184.54 245.484 184.619 245.484 184.685 245.484C185.53 245.484 185.53 244.163 184.685 244.163H66.8373C65.2926 244.163 63.5762 243.965 62.0315 244.163C61.9655 244.163 61.8863 244.163 61.8203 244.163C60.9753 244.163 60.9753 245.484 61.8203 245.484Z" fill="#FFFCF4"/>
<path d="M62.52 239.738H180.368C181.913 239.738 183.629 239.936 185.174 239.738C185.24 239.738 185.319 239.738 185.385 239.738C186.23 239.738 186.23 238.417 185.385 238.417H67.5238C65.9791 238.417 64.2628 238.219 62.718 238.417C62.652 238.417 62.5728 238.417 62.5068 238.417C61.6618 238.417 61.6618 239.738 62.5068 239.738H62.52Z" fill="#FFFCF4"/>
<path d="M62.52 234.164H180.368C181.913 234.164 183.629 234.362 185.174 234.164C185.24 234.164 185.319 234.164 185.385 234.164C186.23 234.164 186.23 232.843 185.385 232.843H67.5238C65.9791 232.843 64.2628 232.645 62.718 232.843C62.652 232.843 62.5728 232.843 62.5068 232.843C61.6618 232.843 61.6618 234.164 62.5068 234.164H62.52Z" fill="#FFFCF4"/>
<path d="M199.816 228.524H302.745C303.59 228.524 303.59 227.203 302.745 227.203H199.816C198.971 227.203 198.971 228.524 199.816 228.524Z" fill="#FFFCF4"/>
<path d="M199.776 222.752H302.705C303.55 222.752 303.55 221.431 302.705 221.431H199.776C198.931 221.431 198.931 222.752 199.776 222.752Z" fill="#FFFCF4"/>
<path d="M199.776 216.979H302.705C303.55 216.979 303.55 215.658 302.705 215.658H199.776C198.931 215.658 198.931 216.979 199.776 216.979Z" fill="#FFFCF4"/>
<path d="M199.816 211.207H302.745C303.59 211.207 303.59 209.886 302.745 209.886H199.816C198.971 209.886 198.971 211.207 199.816 211.207Z" fill="#FFFCF4"/>
<path d="M200.397 205.461H303.326C304.171 205.461 304.171 204.14 303.326 204.14H200.397C199.552 204.14 199.552 205.461 200.397 205.461Z" fill="#FFFCF4"/>
<path d="M200.397 199.885H303.326C304.171 199.885 304.171 198.564 303.326 198.564H200.397C199.552 198.564 199.552 199.885 200.397 199.885Z" fill="#FFFCF4"/>
<path d="M131.669 333.593C128.61 322.371 133.244 309.459 142.75 302.759C149.481 298.021 158.511 295.923 162.907 288.963C163.599 287.863 164.165 286.605 164.063 285.313C163.961 284.02 163.021 282.717 161.729 282.603C160.845 282.524 160.007 282.977 159.236 283.42C154.704 286.027 149.356 288.85 144.541 286.82C141.062 285.347 138.909 281.243 139.68 277.547C140.45 273.84 144.065 270.938 147.838 270.984C149.821 271.006 151.736 271.743 153.718 271.811C155.701 271.879 157.99 270.972 158.455 269.057C158.828 267.549 157.945 266.019 156.857 264.919C153.027 261.008 146.603 260.532 141.583 262.72C136.564 264.908 132.802 269.261 130.004 273.965C131.182 266.517 134.071 259.353 138.4 253.186C141.912 248.175 146.422 243.664 148.268 237.826C148.597 236.794 148.801 235.57 148.132 234.719C147.407 233.801 146.036 233.767 144.881 233.983C139.306 234.969 134.819 239.311 132.043 244.242C129.267 249.173 127.896 254.75 126.208 260.158C124.52 265.565 122.39 271.018 118.469 275.11C117.336 274.203 117.733 272.423 118.243 271.063C121.834 261.529 126.355 252.358 131.715 243.698C125.619 245.557 121.075 250.737 117.959 256.303C114.844 261.87 112.849 267.991 109.813 273.602C112.475 266.619 115.138 259.636 117.801 252.653C110.47 258.004 105.858 266.415 103.354 275.133C97.4966 295.527 102.187 317.269 106.89 337.958" fill="#011ECB"/>
<path d="M133.029 333.208C130.378 323.187 133.947 311.986 141.81 305.253C145.787 301.852 150.795 299.959 155.305 297.408C159.304 295.141 164.505 291.536 165.389 286.639C165.831 284.213 164.426 281.333 161.729 281.175C160.392 281.095 159.225 281.787 158.103 282.422C156.687 283.227 155.259 284.02 153.764 284.678C151.044 285.879 147.736 286.752 144.892 285.426C142.694 284.394 141.164 282.07 140.96 279.667C140.756 277.264 142.059 274.838 144.133 273.511C146.818 271.788 149.435 272.684 152.347 273.092C154.727 273.421 157.435 273.047 159.01 271.029C160.755 268.796 159.757 265.973 158.013 264.08C154.104 259.829 147.396 259.103 142.161 260.962C136.247 263.071 131.93 267.991 128.78 273.239L131.363 274.328C132.519 267.22 135.148 260.452 139.193 254.501C142.818 249.161 148.11 244.264 149.73 237.803C150.478 234.821 148.892 232.316 145.651 232.463C142.66 232.599 139.68 234.096 137.334 235.875C131.964 239.945 129.12 246.123 127.08 252.381C124.633 259.897 123.035 268.149 117.438 274.101H119.444C118.753 273.432 119.308 272.196 119.58 271.437C120.056 270.111 120.588 268.818 121.121 267.515C122.231 264.783 123.432 262.085 124.712 259.421C127.171 254.274 129.924 249.263 132.916 244.412C133.55 243.38 132.496 241.952 131.318 242.326C117.823 246.645 114.481 261.801 108.578 272.877L111.161 273.965C113.824 266.982 116.486 259.999 119.149 253.016C119.568 251.905 118.039 250.692 117.064 251.417C108.136 258.038 103.162 268.433 100.884 279.1C98.2104 291.547 99.0715 304.38 101.111 316.85C102.289 324.059 103.887 331.201 105.507 338.332C105.915 340.111 108.646 339.352 108.238 337.583C105.507 325.578 102.811 313.483 102.165 301.16C101.576 289.79 102.731 277.853 107.728 267.469C110.266 262.209 113.778 257.38 118.503 253.877L116.418 252.279C113.756 259.262 111.093 266.245 108.43 273.228C107.853 274.736 110.266 275.722 111.014 274.316C116.452 264.125 119.591 249.048 132.054 245.069L130.457 242.983C127.001 248.583 123.874 254.387 121.132 260.384C119.806 263.286 118.56 266.234 117.404 269.215C116.543 271.414 115.433 274.18 117.438 276.119C117.971 276.64 118.911 276.686 119.444 276.119C123.727 271.562 125.959 265.69 127.772 259.806C129.675 253.594 131.261 246.894 135.408 241.714C137.142 239.548 139.272 237.667 141.787 236.454C142.954 235.898 144.337 235.388 145.64 235.32C147.691 235.207 147.067 236.998 146.569 238.335C144.45 244.083 139.782 248.481 136.451 253.503C132.44 259.545 129.777 266.449 128.61 273.602C128.361 275.11 130.321 276.153 131.193 274.69C133.913 270.167 137.606 265.701 142.682 263.785C147.056 262.141 153.628 262.425 156.483 266.744C158.545 269.861 154.579 270.632 152.325 270.269C149.673 269.827 147.181 269.181 144.563 270.156C140.133 271.8 137.334 276.334 138.264 281.027C139.261 286.061 143.951 289.337 148.982 288.906C151.792 288.668 154.432 287.58 156.925 286.299C158.126 285.675 159.27 284.916 160.494 284.337C162.386 283.442 162.896 285.369 162.375 286.854C160.766 291.389 155.475 294.189 151.498 296.252C147.135 298.519 142.648 300.594 139 303.96C130.933 311.42 127.443 323.368 130.253 333.99C130.717 335.747 133.448 334.999 132.984 333.242L133.029 333.208Z" fill="#FFFCF4"/>
<path d="M225.601 374.885C226.498 360.632 222.458 346.114 214.339 334.371C211.711 330.567 208.675 327.053 206.259 323.104C201.809 315.825 199.631 307.173 200.106 298.653C200.172 297.425 200.674 295.839 201.902 295.866C202.733 295.879 203.301 296.685 203.697 297.425C207.104 303.765 208.358 311.598 213.824 316.261C214.286 316.657 214.867 317.054 215.474 316.908C215.936 316.803 216.266 316.406 216.53 316.01C218.458 313.038 218.009 309.154 217.243 305.707C213.494 288.812 203.856 273.582 200.806 256.555C200.542 255.062 200.595 253.067 202.034 252.579C203.209 252.182 204.371 253.173 205.176 254.124C213.943 264.573 214.814 279.367 220.003 291.995C221.627 290.754 221.415 288.27 220.927 286.289C217.6 272.512 209.071 260.504 205.216 246.859C204.635 244.785 204.41 242.037 206.298 240.994C208.107 239.99 210.272 241.469 211.738 242.949C222.26 253.53 228.268 267.875 231.529 282.432C231.832 283.806 232.77 285.589 234.103 285.113C235.159 284.73 235.199 283.277 234.948 282.181C233.892 277.558 231.027 273.595 228.558 269.553C225.35 264.282 222.736 258.642 220.782 252.777C220.557 252.09 220.333 251.35 220.531 250.65C220.834 249.567 222.102 248.986 223.224 249.078C224.346 249.17 225.35 249.805 226.261 250.452C233.747 255.722 239.213 263.807 241.286 272.723C241.972 275.642 242.302 278.641 242.962 281.56C243.108 282.194 243.306 282.894 243.86 283.238C244.679 283.753 245.841 283.119 246.21 282.22C246.58 281.322 246.382 280.292 246.131 279.354C244.349 272.71 240.084 266.647 239.913 259.764C239.899 259.117 240.031 258.311 240.652 258.14C240.995 258.047 241.352 258.193 241.655 258.351C243.187 259.183 244.269 260.623 245.26 262.05C255.267 276.527 259.255 294.518 259.373 312.127C259.492 329.735 255.98 347.145 252.138 364.33" fill="#011ECB"/>
<path d="M227.251 374.884C228.123 359.905 223.805 344.754 215.078 332.548C212.794 329.365 210.286 326.34 208.173 323.037C206.061 319.735 204.556 316.433 203.46 312.826C202.364 309.22 201.757 305.35 201.704 301.506C201.704 300.581 201.651 299.591 201.77 298.666C201.796 298.415 201.836 298.19 201.902 297.953C202.021 297.49 201.677 297.385 202.074 297.9C203.024 299.128 203.605 300.938 204.186 302.364C205.427 305.389 206.496 308.507 208.041 311.4C209.322 313.817 211.448 317.397 214.18 318.374C217.64 319.616 219.184 314.9 219.475 312.351C219.871 308.837 218.933 305.231 218.022 301.863C213.982 286.817 205.902 273.132 202.747 257.822C202.575 257.017 202.364 256.184 202.351 255.365C202.324 254.084 202.628 253.939 203.658 254.877C205.018 256.118 206.074 257.968 206.998 259.553C208.926 262.815 210.325 266.342 211.5 269.949C213.93 277.399 215.461 285.139 218.419 292.431C218.894 293.593 220.175 294.043 221.178 293.158C224.875 289.868 221.97 283.303 220.637 279.539C218.801 274.347 216.438 269.354 214.088 264.387C211.738 259.421 209.229 254.058 207.487 248.629C207.077 247.334 205.48 243.635 207.011 242.526C208.807 241.218 212.2 245.775 213.177 246.898C220.241 254.995 224.901 264.955 227.951 275.179C228.717 277.716 229.271 280.305 229.958 282.867C230.433 284.637 231.516 286.764 233.602 286.817C235.688 286.87 236.823 284.849 236.731 282.933C236.612 280.397 235.305 277.755 234.13 275.549C231.476 270.543 228.175 265.959 225.773 260.794C224.518 258.126 223.422 255.392 222.498 252.591C222.313 252.05 221.878 251.218 222.432 250.821C222.947 250.451 223.792 250.861 224.267 251.099C225.469 251.706 226.565 252.631 227.595 253.49C231.542 256.792 234.737 260.9 237.008 265.51C238.13 267.782 238.988 270.173 239.609 272.643C240.375 275.721 240.626 278.918 241.405 281.982C241.906 283.977 243.477 285.655 245.682 284.822C248.191 283.885 248.323 281.124 247.742 278.891C246.395 273.634 243.451 268.931 242.144 263.661C241.986 263.027 241.854 262.38 241.748 261.719C241.669 261.204 241.787 260.213 241.576 259.738V259.381C241.339 259.513 241.088 259.632 240.837 259.764C240.837 259.777 241.484 260.187 241.523 260.213C242.184 260.715 242.738 261.362 243.24 262.01C244.864 264.136 246.237 266.488 247.531 268.813C250.158 273.594 252.218 278.667 253.762 283.898C260.641 307.067 257.42 331.518 252.548 354.74C251.901 357.791 251.241 360.829 250.554 363.881C250.092 365.955 253.274 366.84 253.736 364.753C259.11 340.711 263.849 315.759 258.964 291.216C256.812 280.397 252.785 269.526 246.25 260.557C244.996 258.839 242.725 255.881 240.23 256.528C237.734 257.175 238.249 260.53 238.526 262.393C239.358 267.967 242.342 272.868 244.072 278.178C244.27 278.799 244.481 279.433 244.626 280.067C244.745 280.622 244.547 281.573 244.798 281.837C244.468 281.507 244.388 280.252 244.309 279.856C244.138 279.01 243.992 278.165 243.847 277.333C243.345 274.44 242.844 271.573 241.893 268.799C240.243 263.938 237.655 259.447 234.315 255.55C232.625 253.582 230.737 251.799 228.69 250.2C226.802 248.734 224.492 246.911 221.944 247.532C219.396 248.153 218.432 250.333 219.039 252.684C219.752 255.471 221.006 258.219 222.168 260.847C224.597 266.356 227.951 271.243 230.869 276.474C231.529 277.663 232.163 278.891 232.638 280.173C232.862 280.793 233.074 281.414 233.245 282.062C233.311 282.313 233.417 282.656 233.43 282.933C233.443 283.145 233.232 283.818 233.562 283.541C233.826 283.317 233.351 282.748 233.232 282.365C233.047 281.811 232.955 281.216 232.823 280.648C232.493 279.222 232.123 277.808 231.74 276.408C228.849 265.973 224.426 255.867 217.745 247.281C215.29 244.124 210.312 236.859 205.48 239.554C201.057 242.011 203.988 248.774 205.229 252.195C209.163 263 215.342 272.881 218.603 283.937C219.145 285.8 220.597 289.234 218.841 290.806L221.6 291.533C218.841 284.73 217.31 277.531 215.157 270.543C214.101 267.135 212.873 263.767 211.302 260.557C209.824 257.558 207.87 253.859 205.163 251.799C202.298 249.632 199.195 251.574 199.063 254.943C198.997 256.567 199.473 258.245 199.816 259.83C200.278 261.904 200.832 263.965 201.453 266.012C203.829 273.845 207.157 281.335 210.14 288.944C211.632 292.748 213.045 296.579 214.207 300.502C215.276 304.121 216.689 308.269 216.214 312.087C216.108 312.932 215.91 314.028 215.408 314.715C214.88 315.442 215.329 315.125 214.841 314.927C214.537 314.795 214.194 314.332 213.956 314.094C212.715 312.813 211.738 311.307 210.893 309.735C209.269 306.671 208.173 303.355 206.827 300.172C205.85 297.873 204.226 293.118 200.832 294.439C197.73 295.654 198.337 300.621 198.469 303.21C198.892 311.122 201.44 318.863 205.823 325.468C208.358 329.285 211.368 332.773 213.877 336.617C216.385 340.46 218.366 344.344 219.937 348.518C223.119 356.946 224.492 365.915 223.964 374.897C223.845 377.024 227.146 377.011 227.264 374.897L227.251 374.884Z" fill="#FFFCF4"/>
<path d="M97.8008 337.862C101.671 338.918 104.617 344.847 108.056 346.964C115.521 351.558 125.081 352.154 133.568 351.708" stroke="#FFFCF4" stroke-width="3" stroke-linecap="round"/>
</g>
<path d="M96.07 330.939C86.7385 330.939 88.0653 348.025 87.9936 353.758C87.819 367.723 77.3958 377.188 70.1102 388.051C64.8384 395.912 60.4892 408.345 63.8927 417.664C65.1507 421.109 66.9007 423.889 66.072 427.664C65.1076 432.057 62.9453 435.609 60.4314 439.265C59.081 441.23 57.9667 442.826 59.7263 444.586" stroke="#FFFCF4" stroke-width="3" stroke-linecap="round"/>
<path d="M137.605 337.862C140.554 342.531 144.782 343.443 143.438 350.041C142.371 355.286 140.069 360.208 138.855 365.425C137.694 370.418 138.184 374.355 139.368 379.27C142.261 391.275 148.023 403.64 146.291 416.222C145.409 422.63 142.197 428.692 142.156 435.227C142.137 438.436 144.178 440.197 146.259 442.278" stroke="#FFFCF4" stroke-width="3" stroke-linecap="round"/>
<path d="M214.74 377.888C228.111 386.515 246.98 384.25 257.545 372.365" stroke="#FFFCF4" stroke-width="3" stroke-linecap="round"/>
<path d="M214.05 368.224C210.233 368.224 208.167 371.771 207.299 375.243C205.116 383.977 211.968 391.952 214.318 399.905C216.028 405.693 214.618 411.841 216.581 417.548C217.943 421.507 219.73 425.68 221.414 429.515C222.828 432.736 224.135 434.839 226.323 437.723C229.196 441.509 231.506 442.253 234.761 444.857" stroke="#FFFCF4" stroke-width="3" stroke-linecap="round"/>
<path d="M261.687 362.701C270.639 365.456 277.04 373.233 278.793 382.339C280.766 392.584 281.923 400.583 289.763 407.999C292.996 411.057 296.677 413.701 299.735 416.936C302.53 419.891 302.005 422.413 302.229 426.141C302.638 432.96 311.901 434.455 313.467 440.716" stroke="#FFFCF4" stroke-width="3" stroke-linecap="round"/>
<path d="M92.1504 352.238C93.7093 361.216 96.3323 369.524 99.6169 378.01" stroke="#FFFCF4" stroke-width="3" stroke-linecap="round"/>
<path d="M99.6169 384.993C96.7942 382.241 94.7408 378.435 93.8364 374.637" stroke="#FFFCF4" stroke-width="3" stroke-linecap="round"/>
<path d="M214.855 387.262C220.59 391.503 226.649 396.564 233.545 398.755C240.96 401.11 248.406 399.675 255.797 398.091C256.042 398.038 262.975 396.613 262.399 395.75C260.719 393.23 250.784 394.279 248.182 394.178" stroke="#FFFCF4" stroke-width="3" stroke-linecap="round"/>
<defs>
<clipPath id="clip0_63_22680">
<rect width="269.416" height="266.989" fill="white" transform="translate(45 109.48)"/>
</clipPath>
</defs>
</svg>
