<svg width="1440" height="674" viewBox="0 0 1440 674" fill="none" xmlns="http://www.w3.org/2000/svg">
<g clip-path="url(#clip0_63_21209)">
<rect width="1440" height="674" fill="#011ECB"/>
<g clip-path="url(#clip1_63_21209)">
<path d="M429.448 126.646L1031.86 446.09C1033.15 446.77 1034.49 447.403 1035.74 448.148C1044.77 453.757 1046.55 464.816 1041.87 473.804C1037.42 482.261 1032.93 490.653 1028.46 499.093C1007.47 538.665 986.505 578.204 965.522 617.775L891.9 756.612C878.558 781.774 865.376 807.02 851.89 832.064C846.806 841.498 836.019 845.564 826.212 840.652C825.218 840.124 824.192 839.58 823.165 839.036L801.449 827.52C770.718 811.225 740.02 794.946 709.29 778.651C665.087 755.211 620.853 731.755 576.65 708.315C528.534 682.801 480.45 657.303 432.334 631.788C390.793 609.76 349.253 587.733 307.713 565.705L231.593 525.341C227.423 523.129 222.726 521.214 218.862 518.425C210.542 512.492 209.319 501.934 213.831 493.348C215.447 490.299 217.064 487.25 218.681 484.201C236.516 450.567 254.334 416.965 272.17 383.331C297.187 336.154 322.221 288.944 347.238 241.767C372.255 194.589 382.125 175.975 399.569 143.079C400.965 140.447 402.36 137.816 403.739 135.216C408.823 125.782 419.561 121.731 429.416 126.628C434.745 129.29 439.085 121.106 433.756 118.445C419.807 111.5 403.489 116.622 395.948 130.222C394.742 132.419 393.617 134.618 392.442 136.833L372.769 173.933C349.556 217.709 326.343 261.484 303.13 305.26C279.917 349.035 255.887 394.352 232.283 438.865L210.55 479.849C208.933 482.898 207.317 485.947 205.7 488.995C200.984 497.967 200.492 508.273 205.62 517.201C210.061 525.025 217.63 528.422 225.072 532.368L253.845 547.626C288.232 565.86 322.587 584.078 356.974 602.312C403.455 626.959 449.935 651.607 496.447 676.271C542.959 700.935 592.615 727.266 640.731 752.781L819.21 847.424C820.814 848.274 822.433 849.174 824.122 849.864C837.647 855.514 852.751 849.584 859.748 836.93C863.791 829.617 867.577 822.167 871.491 814.786L933.557 697.74C958.591 650.531 983.625 603.321 1008.66 556.112C1022.44 530.116 1036.41 504.173 1050.03 478.092C1057.92 462.989 1052.14 446.441 1037.39 438.535C1031.01 435.15 1024.59 431.748 1018.21 428.363L927.877 380.464C883.578 356.973 839.279 333.483 794.948 309.975L648.963 232.563C606.525 210.059 564.087 187.556 521.68 165.069L433.788 118.462C428.527 115.672 424.188 123.856 429.448 126.646Z" fill="#FFFCF4"/>
<path d="M647.145 515.931L886.667 642.943C890.517 644.984 901.431 648.428 899.162 654.256C897.966 657.364 895.929 660.354 894.363 663.306L855.51 736.576C849.519 747.873 843.912 759.455 837.505 770.531C834.132 776.349 827.284 770.662 823.114 768.451L688.485 697.061C658.525 681.174 628.564 665.286 598.636 649.416C593.022 646.44 586.651 643.884 581.41 640.282C577.671 637.723 579.595 634.714 581.178 631.73L639.075 522.547C640.708 519.466 642.531 513.936 647.128 515.963C652.448 518.331 656.734 510.325 651.383 507.939C643.251 504.285 636.382 508.25 632.536 515.503L573.823 626.226C571.151 631.264 568.581 636.11 571.249 642.007C572.992 645.851 576.114 647.712 579.579 649.549L760.944 745.723C782.757 757.289 804.464 769.211 826.447 780.457C833.33 783.983 841.019 782.427 845.132 775.522C846.707 772.862 848.043 770.034 849.506 767.274L901.259 669.677C903.182 666.05 905.251 662.46 907.045 658.765C910.463 651.778 908.157 644.347 901.443 640.499C881.384 628.957 860.416 618.743 839.951 607.891L651.4 507.907C646.235 505.169 641.981 513.192 647.145 515.931Z" fill="#FFFCF4"/>
<path d="M327.109 346.224L437.295 404.652C442.812 407.578 449.119 410.1 454.263 413.65C455.654 414.593 455.761 415.555 455.172 417.052C454.274 419.289 452.841 421.449 451.718 423.567L400.782 519.623C397.803 525.239 395.242 531.775 391.575 536.985C390.548 538.456 389.576 538.352 388.129 537.749C385.942 536.835 383.798 535.452 381.681 534.33L263.989 471.921C262.321 471.036 260.173 470.514 260.521 468.231C260.693 467.13 261.865 465.696 262.376 464.733L323.301 349.838C324.016 348.49 325.001 345.394 327.076 346.207C332.449 348.398 336.736 340.391 331.331 338.183C320.65 333.835 316.712 342.89 312.729 350.399L259.649 450.499C257.13 455.249 253.928 460.048 252.036 465.089C248.373 474.865 257.57 478.755 264.339 482.344L330.45 517.402C348.253 526.842 365.85 536.749 383.891 545.74C389.092 548.333 395.031 547.905 398.63 542.824C399.622 541.417 400.343 539.826 401.16 538.285L452.861 440.785C456.299 434.302 459.946 427.889 463.209 421.272C465.786 416.101 465.263 410.19 460.248 406.627C458.907 405.669 457.348 404.966 455.905 404.2L331.38 338.168C326.216 335.429 321.961 343.453 327.126 346.191L327.109 346.224Z" fill="#FFFCF4"/>
<path d="M805.975 480.377L946.346 554.812C947.18 555.254 949.679 556.045 950.196 556.853C951.182 558.404 946.914 564.282 945.961 566.08L924.347 606.838C923.36 608.7 922.018 613.169 920.297 614.477C919.271 615.248 920.448 614.968 919.232 614.858C918.016 614.748 916.281 613.293 915.254 612.748L776.936 539.402C774.114 537.905 775.923 536.973 777.404 534.181L804.02 483.987C804.922 482.286 805.155 480.065 807.151 480.795C811.901 482.533 815.076 474.142 810.279 472.339C800.039 468.554 796.665 478.483 792.87 485.64L777.332 514.941C773.979 521.263 770.124 527.525 767.206 534.037C763.979 541.207 768.85 545.352 774.431 548.312L879.388 603.968C891.257 610.262 902.95 617.12 915.091 622.9C918.929 624.73 923.446 624.658 926.547 621.368C928.148 619.668 929.133 617.189 930.205 615.167L957.69 563.336C960.838 557.398 959.724 551.75 953.665 548.373C940.874 541.261 927.747 534.629 914.787 527.757L810.247 472.322C805.083 469.583 800.828 477.606 805.992 480.345L805.975 480.377Z" fill="#FFFCF4"/>
<path d="M925.764 612.072C912.442 596.661 899.072 581.264 885.75 565.853L821.968 492.147C817.068 486.506 812.186 480.833 807.286 475.193C803.462 470.78 797.275 477.409 801.068 481.804C814.39 497.216 827.76 512.612 841.082 528.023L904.864 601.729C909.764 607.37 914.646 613.043 919.546 618.684C923.37 623.096 929.557 616.468 925.764 612.072Z" fill="#FFFCF4"/>
<path d="M772.663 544.825C792.894 547.206 813.141 549.637 833.372 552.018C865.621 555.838 897.92 559.643 930.17 563.463C937.588 564.354 945.023 565.212 952.441 566.103C958.176 566.759 960.224 557.936 954.426 557.246C934.194 554.865 913.948 552.435 893.717 550.054L796.919 538.609C789.501 537.718 782.066 536.859 774.648 535.968C768.913 535.312 766.865 544.135 772.663 544.825Z" fill="#FFFCF4"/>
<path d="M375.087 418.499C357.354 409.095 335.351 415.855 325.942 433.598C316.534 451.34 323.283 473.346 341.016 482.75C358.75 492.154 380.753 485.394 390.161 467.651C399.57 449.909 392.821 427.902 375.087 418.499Z" fill="#FFFCF4" stroke="#FFFCF4" stroke-width="0.5" stroke-miterlimit="10"/>
<path d="M287.428 467.245L339.062 369.873L332.925 371.758L430.986 423.757L431.788 415.424C414.95 420.517 398.095 425.641 381.257 430.734C354.389 438.854 327.535 447.024 300.667 455.145C294.498 457.013 288.28 458.897 282.11 460.765C276.531 462.453 279.164 471.127 284.776 469.456C301.614 464.364 318.469 459.239 335.307 454.147C362.175 446.026 389.029 437.857 415.897 429.736C422.066 427.868 428.284 425.984 434.453 424.116C438.217 422.986 438.72 417.62 435.255 415.783L337.195 363.784C335.013 362.627 332.215 363.487 331.058 365.669L279.424 463.041C276.684 468.208 284.703 472.461 287.443 467.294L287.428 467.245Z" fill="#FFFCF4"/>
<path d="M1003.25 467.721L716.932 315.892C713.179 313.901 709.264 311.209 705.255 309.7C705.095 309.615 704.903 309.513 704.742 309.428C702.689 308.339 700.987 311.549 703.04 312.637L989.364 464.467C993.117 466.457 997.031 469.15 1001.04 470.658C1001.2 470.743 1001.39 470.845 1001.55 470.931C1003.61 472.019 1005.31 468.81 1003.25 467.721Z" fill="#FFFCF4"/>
<path d="M995.946 481.814L709.623 329.984C705.87 327.994 701.955 325.302 697.947 323.793C697.786 323.708 697.594 323.606 697.433 323.521C695.38 322.432 693.679 325.641 695.732 326.73L982.055 478.56C985.808 480.55 989.723 483.242 993.731 484.751C993.891 484.836 994.084 484.938 994.244 485.023C996.297 486.112 997.999 482.903 995.946 481.814Z" fill="#FFFCF4"/>
<path d="M988.509 495.839L702.186 344.009C698.433 342.019 694.518 339.326 690.51 337.818C690.349 337.733 690.157 337.631 689.996 337.545C687.943 336.457 686.242 339.666 688.295 340.755L974.618 492.584C978.371 494.575 982.286 497.267 986.294 498.776C986.454 498.861 986.647 498.963 986.807 499.048C988.86 500.137 990.562 496.927 988.509 495.839Z" fill="#FFFCF4"/>
<path d="M980.927 509.828L694.604 357.998C690.85 356.008 686.936 353.315 682.927 351.806C682.767 351.721 682.574 351.619 682.414 351.534C680.361 350.446 678.659 353.655 680.712 354.744L967.035 506.573C970.788 508.563 974.703 511.256 978.712 512.765C978.872 512.85 979.064 512.952 979.225 513.037C981.278 514.126 982.98 510.916 980.927 509.828Z" fill="#FFFCF4"/>
<path d="M971.824 522.887L685.5 371.057C681.747 369.067 677.833 366.374 673.824 364.866C673.664 364.781 673.471 364.678 673.311 364.593C671.258 363.505 669.556 366.714 671.609 367.803L957.964 519.649C961.717 521.64 965.632 524.332 969.641 525.841C969.801 525.926 969.993 526.028 970.154 526.113C972.207 527.202 973.909 523.992 971.856 522.904L971.824 522.887Z" fill="#FFFCF4"/>
<path d="M964.642 536.43L678.319 384.601C674.566 382.61 670.651 379.918 666.643 378.409C666.482 378.324 666.29 378.222 666.129 378.137C664.076 377.048 662.375 380.258 664.427 381.346L950.783 533.193C954.536 535.183 958.451 537.876 962.459 539.384C962.619 539.469 962.812 539.572 962.972 539.657C965.025 540.745 966.727 537.536 964.674 536.447L964.642 536.43Z" fill="#FFFCF4"/>
<path d="M623.802 373.249L373.726 240.641C371.673 239.552 369.971 242.761 372.024 243.85L622.1 376.458C624.153 377.547 625.855 374.338 623.802 373.249Z" fill="#FFFCF4"/>
<path d="M616.461 387.325L366.385 254.717C364.332 253.628 362.63 256.837 364.683 257.926L614.759 390.535C616.812 391.623 618.514 388.414 616.461 387.325Z" fill="#FFFCF4"/>
<path d="M609.024 401.35L358.948 268.742C356.895 267.653 355.193 270.862 357.246 271.951L607.322 404.56C609.375 405.648 611.077 402.439 609.024 401.35Z" fill="#FFFCF4"/>
<path d="M601.491 415.324L351.415 282.715C349.362 281.627 347.66 284.836 349.713 285.925L599.789 418.533C601.842 419.622 603.544 416.412 601.491 415.324Z" fill="#FFFCF4"/>
<path d="M592.676 428.536L342.601 295.928C340.548 294.839 338.846 298.048 340.899 299.137L590.974 431.746C593.027 432.834 594.729 429.625 592.676 428.536Z" fill="#FFFCF4"/>
<path d="M585.495 442.08L335.419 309.471C333.366 308.382 331.664 311.592 333.717 312.68L583.793 445.289C585.846 446.378 587.548 443.168 585.495 442.08Z" fill="#FFFCF4"/>
<path d="M924.737 205.77C917.711 236.978 889.817 262.379 858.089 266.409C835.632 269.25 810.99 262.711 791.342 273.958C788.246 275.74 785.248 278.067 783.831 281.338C782.414 284.609 783.019 288.988 786.011 290.928C788.056 292.259 790.678 292.238 793.119 292.156C807.49 291.661 824.12 291.693 833.205 302.827C839.758 310.889 839.701 323.632 833.068 331.619C826.42 339.632 813.9 342.027 804.791 337.055C800.003 334.446 796.3 330.188 791.57 327.469C786.84 324.749 780.111 324.003 776.514 328.06C773.663 331.241 773.839 336.098 775.065 340.171C779.331 354.607 794.326 364.041 809.34 365.192C824.354 366.343 839.101 360.613 851.962 352.788C839.504 369.366 823.253 383.05 804.793 392.457C789.803 400.105 773.034 405.257 761.026 417.062C758.898 419.145 756.825 421.857 757.354 424.784C757.933 427.949 761.22 429.798 764.305 430.763C779.12 435.549 795.615 430.781 808.713 422.377C821.81 413.972 832.327 402.188 843.395 391.225C854.463 380.262 866.664 369.759 881.461 364.867C883.046 368.53 879.789 372.343 876.798 374.992C855.788 393.527 832.989 409.984 808.81 424.122C826.016 427.459 843.729 420.725 858.47 411.217C873.212 401.708 885.943 389.404 900.55 379.683C885.084 393.218 869.619 406.754 854.153 420.29C878.857 416.734 900.898 402.239 918.213 384.285C958.72 342.283 975.335 283.414 990.565 227.091" fill="#011ECB"/>
<path d="M920.937 204.955C914.468 232.718 891.367 255.331 863.587 261.561C849.543 264.7 834.936 262.847 820.694 263.234C808.055 263.59 790.775 265.648 782.319 276.408C778.12 281.732 777.824 290.538 784.171 294.398C787.317 296.313 791.043 296.137 794.587 296.04C799.065 295.909 803.556 295.82 808.036 296.15C816.191 296.734 825.354 298.875 830.555 305.762C834.567 311.1 835.289 318.717 832.688 324.819C830.087 330.92 823.796 335.136 817.05 335.687C808.306 336.414 803.1 330.866 796.551 326.123C791.194 322.258 784.132 319.678 777.706 322.552C770.59 325.73 769.376 333.872 771.176 340.72C775.196 356.084 790.559 366.489 805.672 368.716C822.758 371.213 839.585 364.821 854 356.128L849.126 350.155C837.161 365.935 822.055 378.991 804.56 388.24C788.872 396.541 769.706 401.622 757.445 415.234C751.787 421.514 752.413 429.644 760.476 433.461C767.919 436.985 777.087 437.188 785.078 435.886C803.37 432.917 818.239 421.571 831.256 408.995C846.886 393.888 861.4 375.895 882.666 368.647L877.794 366.063C878.611 368.578 875.67 370.865 874.031 372.36C871.166 374.969 868.207 377.423 865.234 379.904C859.016 385.111 852.622 390.119 846.08 394.942C833.475 404.279 820.33 412.905 806.812 420.839C803.941 422.528 804.661 427.356 808.006 427.965C846.357 434.858 874.005 402.34 902.616 383.036L897.742 377.064C882.276 390.6 866.81 404.135 851.344 417.671C848.894 419.83 851.048 424.748 854.35 424.24C884.572 419.659 910.05 400.811 929.326 377.827C951.859 351.031 966.3 318.744 977.41 285.82C983.836 266.785 989.155 247.375 994.405 227.963C995.707 223.114 988.094 221.441 986.807 226.263C977.975 258.948 968.943 291.81 954.637 322.581C941.419 350.965 923.232 378.478 897.714 397.269C884.771 406.779 870.016 413.986 854.023 416.41L857.029 422.979C872.495 409.444 887.961 395.908 903.427 382.372C906.773 379.454 902.18 373.948 898.552 376.4C872.209 394.154 845.159 426.741 809.751 420.351L810.945 427.477C826.556 418.324 841.632 408.251 856.02 397.214C862.98 391.871 869.805 386.316 876.454 380.561C881.38 376.327 887.641 371.037 885.266 363.744C884.644 361.791 882.417 360.469 880.393 361.16C864.116 366.714 851.128 378.105 839.143 390.064C826.515 402.705 814.03 416.939 797.28 424.183C790.278 427.21 782.679 429.038 775.005 428.744C771.453 428.59 767.438 428.049 764.184 426.535C759.056 424.169 762.877 420.62 765.812 418.012C778.364 406.778 795.373 402.106 809.936 394.196C827.466 384.684 842.829 371.341 854.881 355.465C857.429 352.123 854.01 347.064 850.006 349.493C837.572 356.979 822.843 363.072 808.042 361.187C795.299 359.545 779.697 350.39 778.325 336.218C777.331 325.987 787.959 329.223 792.97 333.01C798.842 337.5 804.065 342.281 811.681 343.285C824.562 344.999 837.203 337.587 840.993 324.988C845.055 311.474 837.879 297.471 825.101 292.037C817.967 288.995 810.151 288.238 802.444 288.138C798.723 288.106 794.964 288.477 791.246 288.305C785.495 288.043 786.739 282.704 789.919 279.767C799.67 270.823 816.133 270.837 828.454 270.948C841.973 271.06 855.547 271.8 868.749 268.321C897.959 260.592 921.832 236.058 928.689 206.631C929.825 201.763 922.226 200.063 921.091 204.93L920.937 204.955Z" fill="#FFFCF4"/>
<path d="M749.718 -15.5679C729.174 17.9044 720.286 58.3803 724.885 97.3725C726.367 110 729.218 122.449 729.999 135.158C731.432 158.574 725.578 182.402 713.447 202.49C711.703 205.39 708.442 208.595 705.493 206.948C703.489 205.845 703.148 203.156 703.139 200.848C703.032 181.055 710.076 160.407 702.804 142.036C702.191 140.478 701.291 138.767 699.628 138.337C698.369 137.999 697.057 138.536 695.904 139.159C687.392 143.896 683.479 153.91 680.898 163.273C668.241 209.152 672.036 258.573 657.509 303.871C656.227 307.837 653.529 312.616 649.403 311.949C646.038 311.398 644.491 307.494 643.76 304.146C635.922 267.465 652.865 230.398 656.529 193.031C650.983 193.956 648.297 200.262 646.931 205.705C637.265 243.465 642.517 283.627 634.304 321.746C633.043 327.533 630.049 334.498 624.117 334.601C618.429 334.71 615.074 328.326 613.42 322.843C601.486 283.579 605.373 240.986 616.204 201.418C617.236 197.689 617.256 192.148 613.403 191.586C610.344 191.156 608.375 194.635 607.572 197.622C604.182 210.215 606.037 223.535 606.828 236.536C607.833 253.475 606.917 270.547 604.109 287.314C603.769 289.272 603.361 291.358 601.978 292.804C599.845 295.044 596.017 294.823 593.409 293.153C590.802 291.482 589.181 288.649 587.801 285.903C576.404 263.453 573.539 236.77 579.99 212.436C582.083 204.459 585.144 196.748 587.301 188.805C587.765 187.078 588.186 185.122 587.282 183.573C585.956 181.266 582.317 181.31 580.261 183.016C578.206 184.722 577.36 187.481 576.761 190.083C572.531 208.522 575.081 228.747 566.631 245.689C565.829 247.278 564.47 249.066 562.741 248.684C561.788 248.466 561.109 247.654 560.576 246.878C557.927 242.883 557.152 237.99 556.584 233.248C550.921 185.18 564.413 136.331 586.81 93.3975C609.207 50.4637 640.169 12.6891 671.645 -24.1148" fill="#011ECB"/>
<path d="M745.708 -17.6939C724.292 17.5776 715.262 59.951 720.74 100.849C722.188 111.526 724.385 122.108 725.263 132.852C726.141 143.597 725.543 153.56 723.56 163.733C721.576 173.907 718.065 184.093 713.241 193.5C712.05 195.746 710.902 198.221 709.422 200.315C709.034 200.891 708.649 201.385 708.182 201.878C707.298 202.848 707.996 203.547 707.697 201.785C706.97 197.576 707.89 192.43 708.317 188.216C709.199 179.268 710.617 170.316 710.591 161.297C710.594 153.774 710.041 142.338 704.66 136.442C697.856 128.969 688.027 138.436 684.037 144.256C678.548 152.282 676.179 162.252 674.053 171.609C664.485 213.369 666.485 257.028 654.427 298.289C653.806 300.468 653.247 302.762 652.224 304.769C650.638 307.916 649.713 307.878 648.419 304.273C646.715 299.504 646.531 293.65 646.328 288.608C645.848 278.197 646.992 267.825 648.783 257.55C652.479 236.319 658.731 215.539 660.939 194.014C661.282 190.577 658.749 187.836 655.171 188.693C641.952 191.922 640.551 211.615 638.941 222.479C636.711 237.456 636.02 252.633 635.331 267.727C634.642 282.822 633.827 299.084 631.067 314.52C630.393 318.193 629.51 329.237 624.359 329.96C618.312 330.824 615.939 315.38 615.012 311.393C608.283 282.619 609.791 252.416 615.554 223.647C616.961 216.498 618.949 209.493 620.583 202.383C621.708 197.47 621.818 190.908 616.818 188.092C611.817 185.276 606.455 188.724 604.212 193.496C601.233 199.811 601.005 207.914 601.018 214.788C601.015 230.37 603.129 245.759 602.313 261.403C601.923 269.502 601.063 277.557 599.7 285.552C599.451 287.106 599.438 289.689 597.58 289.937C595.853 290.173 594.327 288.089 593.479 286.899C591.343 283.875 589.871 280.217 588.475 276.804C583.139 263.694 580.669 249.597 581.091 235.471C581.292 228.505 582.287 221.59 583.962 214.789C586.066 206.325 589.575 198.235 591.631 189.786C592.982 184.293 591.326 178.193 584.897 177.374C577.594 176.421 573.716 182.959 572.252 189.131C568.75 203.639 569.845 218.857 566.23 233.347C565.798 235.091 565.285 236.834 564.691 238.575C564.22 239.929 562.655 242.182 562.555 243.61L562.096 244.477C562.843 244.462 563.606 244.496 564.386 244.498C564.403 244.466 563.358 242.638 563.296 242.523C562.339 240.453 561.826 238.166 561.441 235.947C560.235 228.687 559.928 221.206 559.78 213.89C559.557 198.887 561.088 183.91 564.074 169.211C577.212 104.057 616.54 48.8018 658.295 -1.34202C663.798 -7.92216 669.316 -14.4532 674.915 -20.9823C678.71 -25.4256 672.119 -31.6753 668.308 -27.1999C624.279 24.2874 580.615 78.8056 560.864 144.729C552.155 173.786 547.932 205.387 552.255 235.599C553.09 241.387 554.795 251.501 561.692 253.144C568.588 254.786 571.66 245.971 573.386 241.088C578.547 226.473 577.611 210.722 580.25 195.593C580.569 193.829 580.873 192.016 581.337 190.289C581.763 188.788 583.469 186.732 583.2 185.767C583.576 186.995 582.152 190.146 581.834 191.21C581.162 193.486 580.426 195.727 579.706 197.936C577.198 205.611 574.724 213.221 573.46 221.186C571.207 235.122 571.708 249.368 574.803 263.139C576.373 270.098 578.663 276.863 581.575 283.383C584.274 289.378 587.539 296.784 594.529 298.558C601.52 300.333 606.67 296.279 608.224 289.784C610.082 282.093 610.575 273.802 611.139 265.919C612.333 249.406 610.482 233.211 610.132 216.742C610.06 213.004 610.103 209.202 610.599 205.477C610.854 203.679 611.14 201.899 611.557 200.105C611.72 199.41 611.906 198.44 612.231 197.749C612.471 197.218 613.853 195.854 612.693 196.102C611.762 196.308 612.185 198.3 611.981 199.384C611.715 200.97 611.174 202.533 610.763 204.083C609.727 207.975 608.804 211.885 607.93 215.78C601.511 244.859 599.237 275.109 604.407 304.577C606.306 315.411 609.039 339.475 624.251 339.154C638.162 338.883 639.754 318.675 641.147 308.763C645.509 277.442 643.226 245.475 649.548 214.412C650.632 209.189 651.528 198.974 657.82 197.417L652.052 192.097C649.991 212.18 644.437 231.644 640.663 251.394C638.839 261.035 637.482 270.801 637.164 280.624C636.893 289.814 636.876 301.318 640.797 309.811C644.967 318.766 655.006 318.045 659.667 310.032C661.921 306.169 662.927 301.481 664.135 297.187C665.684 291.553 666.992 285.832 668.122 280.058C672.44 257.965 674.006 235.482 676.559 213.151C677.836 201.986 679.339 190.859 681.57 179.831C683.635 169.659 685.547 157.762 691.62 149.099C692.966 147.181 694.859 144.773 696.963 143.75C699.182 142.665 697.683 142.857 698.615 143.968C699.182 144.68 699.421 146.246 699.692 147.13C701.056 151.842 701.49 156.759 701.518 161.667C701.515 171.205 699.906 180.672 699.076 190.141C698.489 196.984 696.308 210.63 706.253 211.792C715.357 212.837 720.281 199.988 723.295 193.527C732.463 173.759 736.245 151.669 734.104 129.975C732.864 117.434 730.043 105.083 728.901 92.5121C727.758 79.941 727.95 67.954 729.511 55.7882C732.638 31.2132 740.857 7.65267 753.713 -13.4906C756.741 -18.5045 748.705 -22.7249 745.693 -17.743L745.708 -17.6939Z" fill="#FFFCF4"/>
<path d="M1012.52 239.033C1004.48 231.482 1004.96 213.281 999.333 203.706C987.115 182.929 964.657 169.163 943.462 159.314" stroke="#FFFCF4" stroke-width="3" stroke-linecap="round"/>
</g>
<path d="M1007.81 258.082C1030.48 270.104 1049.27 226.883 1056.83 213.046C1075.25 179.342 1112.76 169.777 1144.46 152.769C1167.4 140.463 1193.98 115.857 1197.72 88.8312C1199.1 78.8417 1198.43 69.8336 1205.31 61.7292C1213.31 52.2975 1223.14 46.454 1233.96 40.8087C1239.77 37.7764 1244.53 35.3334 1242.53 28.7913" stroke="#FFFCF4" stroke-width="3" stroke-linecap="round"/>
<path d="M915.813 187.75C914.664 172.608 905.568 164.946 917.332 150.646C926.684 139.278 938.618 130.286 948.286 119.175C957.541 108.538 961.423 98.3436 964.878 84.8757C973.317 51.9813 975.247 14.5161 995.667 -13.823C1006.07 -28.2543 1021.68 -38.8442 1030.2 -54.6713C1034.38 -62.4419 1031.69 -69.3492 1029.31 -77.0871" stroke="#FFFCF4" stroke-width="3" stroke-linecap="round"/>
<path d="M779.977 -8.87607C758.605 -47.0609 709.843 -65.8693 668.864 -50.6042" stroke="#FFFCF4" stroke-width="3" stroke-linecap="round"/>
<path d="M769.202 15.4965C778.475 20.4135 788.064 14.4576 794.646 7.14013C811.204 -11.2676 804.829 -39.4725 809.367 -61.8226C812.669 -78.0886 824.017 -91.2093 826.599 -107.604C828.391 -118.976 829.425 -131.418 830.275 -142.905C830.989 -152.553 830.524 -159.346 828.922 -169.173C826.819 -182.07 822.166 -186.855 817.612 -197.377" stroke="#FFFCF4" stroke-width="3" stroke-linecap="round"/>
<path d="M1044.77 211.385C1052.55 187.565 1056.88 163.999 1059.83 139.151" stroke="#FFFCF4" stroke-width="3" stroke-linecap="round"/>
<path d="M1068.83 122.182C1072.15 132.505 1072.23 144.398 1069.53 154.792" stroke="#FFFCF4" stroke-width="3" stroke-linecap="round"/>
</g>
<defs>
<clipPath id="clip0_63_21209">
<rect width="1440" height="674" fill="white"/>
</clipPath>
<clipPath id="clip1_63_21209">
<rect width="740.908" height="734.233" fill="white" transform="translate(846.572 861.934) rotate(-152.064)"/>
</clipPath>
</defs>
</svg>
