<svg width="369" height="430" viewBox="0 0 369 430" fill="none" xmlns="http://www.w3.org/2000/svg">
<g clip-path="url(#clip0_68_23624)">
<path d="M183.464 22.0911C175.244 23.7003 167.299 27.9045 160.659 32.8771C134.926 52.1006 127.678 88.4164 131.23 118.745C133.158 135.17 138.087 151.9 149.076 164.571C155.107 171.53 162.747 176.241 171.996 177.59C183.406 179.257 195.583 175.603 202.788 166.325" stroke="#011ECB" stroke-width="4.3492" stroke-miterlimit="10" stroke-linecap="round"/>
<path d="M189.828 23.4683C189.828 23.4683 173.083 75.0208 221.678 109.177" stroke="#011ECB" stroke-width="4.3492" stroke-miterlimit="10" stroke-linecap="round"/>
<path d="M163.675 88.6047L152.715 121.354L161.848 124.848" stroke="#011ECB" stroke-width="4.3492" stroke-miterlimit="10" stroke-linecap="round"/>
<path d="M165.023 80.3993C166.256 80.3993 167.255 79.3997 167.255 78.1667C167.255 76.9336 166.256 75.9341 165.023 75.9341C163.79 75.9341 162.79 76.9336 162.79 78.1667C162.79 79.3997 163.79 80.3993 165.023 80.3993Z" fill="#011ECB"/>
<path d="M173.098 139.259C173.098 139.259 184.043 142.839 188.422 132.097" stroke="#011ECB" stroke-width="4.3492" stroke-miterlimit="10" stroke-linecap="round"/>
<path d="M132.781 62.1471C132.781 62.1471 92.8115 29.2816 126.126 10.1886C159.441 -8.90443 291.324 15.0742 291.324 15.0742C291.324 15.0742 329.075 64.3652 317.97 113.656C306.865 162.947 312.287 155.843 320.014 162.063C327.741 168.282 360.157 192.71 353.053 225.561C345.95 258.412 348.864 263.312 354.068 265.081C359.273 266.85 373.045 284.623 362.825 297.048C352.604 309.472 342.847 315.256 345.5 324.578C348.153 333.9 333.511 335.234 333.511 335.234" stroke="#011ECB" stroke-width="4.3492" stroke-miterlimit="10" stroke-linecap="round"/>
<path d="M223.317 106.727C224.476 103.711 226.506 100.841 229.072 98.8835C232.74 96.1 238.205 95.4766 242.453 97.1728C247.803 99.3039 249.847 105.523 249.919 110.887C249.992 116.454 248.122 122.007 245.367 126.805" stroke="#011ECB" stroke-width="4.3492" stroke-miterlimit="10" stroke-linecap="round"/>
<path d="M254.515 173.922C270.491 171.501 283.336 158.932 283.336 158.932C289.381 152.843 293.803 145.275 296.659 137.215C298.094 133.155 299.152 128.951 299.819 124.703C300.167 122.442 302.139 114.091 299.964 112.511C296.92 110.293 291.773 119.89 290.773 121.731C289.57 123.935 288.656 126.284 288.047 128.734C287.728 129.995 287.496 131.271 287.351 132.575C287.105 134.765 286.917 135.837 287.163 135.953C287.873 136.258 291.164 131.387 293.208 125.878C294.339 122.819 294.731 120.528 295.267 117.339C296.383 110.771 296.282 106.045 295.412 101.812C294.687 98.2457 293.861 97.2019 292.904 96.7815C290.7 95.8392 287.844 98.1878 287.395 98.5647C286.786 99.0721 285.67 100.116 283.713 104.451C282.973 106.089 282.19 107.843 281.364 110.554C279.639 116.193 279.291 120.731 278.957 125.341C278.798 127.4 278.798 128.647 278.856 130.285C278.87 130.705 279.131 131.706 278.972 132.097C281.813 125.312 283.988 118.136 284.51 110.771C284.785 106.944 284.713 103.03 283.93 99.2606C283.51 97.2599 281.581 89.7648 278.566 90.2432C278.073 90.3157 277.682 90.6636 277.319 91.0116C273.318 94.8534 271.071 100.188 269.708 105.552C267.954 112.453 267.519 119.673 268.403 126.733C273.463 119.151 274.289 109.757 271.926 101.087C271.042 97.8108 269.708 94.5924 267.577 91.9394C266.504 90.6056 264.953 89.3444 263.257 89.6053C262.546 89.7213 261.909 90.0982 261.343 90.5477C258.299 92.9977 256.921 97.5644 255.936 101.189C254.79 105.349 254.109 109.684 254.022 113.99C253.761 125.544 247.078 131.648 237.22 136.127C229.608 139.592 221.562 144.26 220.881 153.51C220.577 157.583 221.2 161.788 221.707 165.818" stroke="#011ECB" stroke-width="4.3492" stroke-linecap="round" stroke-linejoin="round"/>
<path d="M188.161 357.473C202.368 349.775 220.185 352.065 220.185 352.065C230.435 354.226 240.409 358.256 248.745 364.693C253.66 368.491 258.038 373.217 261.372 378.465C261.575 378.799 261.793 379.19 261.648 379.552C261.517 379.9 261.097 380.06 260.72 380.074C257.037 380.219 253.297 379.175 249.919 377.813C244.889 375.798 240.351 372.478 237.046 368.172C237.553 367.853 238.191 368.012 238.756 368.186C244.976 370.158 250.064 373.681 254.761 378.103C259.604 382.669 262.372 386.511 264.243 390.411C265.823 393.702 265.794 395.021 265.272 395.934C264.083 398.008 260.386 397.848 259.792 397.834C259.009 397.805 257.472 397.631 253.312 395.354C251.731 394.499 250.05 393.571 247.745 391.904C242.975 388.454 239.96 385.032 236.901 381.553C235.538 380.002 234.784 379.001 233.842 377.668C233.595 377.32 233.204 376.363 232.841 376.145C239.191 379.842 245.266 384.264 250.122 389.831C252.645 392.716 254.95 395.891 256.603 399.37C257.472 401.226 260.444 408.359 257.748 409.794C257.313 410.026 256.791 409.997 256.298 409.939C250.789 409.286 245.788 406.387 241.453 402.922C235.9 398.471 231.189 392.977 227.651 386.816C236.248 389.816 242.569 396.819 245.918 405.155C247.179 408.315 248.064 411.678 247.948 415.071C247.89 416.782 247.411 418.724 245.904 419.536C245.266 419.87 244.526 419.956 243.801 419.942C239.902 419.826 236.045 417.014 233.073 414.708C229.652 412.084 226.506 409.025 223.824 405.648C216.72 396.659 206.63 395.963 206.63 395.963C180.477 403.574 177.157 397.442 177.157 397.442" stroke="#011ECB" stroke-width="4.3492" stroke-linecap="round" stroke-linejoin="round"/>
<path d="M181.579 177.734L188.161 194.914" stroke="#011ECB" stroke-width="4.3492" stroke-miterlimit="10" stroke-linecap="round"/>
<path d="M89.8976 209.933C44.9559 241.161 3.60945 288.581 2.52214 345.991C1.98574 374.159 14.12 404.198 40.3312 417.506C65.4116 430.235 95.8851 429.206 122.285 421.421C146.611 414.244 172.098 400.936 183.913 377.247C189.784 365.49 190.205 352.413 178.984 343.903C167.835 335.437 152.961 333.422 139.406 332.334C123.184 331.03 107.034 332.436 91.1154 335.77C76.1397 338.902 60.3666 342.99 47.5944 351.761" stroke="#011ECB" stroke-width="4.3492" stroke-miterlimit="10" stroke-linecap="round"/>
<path d="M274.666 169.036C274.666 169.036 338.672 167.18 342.688 274.055C346.704 380.929 261.256 401.95 261.256 401.95" stroke="#011ECB" stroke-width="4.3492" stroke-miterlimit="10" stroke-linecap="round"/>
<path d="M103.333 169.635C101.833 176.135 104.424 182.475 107.555 187.897C111.789 195.218 115.63 202.713 109.31 210.194C106.99 212.949 103.917 214.978 100.771 216.732C91.5938 221.85 81.3877 224.923 72.4428 230.476C62.9036 236.42 55.4809 245.626 51.2187 255.991C47.3334 265.414 46.3476 276.157 49.3486 285.899C53.0889 298.033 61.4828 306.862 71.0076 314.749C67.1223 309.037 65.7306 301.687 67.2093 294.946C67.9921 291.408 69.5724 287.987 72.1529 285.45C75.3278 282.304 79.7205 280.738 84.0552 279.622C93.6379 277.172 103.583 276.563 113.195 274.258C123.314 271.822 132.607 266.835 141.001 260.775C157.542 248.844 170.184 231.476 176.534 212.093C177.534 209.02 178.389 205.888 179.056 202.713C180.245 197.146 181.057 191.492 181.55 185.824" stroke="#011ECB" stroke-width="4.3492" stroke-miterlimit="10" stroke-linecap="round" stroke-linejoin="round"/>
<path d="M191.857 347.455C191.857 347.455 165.153 216.384 207.587 177.981C250.021 139.577 279.581 229.693 285.786 273.547C291.991 317.402 285.786 354.124 285.786 354.124" stroke="#011ECB" stroke-width="4.3492" stroke-miterlimit="10" stroke-linecap="round"/>
<path d="M179.636 101.247C180.709 101.247 181.579 98.222 181.579 94.4909C181.579 90.7598 180.709 87.7351 179.636 87.7351C178.563 87.7351 177.693 90.7598 177.693 94.4909C177.693 98.222 178.563 101.247 179.636 101.247Z" stroke="#011ECB" stroke-width="4.3492" stroke-miterlimit="10" stroke-linecap="round"/>
<path d="M149.772 101.247C150.845 101.247 151.714 98.222 151.714 94.4909C151.714 90.7598 150.845 87.7351 149.772 87.7351C148.699 87.7351 147.829 90.7598 147.829 94.4909C147.829 98.222 148.699 101.247 149.772 101.247Z" stroke="#011ECB" stroke-width="4.3492" stroke-miterlimit="10" stroke-linecap="round"/>
<path d="M124.122 122.635C118.108 123.901 105.796 131.466 104.656 151.596L131.718 153.969C132.034 150.171 132.333 148.635 131.833 144.635" stroke="#011ECB" stroke-width="4" stroke-linecap="round"/>
<circle cx="105.131" cy="158.242" r="3.79811" fill="#011ECB"/>
<circle cx="117.475" cy="159.192" r="3.79811" fill="#011ECB"/>
<circle cx="129.819" cy="160.141" r="3.79811" fill="#011ECB"/>
</g>
<defs>
<clipPath id="clip0_68_23624">
<rect width="368.334" height="428.73" fill="white" transform="translate(0.333008 0.63501)"/>
</clipPath>
</defs>
</svg>
