<svg width="360" height="493" viewBox="0 0 360 493" fill="none" xmlns="http://www.w3.org/2000/svg">
<g clip-path="url(#clip0_63_22441)">
<rect y="0.34668" width="360" height="492" rx="25" fill="#011ECB"/>
<g clip-path="url(#clip1_63_22441)">
<path d="M238.57 338.874C232.072 349.28 225.558 359.677 219.051 370.099L209.412 385.506L204.84 392.825L202.434 396.69C202.165 397.146 201.831 397.82 201.468 398.22C200.638 399.195 200.4 399.31 199.179 398.929C176.553 391.718 154.573 382.151 133.613 371C123.224 365.468 113.054 359.492 103.167 353.109C98.2232 349.918 93.3445 346.616 88.5465 343.214C84.7815 340.548 78.7805 337.455 78.1531 332.353C77.5469 327.54 80.3445 322.038 82.1004 317.727C84.3698 312.148 87.0142 306.726 89.807 301.413C95.3835 290.804 101.49 280.485 107.438 270.073C131.653 227.678 155.726 185.198 180.32 143.026C192.555 122.062 204.948 101.192 217.631 80.5138C223.969 70.1623 230.393 59.8823 236.889 49.6239C239.804 45.0411 242.633 40.28 246.478 36.3935C250.322 32.5071 254.603 30.512 259.661 29.3994C264.718 28.2868 269.725 28.1625 274.768 27.9752C280.38 27.7622 285.999 27.6809 291.635 27.7155C303.029 27.7933 314.396 28.3856 325.736 29.4925C337.06 30.5901 348.559 31.8966 359.631 34.6488C369.928 37.199 380.1 41.5849 386.944 49.9919C392.537 56.8766 395.394 66.0942 392.466 74.7011C390.739 79.7935 387.393 84.6741 383.968 88.7867C382.654 90.3668 381.095 92.0364 379.024 92.5551C376.493 93.2055 373.793 92.1226 371.303 91.6938C355.193 88.9408 338.614 96.5001 328.881 109.327C323.811 116.013 320.843 124.256 320.783 132.687C320.694 142.502 324.915 151.208 332.643 157.251C336.764 160.466 341.396 162.816 346.198 164.841C350.729 166.749 355.433 168.653 360.371 169.041C369.913 169.808 377.001 162.764 381.378 155.054C388.851 141.913 391.784 119.559 374.822 112.229C366.676 108.699 355.727 108.48 347.865 112.904C340.004 117.329 336.557 126.924 340.217 135.321C343.877 143.718 354.243 147.666 362.421 144.002C366.35 142.244 369.552 138.51 369.627 134.056C369.702 129.601 366.96 125.778 363.654 123.234C356.894 118.038 347.241 118.542 340.013 122.469C332.291 126.658 328.105 134.693 327.809 143.345C327.512 151.997 331.086 160.937 336.759 167.614C338.05 169.139 339.591 170.6 340.461 172.407C341.675 174.927 340.799 177.423 339.556 179.746C336.825 184.883 333.614 189.822 330.589 194.807C318.004 215.5 304.739 235.793 290.865 255.641C284.097 265.315 277.181 274.88 270.122 284.361L272.697 283.312C261.424 280.866 249.219 279.567 238.11 283.477C228.188 286.961 219.133 295.032 216.762 305.58C214.39 316.127 219.547 326.277 226.762 333.693C233.977 341.11 244.757 347.891 255.831 348.078C265.537 348.242 274.791 342.538 278.244 333.329C282.318 322.49 274.358 313.849 265.933 308.16C257.508 302.47 246.076 297.553 237.223 304.957C233.785 307.831 231.503 312.385 232.358 316.92C232.832 319.47 234.415 321.401 235.702 323.582C237.062 325.891 237.45 328.262 236.715 330.842C235.255 335.986 230.838 340.086 226.981 343.562C221.514 348.507 216.158 353.37 211.435 359.072C206.711 364.774 202.549 370.786 198.981 377.233C196.405 381.888 193.999 389.827 187.862 390.643C184.955 391.029 186.129 395.456 189.011 395.076C193.599 394.471 196.705 390.828 198.939 387.075C201.762 382.289 204.083 377.271 207.12 372.59C210.523 367.361 214.339 362.44 218.567 357.867C222.343 353.771 226.535 350.195 230.641 346.442C236.411 341.166 243.619 333.449 241.226 324.887C240.054 320.674 235.477 317.401 237.145 312.698C238.478 308.923 242.392 306.181 246.316 305.8C251.414 305.305 256.328 307.609 260.56 310.168C264.792 312.727 269.385 315.755 272.278 319.901C277.726 327.718 273.1 337.148 265.412 341.315C256.581 346.122 245.821 342.408 238.044 337.206C230.267 332.005 222.983 324.272 221.105 314.91C218.839 303.643 226.838 293.613 236.575 289.001C247.372 283.888 260.187 285.271 271.476 287.727C272.552 287.958 273.418 287.535 274.051 286.678C288.174 267.74 301.71 248.393 314.643 228.626C321.105 218.75 327.418 208.766 333.574 198.689C336.633 193.681 339.676 188.665 342.625 183.592C344.819 179.836 346.623 175.659 344.925 171.327C343.353 167.322 339.712 164.518 337.437 160.948C335.162 157.378 333.484 153.227 332.735 148.945C331.27 140.612 333.848 131.48 341.405 126.961C348.114 122.939 358.614 122.405 363.504 129.618C366.293 133.723 364.66 138.15 360.149 140.031C355.916 141.8 350.653 140.52 347.306 137.507C343.958 134.493 342.636 129.957 343.497 125.648C344.358 121.34 347.668 117.817 351.82 116.043C359.69 112.685 371.96 113.512 378.102 119.936C383.494 125.576 383.5 134.365 381.806 141.492C379.988 149.226 375.764 158.3 368.727 162.552C364.541 165.071 359.971 164.816 355.435 163.456C350.9 162.097 345.953 160.029 341.585 157.665C332.769 152.89 326.057 145.558 325.372 135.181C324.279 118.538 336.107 103.636 351.359 98.0744C355.036 96.742 358.919 95.8912 362.829 95.7147C367.028 95.5173 370.838 96.4485 374.947 97.0892C379.681 97.823 383.538 96.1507 386.679 92.5919C389.819 89.0332 392.827 84.6536 394.988 80.3047C403.581 63.0288 392.794 44.6148 376.971 36.2175C367.119 31.0014 356.05 28.9299 345.139 27.3121C334.228 25.6942 323.537 24.5673 312.694 23.8806C301.85 23.1938 290.785 22.9915 279.811 23.2465C270.3 23.4729 259.923 23.2943 251.12 27.4396C241.605 31.9284 236.321 41.862 230.946 50.3629C224.624 60.363 218.38 70.4097 212.215 80.5028C199.901 100.698 187.831 121.059 175.911 141.487C152.147 182.217 128.903 223.255 105.527 264.193C99.7172 274.368 93.7817 284.469 88.1775 294.766C82.8574 304.508 77.513 314.724 74.4491 325.437C73.2724 329.56 72.969 334.112 75.4122 337.866C77.989 341.826 82.4381 344.45 86.2189 347.125C95.5717 353.765 105.213 360.024 115.105 365.857C134.811 377.478 155.448 387.484 176.76 395.766C182.244 397.897 187.778 399.908 193.36 401.8C195.542 402.535 198.033 403.791 200.357 403.889C202.681 403.986 204.212 402.364 205.402 400.562C211.912 390.714 217.944 380.522 224.194 370.5C230.444 360.479 236.413 350.97 242.505 341.216C244.063 338.719 240.119 336.393 238.561 338.89L238.57 338.874Z" fill="#FFFCF4"/>
<path d="M155.946 351.303C143.583 342.484 131.48 333.331 119.667 323.797C117.093 321.706 114.185 319.715 111.975 317.224C109.569 314.489 109.956 311.598 111.329 308.44C114.279 301.671 118.041 295.147 121.997 288.908C124.011 285.745 126.113 282.614 128.338 279.598C129.995 277.328 131.84 274.958 134.34 273.567C139.995 270.431 146.182 275.373 150.697 278.461C156.748 282.623 162.688 286.975 168.475 291.512C170.959 293.465 173.767 295.375 175.728 297.89C177.69 300.405 177.734 302.998 176.778 305.809C175.62 309.179 173.452 312.207 171.714 315.299C169.685 318.919 167.792 322.598 166.009 326.342C162.447 333.896 159.396 341.667 156.874 349.622C155.984 352.428 160.408 353.616 161.289 350.825C163.872 342.694 166.985 334.747 170.703 327.073C172.575 323.212 174.584 319.41 176.725 315.707C178.346 312.886 180.127 310.118 181.168 307.018C183.459 300.285 180.122 295.091 174.975 290.91C168.56 285.706 161.931 280.757 155.163 276.044C149.908 272.372 143.79 267.385 136.949 268.061C130.107 268.737 125.903 275 122.281 280.206C117.377 287.223 113.013 294.623 109.198 302.282C107.673 305.372 105.877 308.599 105.571 312.11C105.265 315.622 106.822 318.535 109.153 320.928C112.152 323.991 115.8 326.567 119.138 329.236C122.796 332.156 126.487 335.055 130.198 337.922C137.884 343.855 145.687 349.624 153.591 355.261C155.985 356.97 158.29 353.025 155.912 351.325L155.946 351.303Z" fill="#FFFCF4"/>
<path d="M198.706 263.613C192.078 262.378 186.313 259.063 180.763 255.387C174.811 251.453 168.962 247.345 163.066 243.317C160.824 241.782 157.951 240.343 156.235 238.206C154.21 235.654 156.083 232.261 157.1 229.635C159.634 223.066 162.716 216.651 166.322 210.608C169.328 205.548 173.141 200.667 179.196 199.379C184.044 198.333 189.138 199.682 193.662 201.459C199.543 203.781 205.072 207.169 210.398 210.543C213.198 212.322 215.951 214.179 218.658 216.115C220.645 217.541 224.799 219.8 223.87 222.817C223.385 224.398 222.126 225.884 221.243 227.273C220.119 229.071 219.004 230.854 217.863 232.643C215.773 235.972 213.691 239.285 211.6 242.614C207.27 249.524 202.924 256.425 198.594 263.335C197.02 265.823 200.965 268.149 202.538 265.661C206.959 258.634 211.363 251.598 215.783 244.572C217.948 241.117 220.113 237.662 222.294 234.216C224.292 231.044 227.192 227.641 228.301 224.03C230.307 217.383 222.511 213.188 218.026 210.119C211.732 205.792 205.138 201.649 198.182 198.481C192.875 196.051 187.003 194.073 181.095 194.536C174.61 195.04 169.465 198.499 165.556 203.578C160.933 209.615 157.556 216.854 154.593 223.827C152.167 229.527 148.221 236.578 153.397 241.901C156.203 244.787 160.091 246.846 163.376 249.101C167.257 251.751 171.154 254.41 175.035 257.059C181.966 261.783 189.136 266.5 197.523 268.072C200.4 268.601 201.612 264.202 198.719 263.663L198.706 263.613Z" fill="#FFFCF4"/>
<path d="M245.05 190.111C231.249 184.199 218.134 176.763 206.047 167.873C204.413 166.676 202.799 165.448 201.218 164.198C200.611 163.713 199.929 163.247 199.359 162.699C198.596 161.973 198.544 161.666 198.972 160.688C200.456 157.341 202.448 154.144 204.163 150.912C207.713 144.242 211.156 137.466 214.975 130.955C216.85 127.775 218.836 124.66 221.034 121.691C222.896 119.182 225.26 115.462 228.41 114.519C231.56 113.576 235.597 114.916 238.639 116.031C241.936 117.254 245.044 118.981 248.082 120.751C254.705 124.593 261.244 128.577 267.774 132.576C269.317 133.529 270.885 134.475 272.42 135.443C272.767 135.648 273.753 136.102 273.873 136.512C274.018 137.023 273.152 138.167 272.927 138.586C271.109 141.885 269.291 145.184 267.473 148.483C259.113 163.668 250.737 178.844 242.368 194.046C240.952 196.627 244.897 198.953 246.312 196.372C254.672 181.186 263.048 166.01 271.417 150.809C273.47 147.075 275.759 143.375 277.613 139.545C279.124 136.405 278.258 133.836 275.394 131.914C268.252 127.15 260.696 122.907 253.322 118.537C246.696 114.629 239.665 110.398 231.823 109.741C223.981 109.085 219.287 116.035 215.284 121.886C210.424 128.972 206.54 136.675 202.502 144.245C200.468 148.054 198.451 151.872 196.417 155.68C194.956 158.447 192.885 161.49 194.86 164.523C195.862 166.069 197.658 167.17 199.084 168.286C200.961 169.754 202.857 171.191 204.781 172.58C208.745 175.448 212.834 178.178 217 180.741C225.222 185.802 233.824 190.217 242.698 194.028C245.36 195.174 247.722 191.241 245.019 190.092L245.05 190.111Z" fill="#FFFCF4"/>
<path d="M287.87 114.508C280.439 110.487 273.212 106.119 266.242 101.351C262.753 98.9751 259.344 96.4981 255.991 93.9266C254.658 92.9068 252.904 91.9148 252.709 90.0813C252.538 88.3888 253.036 86.4974 253.346 84.855C256.047 70.3219 264.136 56.8224 275.905 47.8273C278.781 45.6189 281.914 43.8385 285.584 43.4565C289.254 43.0745 292.95 43.5141 296.557 43.8163C304.612 44.4715 312.624 45.5252 320.567 46.984C324.498 47.7106 328.407 48.5094 332.292 49.4213C334.101 49.8515 335.91 50.2817 337.7 50.7434C338.644 50.9817 339.7 51.1378 340.595 51.4956C342 52.0696 342.016 52.4396 341.434 53.858C338.242 61.6512 332.451 68.0817 326.628 74.0263C320.16 80.6307 313.484 87.0483 306.686 93.3098C299.889 99.5714 292.579 105.297 288.165 113.431C286.774 116.006 290.709 118.347 292.109 115.757C296.523 107.623 304.172 101.864 310.857 95.6845C317.542 89.5053 324.549 82.8157 331.053 76.0417C337.124 69.7129 343.539 62.4408 346.279 53.9355C346.729 52.5243 346.894 50.8389 346.057 49.5178C344.879 47.6564 342.534 47.2706 340.558 46.7631C336.285 45.6436 331.981 44.6122 327.644 43.7096C318.929 41.9015 310.117 40.5457 301.265 39.6543C293.457 38.8689 284.704 37.3778 277.501 41.2993C270.297 45.2207 264.698 51.3613 260.122 57.6803C255.545 63.9992 251.788 71.884 249.768 79.8168C248.844 83.4737 247.32 88.4738 248.486 92.1952C249.086 94.0981 250.484 95.3684 251.995 96.5564C253.974 98.1052 255.98 99.6067 258.011 101.102C266.781 107.504 275.989 113.273 285.533 118.435C288.113 119.829 290.45 115.903 287.854 114.499L287.87 114.508Z" fill="#FFFCF4"/>
</g>
<g clip-path="url(#clip2_63_22441)">
<path d="M455.743 363.92C461.844 353.277 467.93 342.624 474.04 331.965L483.066 316.191L487.357 308.703L489.626 304.757C489.901 304.304 490.337 303.692 490.519 303.182C490.986 301.99 490.974 301.726 490.062 300.83C473.017 284.295 454.201 269.443 434.47 256.238C424.686 249.695 414.614 243.555 404.318 237.856C399.169 235.007 393.954 232.267 388.689 229.646C384.561 227.587 378.999 223.759 374.206 225.616C369.677 227.356 366.151 232.421 363.18 236.006C359.335 240.642 355.806 245.534 352.443 250.505C345.727 260.433 339.517 270.689 333.151 280.851C307.226 322.223 281.159 363.509 255.609 405.109C242.913 425.797 230.374 446.58 218.142 467.527C212.013 478.004 205.987 488.523 200.015 499.095C197.353 503.829 194.494 508.572 192.884 513.796C191.275 519.02 191.539 523.736 192.948 528.719C194.357 533.703 196.613 538.174 198.831 542.708C201.294 547.754 203.877 552.745 206.57 557.696C212.022 567.701 217.914 577.44 224.248 586.912C230.565 596.374 237.149 605.891 244.806 614.349C251.918 622.22 260.589 629.113 271.232 631.173C279.943 632.85 289.417 631.013 295.619 624.366C299.291 620.438 302.012 615.183 304.019 610.222C304.79 608.317 305.525 606.154 305.004 604.084C304.382 601.546 302.152 599.678 300.597 597.686C290.56 584.787 289.39 566.604 296.096 551.966C299.594 544.339 305.456 537.828 312.859 533.792C321.467 529.077 331.135 528.684 340.111 532.64C344.893 534.753 349.152 537.726 353.206 541.001C357.028 544.093 360.928 547.339 363.603 551.508C368.787 559.555 365.928 569.131 361.2 576.631C353.149 589.426 334.833 602.572 320.359 591.085C313.399 585.574 308.033 576.027 308.218 567.008C308.404 557.989 315.232 550.417 324.362 549.676C333.492 548.935 341.869 556.205 342.503 565.145C342.81 569.437 341.031 574.024 337.141 576.194C333.251 578.365 328.585 577.755 324.782 576.043C317.009 572.54 312.892 563.795 312.939 555.568C312.982 546.783 318.086 539.298 325.572 534.949C333.057 530.6 342.625 529.526 351.19 531.372C353.144 531.789 355.16 532.457 357.163 532.37C359.958 532.25 361.744 530.298 363.204 528.105C366.441 523.271 369.277 518.108 372.242 513.087C384.534 492.218 396.152 470.94 407.091 449.335C412.42 438.799 417.582 428.184 422.604 417.484L422.896 420.249C415.413 411.469 408.503 401.326 406.7 389.688C405.083 379.296 407.919 367.503 416.095 360.429C424.271 353.356 435.652 353.106 445.598 355.961C455.543 358.816 466.612 365.113 472.009 374.786C476.739 383.262 476.084 394.113 469.599 401.508C461.971 410.219 450.594 407.285 441.599 402.548C432.604 397.811 422.87 390.058 425.213 378.757C426.121 374.369 429.057 370.207 433.458 368.818C435.93 368.031 438.379 368.514 440.909 368.618C443.587 368.726 445.86 367.947 447.787 366.08C451.631 362.363 453.158 356.533 454.399 351.492C456.174 344.336 457.93 337.319 460.723 330.462C463.517 323.605 466.85 317.097 470.846 310.906C473.733 306.436 479.593 300.565 477.412 294.771C476.379 292.026 480.836 290.969 481.862 293.689C483.497 298.018 481.753 302.476 479.501 306.219C476.616 310.968 473.29 315.385 470.599 320.273C467.598 325.742 465.064 331.431 463.031 337.317C461.205 342.581 460.035 347.965 458.666 353.357C456.742 360.935 453.347 370.934 444.67 372.87C440.402 373.827 435.356 371.339 431.999 375.031C429.301 377.99 428.733 382.735 430.252 386.373C432.224 391.1 436.576 394.343 440.831 396.863C445.086 399.384 449.925 402.003 454.945 402.593C464.409 403.701 470.535 395.169 470.575 386.425C470.639 376.37 462.283 368.642 454.024 364.245C445.765 359.848 435.509 357.082 426.37 359.849C415.369 363.175 410.308 374.964 410.843 385.725C411.439 397.656 418.712 408.298 426.21 417.087C426.922 417.926 426.958 418.889 426.502 419.852C416.483 441.247 405.826 462.317 394.515 483.055C388.864 493.416 383.047 503.697 377.073 513.883C374.105 518.945 371.122 523.997 368.044 528.993C365.77 532.701 362.941 536.265 358.32 536.815C354.048 537.321 349.856 535.437 345.635 535.119C341.414 534.8 336.963 535.282 332.835 536.645C324.798 539.291 317.968 545.878 317.555 554.672C317.18 562.486 321.67 571.993 330.337 572.895C335.273 573.413 338.404 569.883 337.93 565.018C337.489 560.452 333.875 556.418 329.637 554.891C325.4 553.365 320.777 554.342 317.386 557.137C313.996 559.931 312.455 564.513 312.852 569.01C313.611 577.533 320.138 587.957 328.701 590.336C336.22 592.422 343.968 588.276 349.449 583.415C355.407 578.159 361.408 570.15 361.832 561.938C362.074 557.059 359.69 553.152 356.349 549.797C353.008 546.441 348.848 543.059 344.701 540.325C336.328 534.811 326.695 532.359 317.225 536.658C302.04 543.558 294.495 561.023 296.798 577.093C297.361 580.964 298.446 584.788 300.138 588.318C301.948 592.112 304.568 595.03 307.074 598.348C309.958 602.174 310.306 606.364 308.653 610.813C307 615.262 304.561 619.983 301.749 623.941C290.583 639.677 269.257 638.869 254.381 628.891C245.129 622.672 238.073 613.895 231.493 605.043C224.912 596.19 218.868 587.301 213.14 578.068C207.411 568.835 202.005 559.178 197.045 549.386C192.752 540.897 187.691 531.835 187.186 522.118C186.647 511.611 192.905 502.261 197.859 493.508C203.685 483.211 209.59 472.961 215.573 462.759C227.555 442.365 239.797 422.107 252.17 401.951C276.841 361.763 302.028 321.889 327.065 281.944C333.289 272.017 339.387 262.013 345.814 252.21C351.887 242.918 358.367 233.381 366.361 225.619C369.438 222.635 373.308 220.216 377.77 220.596C382.478 220.996 386.892 223.678 391.036 225.746C401.307 230.852 411.379 236.393 421.194 242.356C440.745 254.233 459.314 267.694 476.683 282.565C481.152 286.392 485.538 290.319 489.843 294.345C491.522 295.921 493.806 297.523 494.99 299.525C496.174 301.528 495.467 303.643 494.442 305.544C488.837 315.933 482.704 326.065 476.824 336.308C470.945 346.551 465.384 356.304 459.666 366.282C458.2 368.835 454.287 366.458 455.752 363.905L455.743 363.92Z" fill="#FFFCF4"/>
<path d="M427.661 285.228C414.047 278.498 400.262 272.155 386.278 266.248C383.22 264.967 380.091 263.345 376.851 262.574C373.304 261.745 370.939 263.452 368.804 266.155C364.232 271.953 360.259 278.35 356.629 284.785C354.793 288.054 353.026 291.386 351.419 294.772C350.202 297.305 348.984 300.051 348.94 302.911C348.848 309.377 356.126 312.495 360.981 315.016C367.508 318.382 374.15 321.561 380.883 324.518C383.778 325.785 386.788 327.357 389.931 327.898C393.074 328.439 395.381 327.252 397.406 325.082C399.829 322.47 401.474 319.127 403.377 316.135C405.61 312.636 407.958 309.23 410.416 305.89C415.391 299.181 420.798 292.821 426.617 286.84C428.671 284.73 431.807 288.068 429.764 290.162C423.818 296.281 418.285 302.779 413.277 309.681C410.759 313.156 408.357 316.722 406.105 320.358C404.385 323.12 402.786 325.998 400.546 328.38C395.694 333.58 389.54 333.092 383.423 330.531C375.806 327.337 368.312 323.832 360.961 320.094C355.242 317.197 347.956 314.161 345.32 307.812C342.683 301.462 346.217 294.798 349.093 289.146C352.961 281.509 357.422 274.167 362.37 267.186C364.373 264.382 366.368 261.274 369.318 259.346C372.269 257.417 375.572 257.413 378.782 258.337C382.899 259.533 386.893 261.532 390.822 263.213C395.124 265.056 399.423 266.941 403.702 268.856C412.563 272.827 421.334 276.98 430.036 281.282C432.674 282.585 430.286 286.481 427.664 285.187L427.661 285.228Z" fill="#FFFCF4"/>
<path d="M370.577 364.344C366.356 359.085 360.712 355.571 354.849 352.416C348.57 349.029 342.186 345.814 335.85 342.521C333.438 341.269 330.813 339.418 328.118 338.914C324.912 338.336 322.806 341.59 320.973 343.727C316.381 349.064 312.182 354.811 308.56 360.844C305.52 365.883 303.02 371.55 304.745 377.496C306.114 382.262 309.71 386.115 313.413 389.262C318.239 393.349 323.837 396.621 329.326 399.721C332.217 401.348 335.154 402.898 338.14 404.369C340.335 405.446 344.289 408.04 346.509 405.796C347.673 404.621 348.388 402.81 349.195 401.376C350.249 399.535 351.293 397.71 352.331 395.86C354.277 392.444 356.214 389.045 358.16 385.629C362.205 378.548 366.234 371.457 370.278 364.376C371.728 361.814 375.641 364.191 374.192 366.754C370.087 373.969 365.967 381.175 361.862 388.391C359.84 391.931 357.817 395.472 355.811 399.022C353.959 402.281 352.33 406.445 349.671 409.129C344.761 414.037 337.38 409.147 332.557 406.645C325.769 403.142 319.003 399.288 312.924 394.654C308.275 391.124 303.757 386.883 301.374 381.457C298.755 375.503 299.373 369.335 302.002 363.49C305.139 356.563 309.924 350.167 314.669 344.26C318.547 339.43 322.898 332.621 330.034 334.668C333.903 335.778 337.555 338.232 341.095 340.061C345.263 342.23 349.448 344.408 353.616 346.577C361.055 350.454 368.599 354.545 373.947 361.194C375.773 363.48 372.469 366.627 370.627 364.331L370.577 364.344Z" fill="#FFFCF4"/>
<path d="M327.69 439.915C315.96 430.543 303.209 422.498 289.664 416.044C287.837 415.17 285.992 414.327 284.143 413.525C283.429 413.219 282.696 412.838 281.944 412.595C280.944 412.266 280.648 412.364 279.988 413.203C277.74 416.093 275.863 419.359 273.824 422.397C269.623 428.678 265.278 434.913 261.343 441.355C259.427 444.511 257.619 447.733 256.041 451.072C254.709 453.899 252.547 457.74 253.205 460.962C253.862 464.184 256.95 467.108 259.37 469.262C262.006 471.591 264.996 473.514 267.992 475.355C274.507 479.377 281.107 483.258 287.717 487.124C289.286 488.034 290.861 488.97 292.439 489.864C292.783 490.073 293.65 490.728 294.068 490.64C294.586 490.527 295.186 489.223 295.448 488.827C297.497 485.666 299.545 482.505 301.594 479.344C311.029 464.801 320.447 450.25 329.891 435.691C331.497 433.224 335.411 435.601 333.805 438.069C324.37 452.611 314.952 467.163 305.508 481.721C303.187 485.294 301.007 489.06 298.508 492.503C296.454 495.319 293.781 495.769 290.733 494.153C283.161 490.109 275.851 485.455 268.516 481.02C261.941 477.026 254.89 472.828 250.606 466.227C246.323 459.625 250.231 452.205 253.496 445.912C257.446 438.282 262.4 431.219 267.164 424.083C269.56 420.491 271.972 416.909 274.368 413.318C276.116 410.723 277.82 407.459 281.426 407.768C283.261 407.921 285.081 408.983 286.738 409.712C288.919 410.673 291.081 411.666 293.214 412.705C297.615 414.844 301.953 417.158 306.18 419.619C314.524 424.474 322.48 429.97 330.031 435.99C332.299 437.796 329.948 441.736 327.659 439.896L327.69 439.915Z" fill="#FFFCF4"/>
<path d="M281.287 513.372C274.232 508.723 266.968 504.417 259.473 500.527C255.73 498.574 251.937 496.74 248.086 495C246.557 494.306 244.854 493.229 243.146 493.924C241.574 494.572 240.142 495.905 238.841 496.954C227.308 506.201 219.232 519.708 216.864 534.33C216.277 537.908 216.188 541.511 217.585 544.926C218.982 548.341 221.116 551.391 223.086 554.427C227.469 561.217 232.183 567.781 237.222 574.092C239.719 577.213 242.27 580.281 244.909 583.274C246.143 584.665 247.377 586.056 248.629 587.416C249.285 588.136 249.922 588.993 250.66 589.612C251.83 590.579 252.163 590.419 253.139 589.236C258.499 582.741 261.431 574.599 263.919 566.658C266.684 557.837 269.186 548.921 271.493 539.972C273.801 531.023 275.393 521.875 280.477 514.142C282.089 511.699 286.012 514.061 284.39 516.519C279.307 524.252 277.845 533.715 275.557 542.526C273.269 551.337 270.683 560.673 267.786 569.605C265.076 577.946 261.698 587.036 255.496 593.47C254.465 594.533 253.057 595.474 251.497 595.36C249.3 595.202 247.852 593.317 246.471 591.815C243.466 588.578 240.524 585.272 237.679 581.876C231.968 575.049 226.61 567.924 221.642 560.543C217.261 554.032 211.812 547.022 211.865 538.821C211.918 530.619 214.685 522.784 218.091 515.764C221.498 508.745 226.673 501.709 232.71 496.181C235.497 493.639 239.184 489.934 243.014 489.202C244.975 488.832 246.755 489.465 248.516 490.235C250.816 491.247 253.087 492.306 255.364 493.39C265.151 498.095 274.585 503.484 283.644 509.457C286.092 511.073 283.735 514.987 281.271 513.363L281.287 513.372Z" fill="#FFFCF4"/>
</g>
<g clip-path="url(#clip3_63_22441)">
<path d="M127.743 115.92C133.844 105.277 139.93 94.6242 146.04 83.9652L155.066 68.1907L159.357 60.7035L161.626 56.7568C161.901 56.3038 162.337 55.6918 162.519 55.1818C162.986 53.9898 162.974 53.7263 162.062 52.8297C145.017 36.2952 126.201 21.443 106.47 8.23771C96.6858 1.6952 86.6141 -4.44456 76.3175 -10.1435C71.1692 -12.993 65.9545 -15.7332 60.689 -18.3544C56.5606 -20.4133 50.9991 -24.2409 46.2062 -22.3835C41.6774 -20.6436 38.1507 -15.5791 35.1802 -11.9944C31.3352 -7.35845 27.8062 -2.46639 24.4432 2.50514C17.7267 12.4326 11.5172 22.6895 5.15125 32.8512C-20.7743 74.223 -46.8408 115.509 -72.3906 157.109C-85.0866 177.797 -97.626 198.58 -109.858 219.527C-115.987 230.004 -122.013 240.523 -127.985 251.095C-130.647 255.829 -133.506 260.572 -135.116 265.796C-136.725 271.02 -136.461 275.736 -135.052 280.719C-133.643 285.703 -131.387 290.174 -129.169 294.708C-126.706 299.754 -124.123 304.745 -121.43 309.696C-115.978 319.701 -110.086 329.44 -103.752 338.912C-97.4349 348.374 -90.8508 357.891 -83.1945 366.349C-76.0818 374.22 -67.4106 381.113 -56.7677 383.173C-48.0571 384.85 -38.5833 383.013 -32.3809 376.366C-28.7086 372.438 -25.9879 367.183 -23.9812 362.222C-23.2096 360.317 -22.4746 358.154 -22.9957 356.084C-23.6183 353.546 -25.8483 351.678 -27.4027 349.686C-37.4405 336.787 -38.6104 318.604 -31.9038 303.966C-28.4063 296.339 -22.5435 289.828 -15.1411 285.792C-6.53326 281.077 3.13491 280.684 12.1115 284.64C16.8927 286.753 21.1519 289.726 25.2058 293.001C29.0281 296.093 32.9282 299.339 35.6029 303.508C40.7872 311.555 37.9275 321.131 33.1999 328.631C25.1486 341.426 6.83285 354.572 -7.64115 343.085C-14.6014 337.574 -19.9672 328.027 -19.7817 319.008C-19.5963 309.989 -12.768 302.417 -3.63827 301.676C5.49152 300.935 13.8691 308.205 14.5034 317.145C14.8103 321.437 13.0314 326.024 9.14111 328.194C5.25087 330.365 0.585262 329.755 -3.21825 328.043C-10.9913 324.54 -15.1082 315.795 -15.0613 307.568C-15.0182 298.783 -9.91388 291.298 -2.42846 286.949C5.05696 282.6 14.6246 281.526 23.1901 283.372C25.1441 283.789 27.1597 284.457 29.1631 284.37C31.9577 284.25 33.7436 282.298 35.204 280.105C38.4408 275.271 41.2772 270.108 44.2418 265.087C56.5335 244.218 68.1522 222.94 79.0911 201.335C84.4196 190.799 89.5821 180.184 94.6037 169.484L94.8956 172.249C87.4134 163.469 80.5025 153.326 78.7001 141.688C77.0835 131.296 79.9187 119.503 88.0946 112.429C96.2706 105.356 107.652 105.106 117.598 107.961C127.543 110.816 138.612 117.113 144.009 126.786C148.739 135.262 148.084 146.113 141.599 153.508C133.971 162.219 122.594 159.285 113.599 154.548C104.604 149.811 94.8697 142.058 97.213 130.757C98.1214 126.369 101.057 122.207 105.458 120.818C107.93 120.031 110.379 120.514 112.909 120.618C115.587 120.726 117.86 119.947 119.787 118.08C123.631 114.363 125.158 108.533 126.399 103.492C128.174 96.3365 129.93 89.3191 132.723 82.4621C135.517 75.6051 138.85 69.0966 142.846 62.9059C145.733 58.4363 151.593 52.565 149.412 46.7706C148.379 44.026 152.836 42.9694 153.862 45.6889C155.497 50.0182 153.753 54.4763 151.501 58.2193C148.616 62.968 145.29 67.3847 142.599 72.2727C139.598 77.7421 137.064 83.4309 135.031 89.3174C133.205 94.581 132.035 99.9649 130.666 105.357C128.742 112.935 125.347 122.934 116.67 124.87C112.402 125.827 107.356 123.339 103.999 127.031C101.301 129.99 100.733 134.735 102.252 138.373C104.224 143.1 108.576 146.343 112.831 148.863C117.086 151.384 121.925 154.003 126.945 154.593C136.409 155.701 142.535 147.169 142.575 138.425C142.639 128.37 134.283 120.642 126.024 116.245C117.765 111.848 107.509 109.082 98.3696 111.849C87.3695 115.175 82.3084 126.964 82.8434 137.725C83.4389 149.656 90.7117 160.298 98.2096 169.087C98.9215 169.926 98.958 170.889 98.5015 171.852C88.4834 193.247 77.8264 214.317 66.5148 235.055C60.8637 245.416 55.0466 255.697 49.0729 265.883C46.1051 270.945 43.1215 275.997 40.0441 280.993C37.77 284.701 34.9408 288.265 30.3202 288.815C26.0482 289.321 21.8562 287.437 17.6351 287.119C13.4139 286.8 8.9631 287.282 4.83479 288.645C-3.2017 291.291 -10.0317 297.878 -10.4453 306.672C-10.82 314.486 -6.32987 323.993 2.33722 324.895C7.27323 325.413 10.4036 321.883 9.92972 317.018C9.48901 312.452 5.87502 308.418 1.63743 306.891C-2.60018 305.365 -7.22276 306.342 -10.6135 309.137C-14.0043 311.931 -15.5447 316.513 -15.1476 321.01C-14.389 329.533 -7.86238 339.957 0.700662 342.336C8.21958 344.422 15.9678 340.276 21.4495 335.415C27.407 330.159 33.4084 322.15 33.8319 313.938C34.0739 309.059 31.69 305.152 28.3492 301.797C25.0083 298.441 20.8483 295.059 16.7009 292.325C8.32795 286.811 -1.3053 284.359 -10.7746 288.658C-25.9602 295.558 -33.5053 313.023 -31.2019 329.093C-30.6387 332.964 -29.5542 336.788 -27.8624 340.318C-26.0525 344.112 -23.4317 347.03 -20.9259 350.348C-18.0424 354.174 -17.6942 358.364 -19.3469 362.813C-20.9997 367.262 -23.4385 371.983 -26.2507 375.941C-37.4172 391.677 -58.743 390.869 -73.6194 380.891C-82.8713 374.672 -89.9266 365.895 -96.5074 357.043C-103.088 348.19 -109.132 339.301 -114.86 330.068C-120.589 320.835 -125.995 311.178 -130.955 301.386C-135.248 292.897 -140.309 283.835 -140.814 274.118C-141.353 263.611 -135.095 254.261 -130.141 245.508C-124.315 235.211 -118.41 224.961 -112.427 214.759C-100.445 194.365 -88.203 174.107 -75.8297 153.951C-51.159 113.763 -25.9717 73.8886 -0.934865 33.9444C5.28877 24.017 11.3872 14.0134 17.8143 4.20958C23.8875 -5.08217 30.3668 -14.6191 38.3606 -22.3805C41.4383 -25.3654 45.3077 -27.7838 49.7703 -27.4039C54.4777 -27.0036 58.8921 -24.3219 63.0362 -22.2536C73.3073 -17.1475 83.3785 -11.6068 93.1936 -5.64436C112.745 6.23305 131.314 19.6943 148.683 34.5655C153.152 38.3923 157.538 42.3189 161.843 46.3454C163.522 47.9212 165.806 49.5229 166.99 51.5252C168.174 53.5276 167.467 55.6432 166.442 57.5435C160.837 67.9329 154.704 78.0648 148.824 88.3081C142.945 98.5514 137.384 108.304 131.666 118.282C130.2 120.835 126.287 118.458 127.752 115.905L127.743 115.92Z" fill="#FFFCF4"/>
<path d="M99.6606 37.228C86.0471 30.4978 72.2623 24.1555 58.2778 18.2478C55.2195 16.9674 52.0906 15.3446 48.851 14.5742C45.3041 13.7454 42.9386 15.4521 40.804 18.1545C36.2317 23.9526 32.2594 30.3504 28.6292 36.7849C26.7934 40.0538 25.0264 43.3858 23.4193 46.7722C22.2022 49.3048 20.9842 52.0507 20.9398 54.9108C20.8476 61.3774 28.1263 64.4946 32.981 67.0161C39.5083 70.3825 46.1495 73.5615 52.8828 76.5183C55.7778 77.7852 58.7877 79.357 61.931 79.8978C65.0743 80.4386 67.3809 79.2522 69.4063 77.0822C71.8293 74.4695 73.4739 71.1273 75.3775 68.1349C77.6098 64.6364 79.958 61.2297 82.4157 57.8896C87.3908 51.1814 92.7977 44.821 98.6172 38.8397C100.671 36.7295 103.807 40.0679 101.764 42.1625C95.8178 48.281 90.2847 54.7786 85.2773 61.681C82.7593 65.1556 80.3571 68.7219 78.1053 72.3582C76.3848 75.1197 74.7863 77.9981 72.5465 80.3799C67.6943 85.5802 61.54 85.0923 55.4235 82.5314C47.806 79.3367 40.3123 75.8324 32.961 72.0937C27.2416 69.1967 19.9561 66.161 17.3196 59.8117C14.6831 53.4625 18.2171 46.7984 21.0934 41.1463C24.9615 33.5089 29.4215 26.1671 34.3697 19.1859C36.3729 16.3823 38.368 13.2744 41.3185 11.3456C44.2689 9.41686 47.5716 9.41296 50.7823 10.3368C54.8989 11.5331 58.8926 13.5315 62.8219 15.2127C67.124 17.0563 71.4227 18.9406 75.7025 20.8561C84.5628 24.8272 93.3344 28.9795 102.036 33.282C104.674 34.5848 102.286 38.4806 99.6639 37.1872L99.6606 37.228Z" fill="#FFFCF4"/>
<path d="M42.5766 116.344C38.3559 111.085 32.7115 107.571 26.8488 104.416C20.5696 101.029 14.186 97.8138 7.84986 94.5207C5.43817 93.2695 2.81259 91.4179 0.118089 90.9144C-3.0878 90.3356 -5.1935 93.5902 -7.02725 95.7269C-11.6195 101.064 -15.8179 106.811 -19.4401 112.844C-22.48 117.883 -24.9797 123.55 -23.255 129.496C-21.8859 134.262 -18.2899 138.115 -14.5871 141.262C-9.7615 145.349 -4.16304 148.621 1.32633 151.721C4.21664 153.348 7.15441 154.898 10.1396 156.369C12.3355 157.446 16.2888 160.04 18.5092 157.796C19.673 156.621 20.3876 154.81 21.1947 153.376C22.2485 151.535 23.2929 149.71 24.331 147.86C26.2773 144.444 28.2141 141.045 30.1605 137.629C34.2049 130.548 38.2337 123.457 42.2782 116.376C43.7277 113.814 47.6412 116.191 46.1917 118.754C42.087 125.969 37.9666 133.175 33.8619 140.391C31.8396 143.931 29.8174 147.472 27.8108 151.022C25.9594 154.281 24.3299 158.445 21.6712 161.129C16.7607 166.037 9.38009 161.147 4.55671 158.645C-2.23055 155.142 -8.99739 151.288 -15.0763 146.654C-19.7254 143.124 -24.2427 138.883 -26.6259 133.457C-29.2454 127.503 -28.6271 121.335 -25.9979 115.49C-22.8614 108.563 -18.0761 102.167 -13.3306 96.2604C-9.45334 91.4301 -5.10245 84.6208 2.03365 86.6675C5.90269 87.7775 9.55526 90.2317 13.0945 92.0609C17.2633 94.2298 21.4477 96.4082 25.6164 98.5771C33.055 102.454 40.5993 106.545 45.947 113.194C47.7732 115.48 44.4687 118.627 42.6269 116.331L42.5766 116.344Z" fill="#FFFCF4"/>
<path d="M-0.310081 191.915C-12.0404 182.543 -24.7908 174.498 -38.3365 168.044C-40.1628 167.17 -42.0081 166.327 -43.8567 165.525C-44.5711 165.219 -45.304 164.838 -46.0564 164.595C-47.0564 164.266 -47.3519 164.364 -48.0119 165.203C-50.2603 168.093 -52.1369 171.359 -54.1757 174.397C-58.3766 180.678 -62.7218 186.913 -66.6566 193.355C-68.5734 196.511 -70.3807 199.733 -71.9594 203.072C-73.2908 205.899 -75.4525 209.74 -74.7954 212.962C-74.1382 216.184 -71.0497 219.108 -68.6296 221.262C-65.9936 223.591 -63.0042 225.514 -60.0081 227.355C-53.4932 231.377 -46.8928 235.258 -40.283 239.124C-38.7143 240.034 -37.1394 240.97 -35.5612 241.864C-35.2168 242.073 -34.3502 242.728 -33.9322 242.64C-33.4137 242.527 -32.8144 241.223 -32.552 240.827C-30.5033 237.666 -28.4545 234.505 -26.4058 231.344C-16.9714 216.801 -7.55275 202.25 1.89107 187.691C3.49714 185.224 7.41065 187.601 5.80457 190.069C-3.62975 204.611 -13.0484 219.163 -22.4922 233.721C-24.8129 237.294 -26.9931 241.06 -29.4921 244.503C-31.5456 247.319 -34.2193 247.769 -37.2666 246.153C-44.8394 242.109 -52.1489 237.455 -59.4844 233.02C-66.0591 229.026 -73.1101 224.828 -77.3937 218.227C-81.6772 211.625 -77.7694 204.205 -74.504 197.912C-70.5543 190.282 -65.5995 183.219 -60.8359 176.083C-58.4398 172.491 -56.0281 168.909 -53.6321 165.318C-51.8841 162.723 -50.1802 159.459 -46.5744 159.768C-44.7385 159.921 -42.9193 160.983 -41.2619 161.712C-39.0812 162.673 -36.9195 163.666 -34.7862 164.705C-30.385 166.844 -26.0474 169.158 -21.8203 171.619C-13.4758 176.474 -5.52028 181.97 2.03097 187.99C4.29887 189.796 1.94832 193.736 -0.341393 191.896L-0.310081 191.915Z" fill="#FFFCF4"/>
</g>
<g clip-path="url(#clip4_63_22441)">
<path d="M141.743 510.92C147.844 500.277 153.93 489.624 160.04 478.965L169.066 463.191L173.357 455.703L175.626 451.757C175.901 451.304 176.337 450.692 176.519 450.182C176.986 448.99 176.974 448.726 176.062 447.83C159.017 431.295 140.201 416.443 120.47 403.238C110.686 396.695 100.614 390.555 90.3175 384.856C85.1692 382.007 79.9545 379.267 74.689 376.646C70.5606 374.587 64.9991 370.759 60.2062 372.616C55.6774 374.356 52.1507 379.421 49.1802 383.006C45.3352 387.642 41.8062 392.534 38.4432 397.505C31.7267 407.433 25.5172 417.689 19.1512 427.851C-6.77432 469.223 -32.8408 510.509 -58.3906 552.109C-71.0866 572.797 -83.626 593.58 -95.8585 614.527C-101.987 625.004 -108.013 635.523 -113.985 646.095C-116.647 650.829 -119.506 655.572 -121.116 660.796C-122.725 666.02 -122.461 670.736 -121.052 675.719C-119.643 680.703 -117.387 685.174 -115.169 689.708C-112.706 694.754 -110.123 699.745 -107.43 704.696C-101.978 714.701 -96.0855 724.44 -89.7524 733.912C-83.4349 743.374 -76.8508 752.891 -69.1945 761.349C-62.0818 769.22 -53.4106 776.113 -42.7677 778.173C-34.0571 779.85 -24.5833 778.013 -18.3809 771.366C-14.7086 767.438 -11.9879 762.183 -9.98122 757.222C-9.20965 755.317 -8.47459 753.154 -8.99574 751.084C-9.61835 748.546 -11.8483 746.678 -13.4027 744.686C-23.4405 731.787 -24.6104 713.604 -17.9038 698.966C-14.4063 691.339 -8.54352 684.828 -1.14115 680.792C7.46674 676.077 17.1349 675.684 26.1115 679.64C30.8927 681.753 35.1519 684.726 39.2058 688.001C43.0281 691.093 46.9282 694.339 49.6029 698.508C54.7872 706.555 51.9275 716.131 47.1999 723.631C39.1486 736.426 20.8328 749.572 6.35885 738.085C-0.601366 732.574 -5.96719 723.027 -5.78173 714.008C-5.59627 704.989 1.23196 697.417 10.3617 696.676C19.4915 695.935 27.8691 703.205 28.5034 712.145C28.8103 716.437 27.0314 721.024 23.1411 723.194C19.2509 725.365 14.5853 724.755 10.7817 723.043C3.00868 719.54 -1.10817 710.795 -1.0613 702.568C-1.01819 693.783 4.08612 686.298 11.5715 681.949C19.057 677.6 28.6246 676.526 37.1901 678.372C39.1441 678.789 41.1597 679.457 43.1631 679.37C45.9577 679.25 47.7436 677.298 49.204 675.105C52.4408 670.271 55.2772 665.108 58.2418 660.087C70.5335 639.218 82.1522 617.94 93.0911 596.335C98.4196 585.799 103.582 575.184 108.604 564.484L108.896 567.249C101.413 558.469 94.5025 548.326 92.7001 536.688C91.0835 526.296 93.9187 514.503 102.095 507.429C110.271 500.356 121.652 500.106 131.598 502.961C141.543 505.816 152.612 512.113 158.009 521.786C162.739 530.262 162.084 541.113 155.599 548.508C147.971 557.219 136.594 554.285 127.599 549.548C118.604 544.811 108.87 537.058 111.213 525.757C112.121 521.369 115.057 517.207 119.458 515.818C121.93 515.031 124.379 515.514 126.909 515.618C129.587 515.726 131.86 514.947 133.787 513.08C137.631 509.363 139.158 503.533 140.399 498.492C142.174 491.336 143.93 484.319 146.723 477.462C149.517 470.605 152.85 464.097 156.846 457.906C159.733 453.436 165.593 447.565 163.412 441.771C162.379 439.026 166.836 437.969 167.862 440.689C169.497 445.018 167.753 449.476 165.501 453.219C162.616 457.968 159.29 462.385 156.599 467.273C153.598 472.742 151.064 478.431 149.031 484.317C147.205 489.581 146.035 494.965 144.666 500.357C142.742 507.935 139.347 517.934 130.67 519.87C126.402 520.827 121.356 518.339 117.999 522.031C115.301 524.99 114.733 529.735 116.252 533.373C118.224 538.1 122.576 541.343 126.831 543.863C131.086 546.384 135.925 549.003 140.945 549.593C150.409 550.701 156.535 542.169 156.575 533.425C156.639 523.37 148.283 515.642 140.024 511.245C131.765 506.848 121.509 504.082 112.37 506.849C101.369 510.175 96.3084 521.964 96.8434 532.725C97.4389 544.656 104.712 555.298 112.21 564.087C112.922 564.926 112.958 565.889 112.502 566.852C102.483 588.247 91.8264 609.317 80.5148 630.055C74.8637 640.416 69.0466 650.697 63.0729 660.883C60.1051 665.945 57.1215 670.997 54.0441 675.993C51.77 679.701 48.9408 683.265 44.3202 683.815C40.0482 684.321 35.8562 682.437 31.6351 682.119C27.4139 681.8 22.9631 682.282 18.8348 683.645C10.7983 686.291 3.96826 692.878 3.55465 701.672C3.18001 709.486 7.67013 718.993 16.3372 719.895C21.2732 720.413 24.4036 716.883 23.9297 712.018C23.489 707.452 19.875 703.418 15.6374 701.891C11.3998 700.365 6.77724 701.342 3.38645 704.137C-0.0043291 706.931 -1.54469 711.513 -1.1476 716.01C-0.38897 724.533 6.13762 734.957 14.7007 737.336C22.2196 739.422 29.9678 735.276 35.4495 730.415C41.407 725.159 47.4084 717.15 47.8319 708.938C48.0739 704.059 45.69 700.152 42.3492 696.797C39.0083 693.441 34.8483 690.059 30.7009 687.325C22.328 681.811 12.6947 679.359 3.22535 683.658C-11.9602 690.558 -19.5053 708.023 -17.2019 724.093C-16.6387 727.964 -15.5542 731.788 -13.8624 735.318C-12.0525 739.112 -9.43173 742.03 -6.92586 745.348C-4.04241 749.174 -3.69416 753.364 -5.34693 757.813C-6.99969 762.262 -9.43855 766.983 -12.2507 770.941C-23.4172 786.677 -44.743 785.869 -59.6194 775.891C-68.8713 769.672 -75.9266 760.895 -82.5074 752.043C-89.0882 743.19 -95.1321 734.301 -100.86 725.068C-106.589 715.835 -111.995 706.178 -116.955 696.386C-121.248 687.897 -126.309 678.835 -126.814 669.118C-127.353 658.611 -121.095 649.261 -116.141 640.508C-110.315 630.211 -104.41 619.961 -98.4268 609.759C-86.4449 589.365 -74.203 569.107 -61.8297 548.951C-37.159 508.763 -11.9717 468.889 13.0651 428.944C19.2888 419.017 25.3872 409.013 31.8143 399.21C37.8875 389.918 44.3668 380.381 52.3606 372.619C55.4383 369.635 59.3077 367.216 63.7703 367.596C68.4777 367.996 72.8921 370.678 77.0362 372.746C87.3073 377.852 97.3785 383.393 107.194 389.356C126.745 401.233 145.314 414.694 162.683 429.565C167.152 433.392 171.538 437.319 175.843 441.345C177.522 442.921 179.806 444.523 180.99 446.525C182.174 448.528 181.467 450.643 180.442 452.544C174.837 462.933 168.704 473.065 162.824 483.308C156.945 493.551 151.384 503.304 145.666 513.282C144.2 515.835 140.287 513.458 141.752 510.905L141.743 510.92Z" fill="#FFFCF4"/>
<path d="M113.661 432.228C100.047 425.498 86.2623 419.155 72.2778 413.248C69.2195 411.967 66.0906 410.345 62.851 409.574C59.3041 408.745 56.9386 410.452 54.804 413.155C50.2317 418.953 46.2594 425.35 42.6292 431.785C40.7934 435.054 39.0264 438.386 37.4193 441.772C36.2022 444.305 34.9842 447.051 34.9398 449.911C34.8476 456.377 42.1263 459.495 46.981 462.016C53.5083 465.382 60.1495 468.561 66.8828 471.518C69.7778 472.785 72.7877 474.357 75.931 474.898C79.0743 475.439 81.3809 474.252 83.4063 472.082C85.8293 469.47 87.4739 466.127 89.3775 463.135C91.6098 459.636 93.958 456.23 96.4157 452.89C101.391 446.181 106.798 439.821 112.617 433.84C114.671 431.73 117.807 435.068 115.764 437.162C109.818 443.281 104.285 449.779 99.2773 456.681C96.7593 460.156 94.3571 463.722 92.1053 467.358C90.3848 470.12 88.7863 472.998 86.5465 475.38C81.6943 480.58 75.54 480.092 69.4235 477.531C61.806 474.337 54.3123 470.832 46.961 467.094C41.2416 464.197 33.9561 461.161 31.3196 454.812C28.6831 448.462 32.2171 441.798 35.0934 436.146C38.9615 428.509 43.4215 421.167 48.3697 414.186C50.3729 411.382 52.368 408.274 55.3185 406.346C58.2689 404.417 61.5716 404.413 64.7823 405.337C68.8989 406.533 72.8926 408.532 76.8219 410.213C81.124 412.056 85.4227 413.941 89.7025 415.856C98.5628 419.827 107.334 423.98 116.036 428.282C118.674 429.585 116.286 433.481 113.664 432.187L113.661 432.228Z" fill="#FFFCF4"/>
<path d="M56.5766 511.344C52.3559 506.085 46.7115 502.571 40.8488 499.416C34.5696 496.029 28.186 492.814 21.8499 489.521C19.4382 488.269 16.8126 486.418 14.1181 485.914C10.9122 485.336 8.8065 488.59 6.97275 490.727C2.38055 496.064 -1.81795 501.811 -5.44008 507.844C-8.48004 512.883 -10.9797 518.55 -9.25496 524.496C-7.88587 529.262 -4.28988 533.115 -0.587087 536.262C4.2385 540.349 9.83696 543.621 15.3263 546.721C18.2166 548.348 21.1544 549.898 24.1396 551.369C26.3355 552.446 30.2888 555.04 32.5092 552.796C33.673 551.621 34.3876 549.81 35.1947 548.376C36.2485 546.535 37.2929 544.71 38.331 542.86C40.2773 539.444 42.2141 536.045 44.1605 532.629C48.2049 525.548 52.2337 518.457 56.2782 511.376C57.7277 508.814 61.6412 511.191 60.1917 513.754C56.087 520.969 51.9666 528.175 47.8619 535.391C45.8396 538.931 43.8174 542.472 41.8108 546.022C39.9594 549.281 38.3299 553.445 35.6712 556.129C30.7607 561.037 23.3801 556.147 18.5567 553.645C11.7694 550.142 5.00261 546.288 -1.07627 541.654C-5.72544 538.124 -10.2427 533.883 -12.6259 528.457C-15.2454 522.503 -14.6271 516.335 -11.9979 510.49C-8.86145 503.563 -4.07606 497.167 0.669425 491.26C4.54666 486.43 8.89755 479.621 16.0336 481.668C19.9027 482.778 23.5553 485.232 27.0945 487.061C31.2633 489.23 35.4477 491.408 39.6164 493.577C47.055 497.454 54.5993 501.545 59.947 508.194C61.7732 510.48 58.4687 513.627 56.6269 511.331L56.5766 511.344Z" fill="#FFFCF4"/>
</g>
</g>
<defs>
<clipPath id="clip0_63_22441">
<rect y="0.34668" width="360" height="492" rx="25" fill="white"/>
</clipPath>
<clipPath id="clip1_63_22441">
<rect width="417" height="186" fill="white" transform="translate(62 334.54) rotate(-59.4712)"/>
</clipPath>
<clipPath id="clip2_63_22441">
<rect width="417" height="186" fill="white" transform="matrix(-0.51919 0.854659 0.854659 0.51919 368.502 210.347)"/>
</clipPath>
<clipPath id="clip3_63_22441">
<rect width="417" height="186" fill="white" transform="matrix(-0.51919 0.854659 0.854659 0.51919 40.5022 -37.6533)"/>
</clipPath>
<clipPath id="clip4_63_22441">
<rect width="417" height="186" fill="white" transform="matrix(-0.51919 0.854659 0.854659 0.51919 54.5022 357.347)"/>
</clipPath>
</defs>
</svg>
