<svg width="1439" height="780" viewBox="0 0 1439 780" fill="none" xmlns="http://www.w3.org/2000/svg">
<g clip-path="url(#clip0_63_21288)">
<rect width="1440" height="780" fill="#011ECB"/>
<rect width="1440" height="780" fill="#011ECB"/>
<g clip-path="url(#clip1_63_21288)">
<path d="M496.417 309.013C485.878 325.891 475.313 342.754 464.758 359.657L449.124 384.647L441.709 396.519L437.806 402.787C437.369 403.528 436.829 404.62 436.238 405.27C434.892 406.851 434.507 407.036 432.526 406.419C395.828 394.724 360.178 379.207 326.181 361.119C309.33 352.146 292.835 342.453 276.798 332.101C268.78 326.925 260.867 321.57 253.085 316.051C246.978 311.727 237.245 306.71 236.227 298.435C235.244 290.628 239.781 281.706 242.629 274.712C246.31 265.663 250.599 256.87 255.129 248.252C264.174 231.044 274.078 214.307 283.727 197.42C323.002 128.656 362.048 59.7556 401.937 -8.64657C421.782 -42.6486 441.883 -76.4997 462.455 -110.039C472.735 -126.828 483.155 -143.502 493.691 -160.141C498.419 -167.574 503.008 -175.296 509.243 -181.6C515.478 -187.904 522.422 -191.14 530.625 -192.944C538.829 -194.749 546.949 -194.95 555.13 -195.254C564.232 -195.6 573.346 -195.731 582.487 -195.675C600.967 -195.549 619.404 -194.588 637.797 -192.793C656.165 -191.013 674.815 -188.894 692.773 -184.43C709.475 -180.293 725.973 -173.18 737.074 -159.544C746.146 -148.377 750.78 -133.427 746.031 -119.466C743.23 -111.207 737.803 -103.291 732.248 -96.6201C730.116 -94.0572 727.588 -91.3493 724.229 -90.5079C720.123 -89.453 715.744 -91.2094 711.705 -91.9049C685.575 -96.3702 658.685 -84.1093 642.899 -63.3048C634.676 -52.4603 629.86 -39.0899 629.763 -25.4152C629.619 -9.49672 636.466 4.62522 649 14.4259C655.685 19.6415 663.197 23.4525 670.986 26.7378C678.335 29.8326 685.964 32.9206 693.974 33.5489C709.45 34.7939 720.948 23.368 728.047 10.8624C740.168 -10.4518 744.925 -46.7086 717.413 -58.597C704.2 -64.3236 686.441 -64.6783 673.69 -57.502C660.939 -50.3257 655.348 -34.7627 661.285 -21.1434C667.221 -7.52414 684.034 -1.11951 697.3 -7.06312C703.671 -9.91362 708.864 -15.9713 708.986 -23.1958C709.108 -30.4203 704.661 -36.6224 699.299 -40.7479C688.335 -49.1754 672.678 -48.3589 660.954 -41.9881C648.429 -35.1948 641.64 -22.1622 641.159 -8.12882C640.678 5.90457 646.474 20.4048 655.676 31.235C657.77 33.7087 660.27 36.0778 661.68 39.0088C663.65 43.0958 662.228 47.1445 660.213 50.9122C655.783 59.2438 650.576 67.255 645.669 75.3406C625.256 108.904 603.742 141.818 581.238 174.012C570.261 189.702 559.043 205.216 547.594 220.594L551.77 218.893C533.486 214.925 513.69 212.818 495.672 219.16C479.578 224.812 464.891 237.902 461.045 255.01C457.198 272.118 465.563 288.58 477.265 300.61C488.968 312.639 506.452 323.638 524.414 323.94C540.157 324.207 555.166 314.955 560.767 300.018C567.375 282.439 554.464 268.423 540.799 259.195C527.134 249.966 508.592 241.991 494.232 254.001C488.655 258.662 484.955 266.047 486.342 273.404C487.11 277.54 489.678 280.672 491.766 284.209C493.972 287.953 494.6 291.8 493.409 295.985C491.041 304.328 483.877 310.979 477.621 316.616C468.752 324.637 460.066 332.523 452.405 341.772C444.743 351.02 437.993 360.772 432.205 371.228C428.028 378.78 424.125 391.656 414.171 392.979C409.456 393.605 411.36 400.786 416.035 400.17C423.476 399.189 428.513 393.28 432.138 387.192C436.716 379.429 440.481 371.29 445.406 363.698C450.925 355.217 457.116 347.235 463.973 339.818C470.098 333.174 476.898 327.375 483.557 321.287C492.915 312.73 504.607 300.214 500.726 286.326C498.824 279.492 491.4 274.185 494.105 266.556C496.268 260.432 502.616 255.985 508.981 255.367C517.249 254.564 525.22 258.301 532.084 262.452C538.948 266.604 546.399 271.514 551.09 278.238C559.926 290.917 552.423 306.213 539.954 312.971C525.63 320.768 508.178 314.744 495.564 306.307C482.95 297.87 471.136 285.328 468.089 270.143C464.415 251.869 477.388 235.601 493.182 228.119C510.694 219.828 531.48 222.07 549.79 226.053C551.534 226.428 552.939 225.742 553.966 224.352C576.874 193.636 598.829 162.255 619.805 130.194C630.286 114.176 640.526 97.9818 650.51 81.6367C655.472 73.5151 660.408 65.3785 665.191 57.1514C668.749 51.0588 671.675 44.2836 668.922 37.2564C666.371 30.7619 660.466 26.2127 656.776 20.4227C653.086 14.6327 650.365 7.90029 649.15 0.954323C646.774 -12.5615 650.955 -27.3724 663.211 -34.7031C674.093 -41.226 691.125 -42.0924 699.056 -30.394C703.579 -23.7346 700.931 -16.5544 693.614 -13.5043C686.749 -10.6352 678.212 -12.7098 672.782 -17.598C667.353 -22.4861 665.208 -29.843 666.605 -36.8318C668.001 -43.8206 673.371 -49.5336 680.104 -52.4119C692.869 -57.8587 712.771 -56.516 722.733 -46.0979C731.478 -36.9485 731.488 -22.6946 728.74 -11.1336C725.792 1.41039 718.941 16.1272 707.527 23.025C700.738 27.1094 693.325 26.6958 685.969 24.4913C678.612 22.2867 670.588 18.9318 663.503 15.0975C649.204 7.35353 638.318 -4.53877 637.207 -21.3696C635.434 -48.3651 654.619 -72.5345 679.356 -81.5559C685.321 -83.7169 691.619 -85.0969 697.961 -85.3833C704.772 -85.7033 710.951 -84.1929 717.616 -83.1538C725.295 -81.9636 731.55 -84.676 736.644 -90.4482C741.738 -96.2204 746.617 -103.324 750.121 -110.378C764.059 -138.399 746.562 -168.265 720.899 -181.885C704.918 -190.346 686.965 -193.706 669.268 -196.33C651.57 -198.954 634.231 -200.782 616.643 -201.895C599.055 -203.009 581.108 -203.338 563.309 -202.924C547.882 -202.557 531.05 -202.846 516.773 -196.123C501.339 -188.842 492.769 -172.73 484.052 -158.942C473.797 -142.722 463.67 -126.427 453.671 -110.056C433.698 -77.2998 414.12 -44.2763 394.787 -11.1425C356.242 54.9208 318.541 121.482 280.626 187.882C271.203 204.386 261.576 220.77 252.486 237.47C243.857 253.272 235.189 269.843 230.219 287.218C228.311 293.905 227.819 301.289 231.781 307.377C235.961 313.8 243.177 318.056 249.309 322.395C264.479 333.165 280.117 343.316 296.162 352.778C328.124 371.627 361.596 387.855 396.164 401.289C405.059 404.745 414.034 408.007 423.089 411.075C426.628 412.268 430.668 414.306 434.438 414.464C438.207 414.622 440.69 411.991 442.621 409.068C453.178 393.095 462.962 376.563 473.099 360.309C483.237 344.054 492.918 328.632 502.8 312.811C505.327 308.76 498.929 304.988 496.402 309.039L496.417 309.013Z" fill="#FFFCF4"/>
<path d="M362.404 329.171C342.351 314.867 322.721 300.022 303.56 284.557C299.386 281.167 294.668 277.937 291.085 273.896C287.182 269.461 287.809 264.772 290.036 259.649C294.821 248.67 300.923 238.089 307.34 227.969C310.606 222.84 314.015 217.76 317.625 212.868C320.312 209.187 323.304 205.342 327.359 203.087C336.532 198 346.566 206.016 353.891 211.024C363.705 217.775 373.339 224.833 382.725 232.193C386.755 235.36 391.308 238.459 394.49 242.538C397.672 246.617 397.743 250.823 396.193 255.381C394.315 260.847 390.797 265.759 387.978 270.774C384.688 276.646 381.617 282.613 378.726 288.686C372.949 300.938 367.999 313.542 363.908 326.444C362.465 330.997 369.641 332.923 371.069 328.396C375.26 315.208 380.308 302.319 386.338 289.871C389.376 283.609 392.633 277.442 396.106 271.437C398.735 266.861 401.625 262.37 403.314 257.343C407.029 246.422 401.616 237.998 393.268 231.217C382.864 222.775 372.112 214.748 361.134 207.104C352.61 201.148 342.688 193.06 331.591 194.156C320.494 195.253 313.676 205.411 307.8 213.854C299.846 225.236 292.768 237.238 286.58 249.661C284.107 254.673 281.194 259.907 280.697 265.602C280.201 271.298 282.726 276.023 286.507 279.904C291.372 284.872 297.289 289.05 302.703 293.379C308.635 298.116 314.623 302.817 320.641 307.468C333.107 317.091 345.765 326.448 358.584 335.591C362.467 338.363 366.206 331.964 362.348 329.207L362.404 329.171Z" fill="#FFFCF4"/>
<path d="M431.76 186.941C421.008 184.937 411.659 179.561 402.656 173.598C393.003 167.217 383.515 160.555 373.953 154.021C370.316 151.532 365.657 149.198 362.872 145.732C359.588 141.592 362.627 136.088 364.277 131.829C368.387 121.175 373.385 110.769 379.234 100.968C384.109 92.7608 390.294 84.8448 400.115 82.7547C407.978 81.0592 416.241 83.2476 423.578 86.1289C433.117 89.8959 442.086 95.3913 450.723 100.863C455.264 103.748 459.73 106.76 464.121 109.9C467.344 112.214 474.082 115.877 472.575 120.771C471.787 123.335 469.746 125.745 468.314 127.998C466.49 130.915 464.681 133.806 462.832 136.708C459.441 142.107 456.065 147.481 452.674 152.881C445.65 164.089 438.601 175.282 431.578 186.49C429.025 190.525 435.423 194.298 437.975 190.262C445.145 178.865 452.289 167.453 459.458 156.056C462.97 150.452 466.481 144.848 470.019 139.259C473.259 134.115 477.963 128.595 479.762 122.738C483.016 111.957 470.37 105.153 463.096 100.176C452.888 93.1573 442.193 86.4373 430.91 81.2981C422.301 77.357 412.777 74.1495 403.195 74.9001C392.676 75.7179 384.332 81.3286 377.991 89.5661C370.492 99.3579 365.016 111.1 360.209 122.41C356.275 131.654 349.875 143.092 358.269 151.724C362.821 156.405 369.128 159.746 374.455 163.403C380.75 167.701 387.071 172.013 393.366 176.31C404.608 183.973 416.238 191.623 429.841 194.172C434.507 195.032 436.473 187.897 431.781 187.022L431.76 186.941Z" fill="#FFFCF4"/>
<path d="M506.928 67.7231C484.543 58.1355 463.272 46.0733 443.666 31.6548C441.017 29.7139 438.398 27.722 435.834 25.694C434.85 24.907 433.743 24.1513 432.819 23.2621C431.582 22.0851 431.496 21.5871 432.19 20.0004C434.599 14.5717 437.829 9.38678 440.61 4.14382C446.369 -6.67408 451.953 -17.6638 458.147 -28.2251C461.189 -33.3834 464.41 -38.4359 467.974 -43.2517C470.995 -47.3211 474.829 -53.3545 479.938 -54.8842C485.048 -56.4138 491.595 -54.2395 496.529 -52.4308C501.878 -50.4468 506.918 -47.6469 511.846 -44.775C522.588 -38.5436 533.194 -32.0825 543.785 -25.5957C546.288 -24.0507 548.832 -22.5161 551.32 -20.9455C551.883 -20.6135 553.483 -19.8763 553.677 -19.2112C553.914 -18.3836 552.509 -16.5276 552.143 -15.8486C549.194 -10.4977 546.245 -5.14677 543.297 0.204132C529.737 24.8346 516.152 49.4499 502.578 74.1059C500.282 78.2926 506.679 82.0653 508.975 77.8786C522.535 53.2481 536.12 28.6328 549.694 3.97684C553.024 -2.07862 556.736 -8.08071 559.743 -14.2917C562.195 -19.385 560.79 -23.5521 556.145 -26.6701C544.56 -34.3965 532.306 -41.2791 520.345 -48.3671C509.597 -54.7053 498.193 -61.5681 485.474 -62.6331C472.754 -63.698 465.141 -52.4252 458.648 -42.9352C450.766 -31.4419 444.467 -18.9467 437.916 -6.66862C434.618 -0.491284 431.345 5.70114 428.047 11.8785C425.677 16.3658 422.318 21.3023 425.522 26.2205C427.147 28.7278 430.06 30.5144 432.372 32.3252C435.417 34.706 438.492 37.0358 441.613 39.2889C448.043 43.9415 454.675 48.3689 461.432 52.5258C474.767 60.734 488.72 67.8952 503.112 74.0768C507.431 75.9354 511.262 69.5561 506.877 67.6929L506.928 67.7231Z" fill="#FFFCF4"/>
</g>
<g clip-path="url(#clip2_63_21288)">
<path d="M1392.42 108.714C1381.88 125.592 1371.31 142.454 1360.76 159.358L1345.12 184.348L1337.71 196.22L1333.81 202.488C1333.37 203.228 1332.83 204.32 1332.24 204.97C1330.89 206.551 1330.51 206.737 1328.53 206.119C1291.83 194.424 1256.18 178.907 1222.18 160.82C1205.33 151.847 1188.84 142.154 1172.8 131.802C1164.78 126.626 1156.87 121.271 1149.09 115.752C1142.98 111.428 1133.25 106.411 1132.23 98.136C1131.24 90.3288 1135.78 81.4063 1138.63 74.4129C1142.31 65.3639 1146.6 56.5703 1151.13 47.9531C1160.17 30.7443 1170.08 14.008 1179.73 -2.87929C1219 -71.6436 1258.05 -140.544 1297.94 -208.946C1317.78 -242.948 1337.88 -276.799 1358.46 -310.338C1368.74 -327.128 1379.16 -343.801 1389.69 -360.44C1394.42 -367.873 1399.01 -375.595 1405.24 -381.899C1411.48 -388.203 1418.42 -391.439 1426.63 -393.243C1434.83 -395.048 1442.95 -395.25 1451.13 -395.553C1460.23 -395.899 1469.35 -396.031 1478.49 -395.975C1496.97 -395.849 1515.4 -394.888 1533.8 -393.092C1552.17 -391.312 1570.82 -389.193 1588.77 -384.729C1605.48 -380.593 1621.97 -373.479 1633.07 -359.843C1642.15 -348.676 1646.78 -333.726 1642.03 -319.766C1639.23 -311.506 1633.8 -303.59 1628.25 -296.919C1626.12 -294.357 1623.59 -291.649 1620.23 -290.807C1616.12 -289.752 1611.74 -291.509 1607.71 -292.204C1581.58 -296.67 1554.69 -284.409 1538.9 -263.604C1530.68 -252.76 1525.86 -239.389 1525.76 -225.714C1525.62 -209.796 1532.47 -195.674 1545 -185.873C1551.69 -180.658 1559.2 -176.847 1566.99 -173.562C1574.34 -170.467 1581.96 -167.379 1589.97 -166.75C1605.45 -165.505 1616.95 -176.931 1624.05 -189.437C1636.17 -210.751 1640.93 -247.008 1613.41 -258.896C1600.2 -264.623 1582.44 -264.978 1569.69 -257.801C1556.94 -250.625 1551.35 -235.062 1557.29 -221.443C1563.22 -207.823 1580.03 -201.419 1593.3 -207.362C1599.67 -210.213 1604.86 -216.271 1604.99 -223.495C1605.11 -230.72 1600.66 -236.922 1595.3 -241.047C1584.34 -249.475 1568.68 -248.658 1556.95 -242.287C1544.43 -235.494 1537.64 -222.462 1537.16 -208.428C1536.68 -194.395 1542.47 -179.894 1551.68 -169.064C1553.77 -166.591 1556.27 -164.221 1557.68 -161.291C1559.65 -157.203 1558.23 -153.155 1556.21 -149.387C1551.78 -141.056 1546.58 -133.044 1541.67 -124.959C1521.26 -91.3955 1499.74 -58.4812 1477.24 -26.2878C1466.26 -10.5973 1455.04 4.91673 1443.59 20.295L1447.77 18.5935C1429.49 14.6253 1409.69 12.5188 1391.67 18.8603C1375.58 24.5124 1360.89 37.6027 1357.05 54.7107C1353.2 71.8188 1361.56 88.2809 1373.27 100.31C1384.97 112.339 1402.45 123.338 1420.41 123.641C1436.16 123.907 1451.17 114.656 1456.77 99.7184C1463.38 82.1392 1450.46 68.1238 1436.8 58.8952C1423.13 49.6667 1404.59 41.6916 1390.23 53.7012C1384.66 58.3625 1380.96 65.7482 1382.34 73.105C1383.11 77.2408 1385.68 80.3726 1387.77 83.9095C1389.97 87.6541 1390.6 91.5009 1389.41 95.6853C1387.04 104.029 1379.88 110.679 1373.62 116.317C1364.75 124.337 1356.07 132.224 1348.41 141.473C1340.74 150.721 1333.99 160.472 1328.21 170.929C1324.03 178.481 1320.13 191.357 1310.17 192.68C1305.46 193.306 1307.36 200.487 1312.04 199.87C1319.48 198.89 1324.51 192.981 1328.14 186.893C1332.72 179.13 1336.48 170.991 1341.41 163.399C1346.93 154.917 1353.12 146.935 1359.97 139.518C1366.1 132.875 1372.9 127.076 1379.56 120.988C1388.92 112.43 1400.61 99.9144 1396.73 86.0271C1394.82 79.1925 1387.4 73.8852 1390.11 66.257C1392.27 60.133 1398.62 55.6853 1404.98 55.068C1413.25 54.2652 1421.22 58.002 1428.08 62.1531C1434.95 66.3042 1442.4 71.2145 1447.09 77.9389C1455.93 90.6181 1448.42 105.914 1435.95 112.671C1421.63 120.469 1404.18 114.445 1391.56 106.008C1378.95 97.5711 1367.14 85.0287 1364.09 69.8437C1360.41 51.5699 1373.39 35.3015 1389.18 27.82C1406.69 19.5284 1427.48 21.7707 1445.79 25.754C1447.53 26.129 1448.94 25.4431 1449.97 24.0526C1472.87 -6.66325 1494.83 -38.0442 1515.81 -70.1054C1526.29 -86.1232 1536.53 -102.317 1546.51 -118.663C1551.47 -126.784 1556.41 -134.921 1561.19 -143.148C1564.75 -149.241 1567.68 -156.016 1564.92 -163.043C1562.37 -169.537 1556.47 -174.087 1552.78 -179.877C1549.09 -185.667 1546.37 -192.399 1545.15 -199.345C1542.77 -212.861 1546.96 -227.672 1559.21 -235.002C1570.09 -241.525 1587.13 -242.392 1595.06 -230.693C1599.58 -224.034 1596.93 -216.854 1589.61 -213.804C1582.75 -210.935 1574.21 -213.009 1568.78 -217.897C1563.35 -222.785 1561.21 -230.142 1562.61 -237.131C1564 -244.12 1569.37 -249.833 1576.1 -252.711C1588.87 -258.158 1608.77 -256.815 1618.73 -246.397C1627.48 -237.248 1627.49 -222.994 1624.74 -211.433C1621.79 -198.889 1614.94 -184.172 1603.53 -177.274C1596.74 -173.19 1589.33 -173.603 1581.97 -175.808C1574.61 -178.013 1566.59 -181.368 1559.5 -185.202C1545.2 -192.946 1534.32 -204.838 1533.21 -221.669C1531.43 -248.664 1550.62 -272.834 1575.36 -281.855C1581.32 -284.016 1587.62 -285.396 1593.96 -285.683C1600.77 -286.003 1606.95 -284.492 1613.62 -283.453C1621.3 -282.263 1627.55 -284.975 1632.64 -290.748C1637.74 -296.52 1642.62 -303.623 1646.12 -310.677C1660.06 -338.698 1642.56 -368.565 1616.9 -382.185C1600.92 -390.645 1582.97 -394.005 1565.27 -396.629C1547.57 -399.253 1530.23 -401.081 1512.64 -402.195C1495.06 -403.309 1477.11 -403.637 1459.31 -403.223C1443.88 -402.856 1427.05 -403.146 1412.77 -396.422C1397.34 -389.141 1388.77 -373.03 1380.05 -359.241C1369.8 -343.022 1359.67 -326.726 1349.67 -310.356C1329.7 -277.599 1310.12 -244.576 1290.79 -211.442C1252.24 -145.379 1214.54 -78.8172 1176.63 -12.4173C1167.2 4.08694 1157.58 20.4704 1148.49 37.1708C1139.86 52.9729 1131.19 69.5433 1126.22 86.9183C1124.31 93.6052 1123.82 100.99 1127.78 107.078C1131.96 113.501 1139.18 117.756 1145.31 122.095C1160.48 132.866 1176.12 143.017 1192.16 152.479C1224.12 171.327 1257.6 187.556 1292.16 200.99C1301.06 204.446 1310.03 207.708 1319.09 210.776C1322.63 211.968 1326.67 214.007 1330.44 214.165C1334.21 214.323 1336.69 211.691 1338.62 208.769C1349.18 192.796 1358.96 176.264 1369.1 160.009C1379.24 143.755 1388.92 128.332 1398.8 112.512C1401.33 108.461 1394.93 104.688 1392.4 108.739L1392.42 108.714Z" fill="#FFFCF4"/>
<path d="M1258.4 128.871C1238.35 114.568 1218.72 99.7222 1199.56 84.2579C1195.39 80.8672 1190.67 77.6378 1187.09 73.5971C1183.18 69.1617 1183.81 64.4723 1186.04 59.35C1190.82 48.3708 1196.92 37.7897 1203.34 27.6694C1206.61 22.5402 1210.02 17.4609 1213.63 12.5686C1216.31 8.88796 1219.3 5.04255 1223.36 2.7874C1232.53 -2.29975 1242.57 5.71679 1249.89 10.7246C1259.71 17.4759 1269.34 24.5337 1278.73 31.8932C1282.76 35.061 1287.31 38.1593 1290.49 42.2383C1293.67 46.3173 1293.74 50.5238 1292.19 55.082C1290.32 60.5479 1286.8 65.46 1283.98 70.4743C1280.69 76.3464 1277.62 82.3136 1274.73 88.3865C1268.95 100.639 1264 113.242 1259.91 126.145C1258.47 130.697 1265.64 132.623 1267.07 128.096C1271.26 114.908 1276.31 102.02 1282.34 89.572C1285.38 83.3099 1288.63 77.143 1292.11 71.1374C1294.74 66.5619 1297.63 62.0711 1299.31 57.044C1303.03 46.1227 1297.62 37.6989 1289.27 30.9175C1278.86 22.4761 1268.11 14.449 1257.13 6.80506C1248.61 0.848899 1238.69 -7.23961 1227.59 -6.1432C1216.49 -5.04678 1209.68 5.11176 1203.8 13.5548C1195.85 24.9367 1188.77 36.9385 1182.58 49.3617C1180.11 54.3737 1177.19 59.6073 1176.7 65.3031C1176.2 70.9989 1178.73 75.7232 1182.51 79.6049C1187.37 84.5731 1193.29 88.7509 1198.7 93.0795C1204.64 97.8168 1210.62 102.518 1216.64 107.168C1229.11 116.791 1241.77 126.149 1254.58 135.291C1258.47 138.063 1262.21 131.664 1258.35 128.907L1258.4 128.871Z" fill="#FFFCF4"/>
<path d="M1327.76 -13.3582C1317.01 -15.3621 1307.66 -20.7379 1298.66 -26.7011C1289 -33.0821 1279.52 -39.7441 1269.95 -46.2783C1266.32 -48.7671 1261.66 -51.1016 1258.87 -54.5677C1255.59 -58.707 1258.63 -64.2112 1260.28 -68.4699C1264.39 -79.1242 1269.39 -89.53 1275.23 -99.3311C1280.11 -107.539 1286.29 -115.455 1296.12 -117.545C1303.98 -119.24 1312.24 -117.052 1319.58 -114.17C1329.12 -110.403 1338.09 -104.908 1346.72 -99.4359C1351.26 -96.5513 1355.73 -93.5389 1360.12 -90.3989C1363.34 -88.0854 1370.08 -84.4218 1368.58 -79.5282C1367.79 -76.9641 1365.75 -74.5545 1364.31 -72.3016C1362.49 -69.3847 1360.68 -66.4933 1358.83 -63.5916C1355.44 -58.1919 1352.07 -52.8178 1348.67 -47.4182C1341.65 -36.2103 1334.6 -25.0176 1327.58 -13.8097C1325.03 -9.77393 1331.42 -6.00122 1333.98 -10.037C1341.15 -21.4341 1348.29 -32.8462 1355.46 -44.2433C1358.97 -49.8472 1362.48 -55.4511 1366.02 -61.0399C1369.26 -66.1842 1373.96 -71.7045 1375.76 -77.5616C1379.02 -88.3424 1366.37 -95.1461 1359.1 -100.124C1348.89 -107.142 1338.19 -113.862 1326.91 -119.001C1318.3 -122.942 1308.78 -126.15 1299.2 -125.399C1288.68 -124.581 1280.33 -118.971 1273.99 -110.733C1266.49 -100.941 1261.02 -89.1996 1256.21 -77.8895C1252.28 -68.6455 1245.88 -57.2078 1254.27 -48.575C1258.82 -43.8946 1265.13 -40.5537 1270.46 -36.896C1276.75 -32.5986 1283.07 -28.2862 1289.37 -23.9888C1300.61 -16.3263 1312.24 -8.67643 1325.84 -6.12684C1330.51 -5.26768 1332.47 -12.4027 1327.78 -13.277L1327.76 -13.3582Z" fill="#FFFCF4"/>
</g>
<g clip-path="url(#clip3_63_21288)">
<path d="M848.663 349.637C858.559 332.374 868.43 315.095 878.341 297.807L892.98 272.221L899.94 260.077L903.62 253.676C904.067 252.941 904.774 251.949 905.068 251.121C905.825 249.188 905.807 248.76 904.327 247.306C876.682 220.488 846.162 196.398 814.159 174.98C798.29 164.368 781.954 154.41 765.253 145.166C756.903 140.544 748.445 136.1 739.904 131.848C733.208 128.509 724.188 122.301 716.414 125.313C709.068 128.135 703.348 136.35 698.53 142.164C692.293 149.683 686.569 157.618 681.115 165.682C670.221 181.784 660.149 198.42 649.824 214.902C607.774 282.005 565.495 348.97 524.054 416.444C503.462 449.998 483.123 483.707 463.283 517.684C453.342 534.677 443.569 551.737 433.882 568.885C429.565 576.564 424.926 584.256 422.316 592.73C419.706 601.204 420.135 608.852 422.42 616.935C424.705 625.018 428.364 632.27 431.961 639.624C435.957 647.809 440.146 655.904 444.515 663.934C453.357 680.162 462.914 695.958 473.186 711.321C483.433 726.668 494.112 742.105 506.53 755.823C518.067 768.589 532.131 779.769 549.394 783.11C563.522 785.831 578.888 782.852 588.948 772.071C594.905 765.699 599.317 757.176 602.572 749.129C603.824 746.039 605.016 742.531 604.171 739.173C603.161 735.057 599.544 732.027 597.023 728.796C580.742 707.875 578.844 678.383 589.722 654.64C595.395 642.269 604.904 631.708 616.91 625.162C630.872 617.514 646.554 616.877 661.113 623.294C668.868 626.721 675.776 631.542 682.352 636.855C688.551 641.87 694.877 647.135 699.215 653.898C707.624 666.949 702.986 682.481 695.318 694.646C682.259 715.399 652.552 736.721 629.075 718.09C617.786 709.15 609.083 693.665 609.384 679.037C609.684 664.408 620.76 652.128 635.568 650.926C650.376 649.724 663.964 661.516 664.993 676.016C665.491 682.978 662.605 690.417 656.295 693.938C649.986 697.458 642.418 696.469 636.249 693.692C623.641 688.01 616.964 673.825 617.04 660.483C617.11 646.234 625.389 634.093 637.53 627.039C649.671 619.985 665.189 618.243 679.082 621.237C682.252 621.913 685.521 622.998 688.77 622.856C693.303 622.661 696.2 619.495 698.568 615.939C703.818 608.098 708.419 599.724 713.227 591.58C733.164 557.731 752.009 523.219 769.752 488.176C778.394 471.088 786.768 453.871 794.912 436.515L795.386 441C783.25 426.76 772.041 410.307 769.117 391.431C766.495 374.576 771.094 355.447 784.355 343.975C797.616 332.502 816.077 332.096 832.208 336.727C848.339 341.358 866.293 351.571 875.046 367.26C882.718 381.009 881.656 398.608 871.137 410.602C858.765 424.731 840.312 419.973 825.723 412.29C811.133 404.606 795.344 392.031 799.145 373.702C800.618 366.584 805.379 359.834 812.519 357.58C816.527 356.303 820.5 357.087 824.604 357.256C828.946 357.431 832.634 356.168 835.759 353.141C841.993 347.112 844.47 337.655 846.483 329.478C849.362 317.873 852.21 306.491 856.741 295.369C861.273 284.247 866.678 273.691 873.16 263.65C877.842 256.4 887.347 246.877 883.81 237.479C882.134 233.027 889.363 231.313 891.028 235.724C893.679 242.746 890.851 249.977 887.198 256.048C882.519 263.75 877.124 270.914 872.76 278.842C867.892 287.713 863.782 296.94 860.484 306.488C857.523 315.025 855.624 323.758 853.405 332.504C850.284 344.794 844.777 361.012 830.703 364.152C823.781 365.705 815.596 361.669 810.151 367.658C805.775 372.457 804.854 380.153 807.317 386.055C810.516 393.721 817.575 398.981 824.477 403.069C831.378 407.158 839.226 411.405 847.369 412.363C862.719 414.16 872.655 400.321 872.72 386.138C872.824 369.83 859.27 357.295 845.875 350.163C832.48 343.032 815.844 338.545 801.021 343.034C783.179 348.428 774.97 367.549 775.838 385.003C776.804 404.356 788.6 421.615 800.761 435.871C801.916 437.232 801.975 438.794 801.235 440.356C784.986 475.057 767.7 509.233 749.353 542.868C740.188 559.673 730.752 576.349 721.063 592.871C716.25 601.081 711.41 609.276 706.419 617.378C702.73 623.393 698.142 629.173 690.647 630.066C683.718 630.886 676.919 627.831 670.072 627.314C663.226 626.797 656.007 627.58 649.311 629.791C636.276 634.082 625.198 644.765 624.527 659.03C623.919 671.703 631.202 687.123 645.26 688.587C653.266 689.426 658.343 683.7 657.575 675.81C656.86 668.404 650.998 661.86 644.125 659.384C637.251 656.909 629.754 658.494 624.254 663.027C618.754 667.559 616.256 674.991 616.9 682.285C618.131 696.109 628.716 713.015 642.605 716.874C654.801 720.259 667.368 713.533 676.259 705.649C685.922 697.124 695.656 684.133 696.343 670.814C696.735 662.901 692.869 656.564 687.45 651.121C682.031 645.679 675.284 640.192 668.557 635.759C654.976 626.815 639.352 622.839 623.993 629.811C599.362 641.003 587.124 669.33 590.861 695.395C591.774 701.673 593.533 707.876 596.277 713.601C599.213 719.755 603.463 724.488 607.528 729.87C612.205 736.076 612.77 742.871 610.089 750.088C607.408 757.304 603.452 764.96 598.891 771.381C580.78 796.904 546.19 795.594 522.061 779.409C507.055 769.322 495.611 755.086 484.937 740.728C474.264 726.37 464.461 711.952 455.17 696.977C445.879 682.002 437.11 666.338 429.065 650.456C422.101 636.686 413.893 621.988 413.074 606.228C412.199 589.186 422.351 574.02 430.384 559.823C439.835 543.121 449.412 526.497 459.117 509.95C478.551 476.871 498.407 444.014 518.476 411.321C558.491 346.138 599.344 281.463 639.953 216.675C650.047 200.573 659.938 184.348 670.363 168.446C680.214 153.375 690.723 137.907 703.688 125.318C708.68 120.477 714.956 116.554 722.194 117.17C729.83 117.82 736.99 122.169 743.711 125.524C760.371 133.806 776.706 142.793 792.625 152.463C824.338 171.728 854.455 193.562 882.627 217.682C889.875 223.889 896.99 230.258 903.972 236.789C906.695 239.345 910.4 241.943 912.321 245.19C914.241 248.438 913.095 251.87 911.431 254.952C902.341 271.803 892.393 288.237 882.856 304.851C873.32 321.465 864.301 337.284 855.026 353.468C852.649 357.609 846.302 353.753 848.678 349.612L848.663 349.637Z" fill="#FFFCF4"/>
<path d="M803.114 222C781.034 211.084 758.675 200.797 735.993 191.215C731.033 189.138 725.958 186.506 720.703 185.256C714.95 183.912 711.113 186.68 707.651 191.064C700.235 200.468 693.792 210.845 687.904 221.281C684.926 226.583 682.06 231.988 679.454 237.48C677.48 241.588 675.504 246.042 675.432 250.681C675.282 261.17 687.088 266.226 694.962 270.315C705.55 275.775 716.321 280.932 727.242 285.728C731.938 287.782 736.82 290.332 741.918 291.209C747.017 292.086 750.758 290.162 754.043 286.642C757.973 282.404 760.64 276.983 763.728 272.13C767.349 266.456 771.157 260.93 775.144 255.512C783.213 244.632 791.983 234.316 801.422 224.614C804.752 221.192 809.84 226.606 806.525 230.004C796.881 239.928 787.907 250.466 779.785 261.662C775.701 267.298 771.805 273.082 768.152 278.98C765.362 283.459 762.769 288.128 759.136 291.991C751.266 300.426 741.284 299.634 731.363 295.48C719.008 290.299 706.854 284.615 694.93 278.551C685.653 273.852 673.837 268.928 669.56 258.63C665.284 248.332 671.016 237.523 675.681 228.355C681.955 215.968 689.189 204.06 697.215 192.736C700.464 188.189 703.7 183.148 708.486 180.02C713.271 176.891 718.628 176.885 723.835 178.384C730.513 180.324 736.99 183.565 743.363 186.292C750.341 189.282 757.313 192.339 764.255 195.445C778.626 201.886 792.853 208.621 806.968 215.6C811.245 217.713 807.372 224.032 803.12 221.934L803.114 222Z" fill="#FFFCF4"/>
<path d="M710.527 350.323C703.681 341.794 694.526 336.094 685.017 330.976C674.833 325.483 664.479 320.268 654.202 314.927C650.29 312.898 646.031 309.894 641.661 309.078C636.461 308.139 633.046 313.418 630.071 316.883C622.623 325.54 615.813 334.861 609.938 344.647C605.008 352.821 600.953 362.012 603.751 371.655C605.971 379.386 611.804 385.635 617.81 390.74C625.637 397.368 634.717 402.676 643.621 407.703C648.309 410.343 653.074 412.856 657.915 415.243C661.477 416.99 667.889 421.197 671.491 417.558C673.378 415.652 674.537 412.714 675.846 410.388C677.556 407.402 679.25 404.442 680.933 401.442C684.09 395.902 687.232 390.387 690.389 384.847C696.949 373.362 703.483 361.861 710.043 350.376C712.394 346.22 718.742 350.076 716.391 354.232C709.733 365.935 703.05 377.623 696.392 389.327C693.112 395.069 689.832 400.812 686.578 406.57C683.575 411.856 680.932 418.61 676.619 422.963C668.655 430.924 656.684 422.993 648.86 418.934C637.852 413.252 626.876 407.001 617.016 399.485C609.475 393.759 602.149 386.881 598.283 378.081C594.034 368.423 595.037 358.418 599.302 348.938C604.389 337.703 612.151 327.329 619.848 317.749C626.136 309.914 633.193 298.87 644.768 302.19C651.043 303.99 656.968 307.97 662.708 310.937C669.47 314.455 676.257 317.989 683.018 321.506C695.083 327.795 707.32 334.431 715.994 345.215C718.956 348.922 713.596 354.026 710.609 350.303L710.527 350.323Z" fill="#FFFCF4"/>
<path d="M640.966 472.898C621.94 457.698 601.26 444.649 579.289 434.181C576.327 432.763 573.334 431.396 570.335 430.095C569.177 429.599 567.988 428.981 566.768 428.586C565.146 428.052 564.666 428.212 563.596 429.573C559.949 434.261 556.905 439.557 553.598 444.486C546.785 454.672 539.737 464.786 533.355 475.234C530.246 480.352 527.314 485.578 524.754 490.995C522.594 495.58 519.088 501.809 520.154 507.035C521.22 512.262 526.229 517.004 530.155 520.499C534.43 524.275 539.279 527.394 544.138 530.381C554.705 536.904 565.411 543.2 576.132 549.47C578.676 550.946 581.231 552.463 583.79 553.914C584.349 554.253 585.755 555.315 586.432 555.172C587.274 554.989 588.246 552.874 588.671 552.231C591.994 547.104 595.317 541.977 598.64 536.851C613.942 513.263 629.219 489.661 644.537 466.048C647.142 462.046 653.489 465.902 650.884 469.904C635.582 493.491 620.305 517.094 604.988 540.707C601.224 546.502 597.687 552.609 593.634 558.194C590.304 562.762 585.967 563.492 581.024 560.871C568.741 554.311 556.886 546.762 544.988 539.569C534.324 533.091 522.887 526.282 515.94 515.575C508.992 504.868 515.33 492.832 520.627 482.626C527.033 470.249 535.069 458.794 542.796 447.219C546.682 441.394 550.594 435.584 554.48 429.759C557.315 425.55 560.079 420.257 565.927 420.757C568.905 421.005 571.856 422.728 574.544 423.91C578.081 425.469 581.587 427.079 585.047 428.765C592.186 432.234 599.221 435.988 606.078 439.979C619.612 447.854 632.516 456.768 644.763 466.533C648.442 469.461 644.629 475.851 640.916 472.867L640.966 472.898Z" fill="#FFFCF4"/>
<path d="M565.702 592.042C554.259 584.501 542.477 577.517 530.321 571.208C524.25 568.04 518.097 565.065 511.852 562.243C509.372 561.118 506.61 559.37 503.84 560.497C501.289 561.549 498.967 563.712 496.856 565.412C478.151 580.411 465.051 602.319 461.211 626.035C460.258 631.839 460.114 637.683 462.38 643.222C464.646 648.761 468.107 653.708 471.303 658.632C478.412 669.645 486.058 680.291 494.23 690.528C498.28 695.59 502.418 700.566 506.699 705.421C508.7 707.677 510.701 709.934 512.733 712.139C513.797 713.306 514.829 714.696 516.026 715.701C517.924 717.27 518.465 717.009 520.047 715.091C528.741 704.555 533.496 691.349 537.532 678.469C542.017 664.163 546.075 649.701 549.817 635.186C553.56 620.671 556.143 605.833 564.388 593.29C567.003 589.329 573.366 593.16 570.736 597.146C562.49 609.689 560.119 625.037 556.408 639.328C552.697 653.619 548.503 668.762 543.804 683.251C539.409 696.779 533.929 711.522 523.87 721.957C522.197 723.681 519.914 725.208 517.384 725.024C513.821 724.767 511.472 721.71 509.233 719.274C504.358 714.024 499.586 708.662 494.972 703.153C485.709 692.08 477.018 680.523 468.961 668.552C461.855 657.991 453.016 646.621 453.102 633.319C453.188 620.017 457.676 607.307 463.201 595.922C468.727 584.537 477.12 573.125 486.912 564.158C491.432 560.036 497.412 554.026 503.625 552.84C506.805 552.24 509.693 553.265 512.549 554.515C516.279 556.156 519.963 557.874 523.657 559.632C539.53 567.263 554.832 576.004 569.525 585.693C573.495 588.313 569.672 594.662 565.677 592.027L565.702 592.042Z" fill="#FFFCF4"/>
</g>
<g clip-path="url(#clip4_63_21288)">
<path d="M1744.66 149.338C1754.56 132.075 1764.43 114.796 1774.34 97.5076L1788.98 71.9219L1795.94 59.7779L1799.62 53.3765C1800.07 52.6418 1800.77 51.6492 1801.07 50.8219C1801.83 48.8886 1801.81 48.4612 1800.33 47.0069C1772.68 20.1886 1742.16 -3.90122 1710.16 -25.3196C1694.29 -35.9313 1677.95 -45.8898 1661.25 -55.1333C1652.9 -59.7551 1644.45 -64.1995 1635.9 -68.4511C1629.21 -71.7905 1620.19 -77.9986 1612.41 -74.9861C1605.07 -72.1641 1599.35 -63.9495 1594.53 -58.1354C1588.29 -50.616 1582.57 -42.6813 1577.12 -34.6176C1566.22 -18.5157 1556.15 -1.87942 1545.82 14.6026C1503.77 81.7061 1461.5 148.671 1420.05 216.145C1399.46 249.699 1379.12 283.408 1359.28 317.384C1349.34 334.378 1339.57 351.438 1329.88 368.585C1325.57 376.265 1320.93 383.957 1318.32 392.431C1315.71 400.904 1316.14 408.553 1318.42 416.636C1320.71 424.718 1324.36 431.971 1327.96 439.324C1331.96 447.51 1336.15 455.605 1340.52 463.635C1349.36 479.863 1358.91 495.659 1369.19 511.021C1379.43 526.369 1390.11 541.805 1402.53 555.523C1414.07 568.29 1428.13 579.47 1445.39 582.811C1459.52 585.531 1474.89 582.552 1484.95 571.771C1490.9 565.4 1495.32 556.877 1498.57 548.829C1499.82 545.739 1501.02 542.232 1500.17 538.874C1499.16 534.757 1495.54 531.728 1493.02 528.496C1476.74 507.576 1474.84 478.084 1485.72 454.341C1491.4 441.97 1500.9 431.409 1512.91 424.863C1526.87 417.215 1542.55 416.578 1557.11 422.995C1564.87 426.422 1571.78 431.243 1578.35 436.556C1584.55 441.57 1590.88 446.835 1595.22 453.599C1603.62 466.65 1598.99 482.182 1591.32 494.347C1578.26 515.099 1548.55 536.422 1525.08 517.79C1513.79 508.851 1505.08 493.366 1505.38 478.737C1505.68 464.109 1516.76 451.829 1531.57 450.626C1546.38 449.424 1559.96 461.217 1560.99 475.716C1561.49 482.679 1558.61 490.118 1552.3 493.638C1545.99 497.159 1538.42 496.169 1532.25 493.393C1519.64 487.711 1512.96 473.526 1513.04 460.183C1513.11 445.935 1521.39 433.794 1533.53 426.74C1545.67 419.686 1561.19 417.944 1575.08 420.938C1578.25 421.614 1581.52 422.698 1584.77 422.556C1589.3 422.362 1592.2 419.196 1594.57 415.64C1599.82 407.799 1604.42 399.424 1609.23 391.28C1629.16 357.432 1648.01 322.92 1665.75 287.877C1674.39 270.789 1682.77 253.572 1690.91 236.216L1691.39 240.701C1679.25 226.46 1668.04 210.008 1665.12 191.132C1662.5 174.276 1667.09 155.148 1680.36 143.675C1693.62 132.202 1712.08 131.797 1728.21 136.428C1744.34 141.059 1762.29 151.272 1771.05 166.961C1778.72 180.709 1777.66 198.309 1767.14 210.303C1754.77 224.432 1736.31 219.674 1721.72 211.99C1707.13 204.307 1691.34 191.732 1695.15 173.402C1696.62 166.285 1701.38 159.534 1708.52 157.281C1712.53 156.004 1716.5 156.788 1720.6 156.956C1724.95 157.132 1728.63 155.868 1731.76 152.841C1737.99 146.812 1740.47 137.356 1742.48 129.179C1745.36 117.573 1748.21 106.191 1752.74 95.0696C1757.27 83.9478 1762.68 73.3912 1769.16 63.3502C1773.84 56.1006 1783.35 46.5775 1779.81 37.1794C1778.13 32.7276 1785.36 31.0138 1787.03 35.4248C1789.68 42.4467 1786.85 49.6777 1783.2 55.7486C1778.52 63.4509 1773.12 70.6145 1768.76 78.5427C1763.89 87.4139 1759.78 96.6409 1756.48 106.189C1753.52 114.726 1751.62 123.459 1749.41 132.204C1746.28 144.495 1740.78 160.713 1726.7 163.853C1719.78 165.406 1711.6 161.37 1706.15 167.358C1701.78 172.158 1700.85 179.854 1703.32 185.755C1706.52 193.422 1713.58 198.681 1720.48 202.77C1727.38 206.858 1735.23 211.105 1743.37 212.063C1758.72 213.861 1768.66 200.022 1768.72 185.839C1768.82 169.531 1755.27 156.996 1741.88 149.864C1728.48 142.733 1711.84 138.246 1697.02 142.734C1679.18 148.129 1670.97 167.25 1671.84 184.704C1672.8 204.056 1684.6 221.316 1696.76 235.572C1697.92 236.932 1697.98 238.494 1697.24 240.056C1680.99 274.758 1663.7 308.934 1645.35 342.569C1636.19 359.374 1626.75 376.05 1617.06 392.572C1612.25 400.782 1607.41 408.977 1602.42 417.079C1598.73 423.094 1594.14 428.874 1586.65 429.767C1579.72 430.587 1572.92 427.532 1566.07 427.015C1559.23 426.498 1552.01 427.281 1545.31 429.491C1532.28 433.783 1521.2 444.466 1520.53 458.731C1519.92 471.404 1527.2 486.824 1541.26 488.287C1549.27 489.127 1554.34 483.401 1553.57 475.511C1552.86 468.105 1547 461.561 1540.13 459.085C1533.25 456.609 1525.75 458.194 1520.25 462.727C1514.75 467.26 1512.26 474.692 1512.9 481.986C1514.13 495.81 1524.72 512.716 1538.61 516.575C1550.8 519.96 1563.37 513.234 1572.26 505.35C1581.92 496.825 1591.66 483.834 1592.34 470.515C1592.74 462.602 1588.87 456.264 1583.45 450.822C1578.03 445.38 1571.28 439.893 1564.56 435.46C1550.98 426.516 1535.35 422.539 1519.99 429.512C1495.36 440.703 1483.12 469.031 1486.86 495.096C1487.77 501.374 1489.53 507.576 1492.28 513.302C1495.21 519.455 1499.46 524.188 1503.53 529.571C1508.21 535.777 1508.77 542.572 1506.09 549.788C1503.41 557.005 1499.45 564.661 1494.89 571.082C1476.78 596.605 1442.19 595.294 1418.06 579.11C1403.06 569.023 1391.61 554.787 1380.94 540.429C1370.26 526.071 1360.46 511.652 1351.17 496.677C1341.88 481.702 1333.11 466.039 1325.07 450.156C1318.1 436.387 1309.89 421.688 1309.07 405.928C1308.2 388.886 1318.35 373.721 1326.38 359.523C1335.84 342.822 1345.41 326.198 1355.12 309.651C1374.55 276.572 1394.41 243.715 1414.48 211.022C1454.49 145.838 1495.34 81.1637 1535.95 16.3757C1546.05 0.273745 1555.94 -15.9516 1566.36 -31.8531C1576.21 -46.924 1586.72 -62.3925 1599.69 -74.9812C1604.68 -79.8226 1610.96 -83.7452 1618.19 -83.129C1625.83 -82.4798 1632.99 -78.1302 1639.71 -74.7754C1656.37 -66.4936 1672.71 -57.5067 1688.63 -47.8358C1720.34 -28.5711 1750.46 -6.73749 1778.63 17.383C1785.88 23.59 1792.99 29.9589 1799.97 36.4897C1802.7 39.0456 1806.4 41.6434 1808.32 44.8911C1810.24 48.1388 1809.1 51.5703 1807.43 54.6526C1798.34 71.5038 1788.39 87.9373 1778.86 104.552C1769.32 121.166 1760.3 136.985 1751.03 153.168C1748.65 157.309 1742.3 153.453 1744.68 149.312L1744.66 149.338Z" fill="#FFFCF4"/>
<path d="M1536.97 272.598C1517.94 257.398 1497.26 244.349 1475.29 233.882C1472.33 232.464 1469.33 231.097 1466.34 229.795C1465.18 229.3 1463.99 228.682 1462.77 228.287C1461.15 227.753 1460.67 227.912 1459.6 229.274C1455.95 233.961 1452.91 239.258 1449.6 244.186C1442.79 254.373 1435.74 264.486 1429.36 274.935C1426.25 280.053 1423.31 285.279 1420.75 290.695C1418.59 295.28 1415.09 301.51 1416.15 306.736C1417.22 311.962 1422.23 316.705 1426.16 320.2C1430.43 323.976 1435.28 327.095 1440.14 330.082C1450.71 336.605 1461.41 342.9 1472.13 349.17C1474.68 350.647 1477.23 352.164 1479.79 353.615C1480.35 353.954 1481.76 355.016 1482.43 354.873C1483.27 354.69 1484.25 352.575 1484.67 351.932C1487.99 346.805 1491.32 341.678 1494.64 336.551C1509.94 312.964 1525.22 289.361 1540.54 265.749C1543.14 261.747 1549.49 265.603 1546.88 269.605C1531.58 293.192 1516.31 316.795 1500.99 340.407C1497.22 346.203 1493.69 352.31 1489.63 357.895C1486.3 362.462 1481.97 363.192 1477.02 360.571C1464.74 354.012 1452.89 346.463 1440.99 339.27C1430.32 332.791 1418.89 325.983 1411.94 315.276C1404.99 304.569 1411.33 292.533 1416.63 282.326C1423.03 269.95 1431.07 258.494 1438.8 246.92C1442.68 241.095 1446.59 235.285 1450.48 229.46C1453.32 225.25 1456.08 219.957 1461.93 220.458C1464.91 220.706 1467.86 222.429 1470.54 223.611C1474.08 225.17 1477.59 226.78 1481.05 228.465C1488.19 231.935 1495.22 235.688 1502.08 239.68C1515.61 247.555 1528.52 256.469 1540.76 266.233C1544.44 269.162 1540.63 275.552 1536.92 272.568L1536.97 272.598Z" fill="#FFFCF4"/>
<path d="M1461.7 391.743C1450.26 384.202 1438.48 377.218 1426.32 370.908C1420.25 367.741 1414.1 364.766 1407.85 361.943C1405.37 360.818 1402.61 359.071 1399.84 360.198C1397.29 361.25 1394.97 363.412 1392.86 365.113C1374.15 380.112 1361.05 402.019 1357.21 425.736C1356.26 431.539 1356.11 437.384 1358.38 442.923C1360.65 448.462 1364.11 453.408 1367.3 458.333C1374.41 469.346 1382.06 479.991 1390.23 490.228C1394.28 495.29 1398.42 500.267 1402.7 505.122C1404.7 507.378 1406.7 509.634 1408.73 511.84C1409.8 513.006 1410.83 514.397 1412.03 515.402C1413.92 516.97 1414.47 516.709 1416.05 514.791C1424.74 504.256 1429.5 491.05 1433.53 478.17C1438.02 463.863 1442.08 449.401 1445.82 434.886C1449.56 420.371 1452.14 405.534 1460.39 392.991C1463 389.03 1469.37 392.86 1466.74 396.847C1458.49 409.39 1456.12 424.738 1452.41 439.029C1448.7 453.32 1444.5 468.463 1439.8 482.951C1435.41 496.48 1429.93 511.223 1419.87 521.658C1418.2 523.382 1415.91 524.909 1413.38 524.725C1409.82 524.468 1407.47 521.411 1405.23 518.975C1400.36 513.724 1395.59 508.362 1390.97 502.854C1381.71 491.781 1373.02 480.223 1364.96 468.253C1357.86 457.692 1349.02 446.322 1349.1 433.02C1349.19 419.717 1353.68 407.008 1359.2 395.623C1364.73 384.238 1373.12 372.826 1382.91 363.859C1387.43 359.737 1393.41 353.727 1399.63 352.541C1402.81 351.94 1405.69 352.966 1408.55 354.215C1412.28 355.857 1415.96 357.575 1419.66 359.333C1435.53 366.964 1450.83 375.705 1465.53 385.393C1469.5 388.013 1465.67 394.363 1461.68 391.728L1461.7 391.743Z" fill="#FFFCF4"/>
</g>
<g clip-path="url(#clip5_63_21288)">
<path d="M316.659 -52.6096C326.555 -69.8727 336.426 -87.1513 346.338 -104.44L360.977 -130.025L367.937 -142.169L371.617 -148.571C372.063 -149.306 372.771 -150.298 373.065 -151.125C373.822 -153.059 373.804 -153.486 372.323 -154.94C344.678 -181.759 314.159 -205.848 282.156 -227.267C266.286 -237.879 249.95 -247.837 233.25 -257.081C224.899 -261.702 216.441 -266.147 207.901 -270.398C201.205 -273.738 192.184 -279.946 184.41 -276.933C177.065 -274.111 171.345 -265.897 166.526 -260.083C160.29 -252.563 154.566 -244.629 149.111 -236.565C138.217 -220.463 128.146 -203.827 117.821 -187.345C75.7703 -120.241 33.4915 -53.2764 -7.94947 14.1973C-28.5418 47.7518 -48.8803 81.4606 -68.7209 115.437C-78.6616 132.43 -88.4346 149.491 -98.1214 166.638C-102.439 174.317 -107.077 182.01 -109.687 190.483C-112.297 198.957 -111.869 206.606 -109.583 214.688C-107.298 222.771 -103.639 230.023 -100.042 237.377C-96.0465 245.562 -91.8569 253.657 -87.4888 261.687C-78.6464 277.916 -69.0892 293.711 -58.8171 309.074C-48.5703 324.421 -37.8912 339.858 -25.4729 353.576C-13.9364 366.342 0.128004 377.523 17.3903 380.864C31.5186 383.584 46.8848 380.605 56.9449 369.824C62.9011 363.452 67.314 354.929 70.5688 346.882C71.8202 343.792 73.0125 340.285 72.1672 336.927C71.1574 332.81 67.5405 329.78 65.0193 326.549C48.7384 305.628 46.8408 276.137 57.7187 252.394C63.3916 240.023 72.9007 229.462 84.9071 222.916C98.8687 215.268 114.55 214.631 129.11 221.047C136.865 224.475 143.773 229.296 150.348 234.608C156.548 239.623 162.874 244.888 167.212 251.651C175.621 264.703 170.983 280.234 163.314 292.399C150.256 313.152 120.548 334.475 97.0718 315.843C85.7826 306.904 77.0794 291.419 77.3802 276.79C77.681 262.162 88.7562 249.881 103.564 248.679C118.372 247.477 131.961 259.269 132.989 273.769C133.487 280.731 130.602 288.171 124.292 291.691C117.982 295.212 110.415 294.222 104.246 291.446C91.638 285.764 84.9606 271.579 85.0366 258.236C85.1065 243.987 93.3855 231.847 105.527 224.793C117.668 217.738 133.186 215.996 147.079 218.99C150.248 219.667 153.517 220.751 156.767 220.609C161.3 220.414 164.196 217.248 166.565 213.692C171.815 205.851 176.416 197.477 181.224 189.333C201.161 155.484 220.006 120.972 237.748 85.9293C246.391 68.8413 254.764 51.6244 262.909 34.2686L263.383 38.7534C251.247 24.5131 240.038 8.06083 237.114 -10.8157C234.492 -27.6708 239.091 -46.7992 252.352 -58.272C265.613 -69.7448 284.073 -70.1503 300.204 -65.5194C316.335 -60.8884 334.29 -50.6753 343.043 -34.9866C350.715 -21.2379 349.652 -3.63834 339.133 8.35565C326.761 22.4845 308.309 17.7267 293.719 10.0432C279.13 2.35968 263.341 -10.2151 267.141 -28.5449C268.615 -35.6625 273.376 -42.413 280.515 -44.6665C284.523 -45.9431 288.497 -45.1597 292.6 -44.9909C296.943 -44.8155 300.63 -46.0789 303.755 -49.106C309.99 -55.1349 312.467 -64.5912 314.48 -72.7685C317.359 -84.374 320.206 -95.7558 324.738 -106.878C329.27 -117.999 334.675 -128.556 341.157 -138.597C345.839 -145.847 355.343 -155.37 351.806 -164.768C350.131 -169.22 357.359 -170.933 359.024 -166.522C361.676 -159.501 358.848 -152.27 355.194 -146.199C350.515 -138.496 345.121 -131.333 340.756 -123.405C335.889 -114.533 331.778 -105.306 328.481 -95.7587C325.519 -87.2212 323.621 -78.4887 321.402 -69.743C318.28 -57.4523 312.773 -41.2344 298.7 -38.0944C291.778 -36.5415 283.593 -40.5771 278.147 -34.589C273.772 -29.7894 272.851 -22.0935 275.314 -16.1919C278.512 -8.52554 285.572 -3.26598 292.473 0.822515C299.375 4.91101 307.223 9.15819 315.366 10.1159C330.715 11.9135 340.652 -1.92576 340.716 -16.1081C340.821 -32.4166 327.267 -44.9517 313.872 -52.0832C300.476 -59.2147 283.84 -63.7014 269.017 -59.213C251.176 -53.8182 242.967 -34.6976 243.834 -17.2434C244.8 2.10896 256.596 19.3688 268.758 33.6245C269.913 34.985 269.972 36.5472 269.231 38.1092C252.982 72.8108 235.697 106.987 217.35 140.622C208.184 157.427 198.749 174.103 189.06 190.624C184.246 198.835 179.407 207.029 174.416 215.132C170.727 221.146 166.138 226.926 158.644 227.819C151.715 228.64 144.915 225.585 138.069 225.068C131.222 224.551 124.003 225.333 117.307 227.544C104.272 231.835 93.1944 242.518 92.5235 256.783C91.9158 269.456 99.1986 284.876 113.256 286.34C121.262 287.18 126.34 281.454 125.571 273.564C124.856 266.158 118.995 259.614 112.121 257.138C105.248 254.662 97.7504 256.247 92.2507 260.78C86.751 265.313 84.2525 272.744 84.8966 280.038C86.1271 293.863 96.713 310.769 110.602 314.627C122.797 318.012 135.365 311.286 144.256 303.402C153.919 294.877 163.653 281.886 164.34 268.568C164.732 260.655 160.865 254.317 155.447 248.875C150.028 243.432 143.281 237.946 136.554 233.513C122.973 224.569 107.348 220.592 91.9894 227.565C67.359 238.756 55.121 267.084 58.8571 293.148C59.7706 299.427 61.5297 305.629 64.2737 311.354C67.2093 317.508 71.46 322.241 75.5245 327.624C80.2013 333.829 80.7662 340.624 78.0854 347.841C75.4047 355.058 71.449 362.714 66.8878 369.135C48.7762 394.658 14.1865 393.347 -9.94248 377.163C-24.9488 367.076 -36.3921 352.84 -47.066 338.482C-57.7398 324.124 -67.5427 309.705 -76.8338 294.73C-86.1249 279.755 -94.8935 264.092 -102.938 248.209C-109.902 234.439 -118.11 219.741 -118.93 203.981C-119.804 186.939 -109.653 171.773 -101.619 157.576C-92.1686 140.875 -82.5911 124.251 -72.8867 107.703C-53.4524 74.6248 -33.5965 41.7675 -13.5275 9.07444C26.4875 -56.1091 67.3402 -120.784 107.949 -185.572C118.044 -201.674 127.935 -217.899 138.36 -233.8C148.21 -248.871 158.719 -264.34 171.685 -276.929C176.677 -281.77 182.953 -285.692 190.191 -285.076C197.826 -284.427 204.986 -280.077 211.708 -276.723C228.367 -268.441 244.702 -259.454 260.622 -249.783C292.334 -230.518 322.452 -208.685 350.623 -184.564C357.872 -178.357 364.987 -171.988 371.969 -165.458C374.692 -162.902 378.397 -160.304 380.317 -157.056C382.237 -153.808 381.091 -150.377 379.428 -147.295C370.338 -130.444 360.39 -114.01 350.853 -97.3957C341.316 -80.7814 332.297 -64.9625 323.022 -48.7789C320.646 -44.638 314.298 -48.4941 316.675 -52.635L316.659 -52.6096Z" fill="#FFFCF4"/>
<path d="M178.523 -51.924C171.677 -60.4532 162.522 -66.1535 153.013 -71.271C142.829 -76.7643 132.475 -81.9788 122.198 -87.32C118.286 -89.3494 114.027 -92.3527 109.657 -93.1692C104.457 -94.1081 101.042 -88.8292 98.0676 -85.3637C90.6192 -76.7075 83.8094 -67.3858 77.9344 -57.6004C73.0037 -49.4265 68.9493 -40.2348 71.7468 -30.5921C73.9674 -22.8607 79.8 -16.612 85.8058 -11.5067C93.6327 -4.87894 102.713 0.429185 111.617 5.45638C116.305 8.09612 121.07 10.6092 125.912 12.9956C129.473 14.7429 135.885 18.9504 139.487 15.3108C141.374 13.4051 142.533 10.4671 143.843 8.1405C145.552 5.15518 147.246 2.19519 148.93 -0.805562C152.086 -6.34549 155.228 -11.8601 158.385 -17.4C164.945 -28.8852 171.479 -40.3859 178.039 -51.8711C180.39 -56.0275 186.738 -52.1714 184.387 -48.0151C177.729 -36.3118 171.046 -24.6238 164.388 -12.9205C161.108 -7.17785 157.828 -1.43522 154.574 4.32282C151.571 9.60939 148.928 16.3633 144.615 20.7156C136.651 28.6767 124.68 20.7455 116.856 16.6866C105.848 11.005 94.8721 4.75378 85.0124 -2.76204C77.4716 -8.4876 70.1448 -15.3665 66.2792 -24.1666C62.0306 -33.8236 63.0334 -43.8286 67.2979 -53.309C72.3851 -64.5442 80.1468 -74.9179 87.8438 -84.4983C94.1325 -92.3328 101.19 -103.377 112.764 -100.058C119.039 -98.2572 124.964 -94.2767 130.704 -91.3097C137.466 -87.7918 144.253 -84.2586 151.014 -80.7407C163.08 -74.452 175.316 -67.8163 183.99 -57.032C186.952 -53.3248 181.592 -48.2213 178.605 -51.9438L178.523 -51.924Z" fill="#FFFCF4"/>
<path d="M108.962 70.6511C89.9363 55.451 69.2556 42.4022 47.2851 31.9345C44.3228 30.5166 41.3298 29.1493 38.3314 27.8481C37.1727 27.3523 35.9839 26.7343 34.7636 26.3398C33.1417 25.8054 32.6623 25.9651 31.5919 27.3267C27.945 32.0139 24.9012 37.3104 21.5944 42.2389C14.7807 52.4253 7.73303 62.539 1.35092 72.9877C-1.75818 78.1057 -4.68952 83.3316 -7.25003 88.7482C-9.40957 93.333 -12.9158 99.5626 -11.8499 104.789C-10.784 110.015 -5.7746 114.758 -1.84922 118.252C2.42622 122.029 7.27498 125.148 12.1345 128.135C22.7015 134.658 33.4069 140.953 44.1278 147.223C46.6722 148.699 49.2266 150.216 51.7864 151.667C52.345 152.007 53.7507 153.069 54.4286 152.926C55.2696 152.743 56.2416 150.628 56.6672 149.984C59.9902 144.858 63.3132 139.731 66.6362 134.604C81.9384 111.017 97.2151 87.414 112.533 63.8014C115.138 59.7993 121.485 63.6553 118.88 67.6574C103.578 91.2447 88.3013 114.847 72.9838 138.46C69.2198 144.255 65.6836 150.363 61.6303 155.948C58.2997 160.515 53.963 161.245 49.0203 158.624C36.7375 152.064 24.8818 144.515 12.9838 137.322C2.31991 130.844 -9.11648 124.035 -16.0643 113.328C-23.0121 102.621 -16.6737 90.5852 -11.3773 80.3789C-4.97114 68.0025 3.06541 56.547 10.7919 44.9726C14.6782 39.1474 18.5899 33.3376 22.4762 27.5124C25.3113 23.3032 28.0749 18.01 33.9234 18.5105C36.9012 18.7585 39.8518 20.4816 42.5402 21.6638C46.0772 23.2228 49.5834 24.8324 53.0434 26.5181C60.182 29.9875 67.2175 33.7411 74.0736 37.7327C87.6082 45.6078 100.512 54.5218 112.76 64.2861C116.438 67.2144 112.625 73.6048 108.912 70.6203L108.962 70.6511Z" fill="#FFFCF4"/>
<path d="M33.6984 189.796C22.2552 182.254 10.4733 175.271 -1.68336 168.961C-7.75399 165.794 -13.907 162.819 -20.1523 159.996C-22.6321 158.871 -25.3943 157.124 -28.1644 158.251C-30.7152 159.303 -33.0369 161.465 -35.1476 163.166C-53.8529 178.165 -66.9527 200.072 -70.7932 223.789C-71.7463 229.592 -71.89 235.436 -69.6238 240.975C-67.3576 246.514 -63.8971 251.461 -60.7013 256.385C-53.5919 267.399 -45.9463 278.044 -37.7742 288.281C-33.7236 293.343 -29.586 298.319 -25.3053 303.174C-23.3042 305.431 -21.3031 307.687 -19.2712 309.892C-18.2071 311.059 -17.1747 312.45 -15.9775 313.454C-14.0802 315.023 -13.5393 314.762 -11.9571 312.844C-3.26279 302.309 1.49221 289.103 5.52774 276.223C10.0128 261.916 14.0708 247.454 17.8133 232.939C21.5559 218.424 24.1389 203.587 32.3841 191.044C34.9991 187.082 41.362 190.913 38.7316 194.9C30.4865 207.443 28.115 222.79 24.404 237.082C20.6931 251.373 16.4995 266.516 11.7998 281.004C7.40487 294.533 1.9249 309.276 -8.13364 319.711C-9.8066 321.435 -12.0897 322.962 -14.6196 322.777C-18.1829 322.521 -20.5317 319.463 -22.7713 317.028C-27.646 311.777 -32.4184 306.415 -37.0322 300.907C-46.2952 289.834 -54.9858 278.276 -63.043 266.305C-70.1493 255.745 -78.9883 244.374 -78.9023 231.072C-78.8163 217.77 -74.3284 205.061 -68.8026 193.676C-63.2768 182.291 -54.884 170.878 -45.0918 161.912C-40.5717 157.79 -34.5917 151.779 -28.379 150.593C-25.1988 149.993 -22.3112 151.019 -19.4551 152.268C-15.725 153.91 -12.0411 155.627 -8.34714 157.386C7.52581 165.017 22.8285 173.758 37.5209 183.446C41.491 186.066 37.6685 192.416 33.673 189.78L33.6984 189.796Z" fill="#FFFCF4"/>
</g>
<g clip-path="url(#clip6_63_21288)">
<path d="M1212.66 -252.909C1222.56 -270.172 1232.43 -287.451 1242.34 -304.739L1256.98 -330.325L1263.94 -342.469L1267.62 -348.87C1268.06 -349.605 1268.77 -350.597 1269.07 -351.425C1269.82 -353.358 1269.8 -353.785 1268.32 -355.24C1240.68 -382.058 1210.16 -406.148 1178.16 -427.566C1162.29 -438.178 1145.95 -448.136 1129.25 -457.38C1120.9 -462.002 1112.44 -466.446 1103.9 -470.698C1097.21 -474.037 1088.18 -480.245 1080.41 -477.233C1073.07 -474.411 1067.35 -466.196 1062.53 -460.382C1056.29 -452.863 1050.57 -444.928 1045.11 -436.864C1034.22 -420.762 1024.15 -404.126 1013.82 -387.644C971.771 -320.54 929.492 -253.576 888.051 -186.102C867.459 -152.548 847.12 -118.839 827.28 -84.8622C817.339 -67.869 807.566 -50.8085 797.879 -33.6611C793.562 -25.9819 788.923 -18.2895 786.313 -9.81586C783.703 -1.34231 784.132 6.30637 786.417 14.3891C788.702 22.4719 792.361 29.7241 795.958 37.0776C799.954 45.263 804.144 53.3579 808.512 61.3879C817.354 77.6165 826.911 93.4121 837.183 108.775C847.43 124.122 858.109 139.559 870.528 153.277C882.064 166.043 896.128 177.223 913.391 180.564C927.519 183.285 942.885 180.306 952.945 169.525C958.902 163.153 963.314 154.63 966.569 146.583C967.821 143.493 969.013 139.985 968.168 136.627C967.158 132.511 963.541 129.481 961.02 126.25C944.739 105.329 942.841 75.8372 953.719 52.0944C959.392 39.7233 968.901 29.1626 980.908 22.6162C994.869 14.9683 1010.55 14.3313 1025.11 20.7479C1032.87 24.1755 1039.77 28.9966 1046.35 34.309C1052.55 39.3239 1058.87 44.5889 1063.21 51.352C1071.62 64.4034 1066.98 79.9351 1059.31 92.1C1046.26 112.853 1016.55 134.176 993.072 115.544C981.783 106.604 973.08 91.1194 973.381 76.4909C973.682 61.8625 984.757 49.582 999.565 48.3799C1014.37 47.1777 1027.96 58.9702 1028.99 73.4699C1029.49 80.4322 1026.6 87.8713 1020.29 91.3918C1013.98 94.9123 1006.42 93.9226 1000.25 91.1462C987.638 85.4645 980.961 71.2795 981.037 57.9366C981.107 43.6882 989.386 31.5475 1001.53 24.4933C1013.67 17.4391 1029.19 15.6971 1043.08 18.691C1046.25 19.3675 1049.52 20.4517 1052.77 20.3098C1057.3 20.115 1060.2 16.9491 1062.57 13.3932C1067.82 5.55203 1072.42 -2.82229 1077.22 -10.9664C1097.16 -44.8151 1116.01 -79.327 1133.75 -114.37C1142.39 -131.458 1150.76 -148.675 1158.91 -166.031L1159.38 -161.546C1147.25 -175.786 1136.04 -192.238 1133.11 -211.115C1130.49 -227.97 1135.09 -247.099 1148.35 -258.571C1161.61 -270.044 1180.07 -270.45 1196.2 -265.819C1212.34 -261.188 1230.29 -250.975 1239.04 -235.286C1246.72 -221.537 1245.65 -203.938 1235.13 -191.944C1222.76 -177.815 1204.31 -182.573 1189.72 -190.256C1175.13 -197.94 1159.34 -210.514 1163.14 -228.844C1164.62 -235.962 1169.38 -242.712 1176.52 -244.966C1180.52 -246.242 1184.5 -245.459 1188.6 -245.29C1192.94 -245.115 1196.63 -246.378 1199.76 -249.405C1205.99 -255.434 1208.47 -264.89 1210.48 -273.068C1213.36 -284.673 1216.21 -296.055 1220.74 -307.177C1225.27 -318.299 1230.67 -328.855 1237.16 -338.896C1241.84 -346.146 1251.34 -355.669 1247.81 -365.067C1246.13 -369.519 1253.36 -371.233 1255.02 -366.822C1257.68 -359.8 1254.85 -352.569 1251.19 -346.498C1246.52 -338.796 1241.12 -331.632 1236.76 -323.704C1231.89 -314.833 1227.78 -305.606 1224.48 -296.058C1221.52 -287.521 1219.62 -278.788 1217.4 -270.042C1214.28 -257.752 1208.77 -241.534 1194.7 -238.394C1187.78 -236.841 1179.59 -240.876 1174.15 -234.888C1169.77 -230.089 1168.85 -222.393 1171.31 -216.491C1174.51 -208.825 1181.57 -203.565 1188.47 -199.477C1195.38 -195.388 1203.22 -191.141 1211.37 -190.183C1226.72 -188.386 1236.65 -202.225 1236.72 -216.407C1236.82 -232.716 1223.27 -245.251 1209.87 -252.383C1196.48 -259.514 1179.84 -264.001 1165.02 -259.512C1147.18 -254.118 1138.97 -234.997 1139.83 -217.543C1140.8 -198.19 1152.6 -180.931 1164.76 -166.675C1165.91 -165.314 1165.97 -163.752 1165.23 -162.19C1148.98 -127.489 1131.7 -93.3125 1113.35 -59.6774C1104.18 -42.8726 1094.75 -26.1966 1085.06 -9.67488C1080.25 -1.46466 1075.41 6.7301 1070.42 14.8323C1066.73 20.847 1062.14 26.627 1054.64 27.5201C1047.72 28.3404 1040.92 25.2852 1034.07 24.7682C1027.22 24.2512 1020 25.0341 1013.31 27.2447C1000.27 31.536 989.195 42.219 988.524 56.4839C987.916 69.1571 995.199 84.5769 1009.26 86.0406C1017.26 86.8805 1022.34 81.1545 1021.57 73.2646C1020.86 65.8583 1015 59.3143 1008.12 56.8386C1001.25 54.3628 993.751 55.9477 988.251 60.4806C982.751 65.0135 980.253 72.445 980.897 79.7389C982.128 93.5633 992.713 110.47 1006.6 114.328C1018.8 117.713 1031.37 110.987 1040.26 103.103C1049.92 94.5782 1059.65 81.5872 1060.34 68.2685C1060.73 60.3555 1056.87 54.0176 1051.45 48.5753C1046.03 43.133 1039.28 37.6465 1032.55 33.2132C1018.97 24.2695 1003.35 20.2929 987.99 27.2654C963.359 38.4567 951.122 66.7845 954.858 92.8492C955.771 99.1274 957.53 105.33 960.274 111.055C963.21 117.209 967.461 121.942 971.525 127.324C976.202 133.53 976.767 140.325 974.086 147.542C971.405 154.758 967.449 162.414 962.888 168.835C944.777 194.358 910.187 193.048 886.058 176.864C871.052 166.776 859.608 152.54 848.935 138.182C838.261 123.824 828.458 109.406 819.167 94.4307C809.876 79.4558 801.107 63.7924 793.062 47.9098C786.098 34.1402 777.89 19.4418 777.071 3.68187C776.196 -13.3603 786.348 -28.5259 794.381 -42.7233C803.832 -59.4246 813.409 -76.0488 823.114 -92.5959C842.548 -125.675 862.404 -158.532 882.473 -191.225C922.488 -256.408 963.341 -321.083 1003.95 -385.871C1014.04 -401.973 1023.94 -418.198 1034.36 -434.1C1044.21 -449.171 1054.72 -464.639 1067.69 -477.228C1072.68 -482.069 1078.95 -485.992 1086.19 -485.376C1093.83 -484.726 1100.99 -480.377 1107.71 -477.022C1124.37 -468.74 1140.7 -459.753 1156.62 -450.082C1188.33 -430.818 1218.45 -408.984 1246.62 -384.864C1253.87 -378.657 1260.99 -372.288 1267.97 -365.757C1270.69 -363.201 1274.4 -360.603 1276.32 -357.355C1278.24 -354.108 1277.09 -350.676 1275.43 -347.594C1266.34 -330.743 1256.39 -314.309 1246.85 -297.695C1237.32 -281.081 1228.3 -265.262 1219.02 -249.078C1216.65 -244.937 1210.3 -248.793 1212.68 -252.934L1212.66 -252.909Z" fill="#FFFCF4"/>
<path d="M929.699 -10.5036C918.256 -18.0448 906.474 -25.0287 894.317 -31.3383C888.247 -34.5058 882.094 -37.4805 875.848 -40.3032C873.368 -41.4281 870.606 -43.1754 867.836 -42.0486C865.285 -40.9967 862.964 -38.8343 860.853 -37.1335C842.148 -22.1347 829.048 -0.227287 825.207 23.4895C824.254 29.2928 824.11 35.1369 826.377 40.676C828.643 46.2151 832.103 51.1616 835.299 56.0861C842.409 67.0994 850.054 77.7448 858.226 87.9816C862.277 93.0438 866.414 98.0201 870.695 102.875C872.696 105.131 874.697 107.388 876.729 109.593C877.793 110.76 878.826 112.15 880.023 113.155C881.92 114.724 882.461 114.463 884.043 112.545C892.738 102.009 897.493 88.8033 901.528 75.9232C906.013 61.6166 910.071 47.1546 913.814 32.6398C917.556 18.1249 920.139 3.28719 928.385 -9.25553C931 -13.2168 937.362 -9.38616 934.732 -5.3995C926.487 7.14321 924.115 22.491 920.405 36.7822C916.694 51.0734 912.5 66.2162 907.8 80.7046C903.405 94.2335 897.925 108.976 887.867 119.411C886.194 121.135 883.911 122.662 881.381 122.478C877.818 122.221 875.469 119.164 873.229 116.728C868.354 111.478 863.582 106.116 858.968 100.607C849.705 89.5344 841.015 77.9768 832.958 66.0061C825.851 55.4455 817.012 44.0752 817.098 30.773C817.184 17.4708 821.672 4.76157 827.198 -6.62347C832.724 -18.0085 841.116 -29.4209 850.909 -38.3877C855.429 -42.5098 861.409 -48.5199 867.621 -49.7061C870.802 -50.3063 873.689 -49.2805 876.545 -48.0311C880.275 -46.3895 883.959 -44.6719 887.653 -42.9135C903.526 -35.2828 918.829 -26.5417 933.521 -16.8532C937.491 -14.2333 933.669 -7.88372 929.673 -10.519L929.699 -10.5036Z" fill="#FFFCF4"/>
</g>
<g clip-path="url(#clip7_63_21288)">
<path d="M339.366 588.066C349.262 570.803 359.133 553.524 369.045 536.236L383.684 510.65L390.644 498.506L394.324 492.105C394.77 491.37 395.478 490.377 395.772 489.55C396.529 487.617 396.511 487.189 395.03 485.735C367.385 458.917 336.866 434.827 304.863 413.408C288.993 402.797 272.657 392.838 255.957 383.595C247.606 378.973 239.148 374.529 230.608 370.277C223.912 366.938 214.891 360.729 207.117 363.742C199.772 366.564 194.052 374.778 189.233 380.593C182.997 388.112 177.273 396.047 171.818 404.11C160.924 420.212 150.853 436.849 140.528 453.331C98.4773 520.434 56.1985 587.399 14.7576 654.873C-5.83478 688.427 -26.1732 722.136 -46.0139 756.112C-55.9546 773.106 -65.7276 790.166 -75.4144 807.314C-79.7317 814.993 -84.37 822.685 -86.9801 831.159C-89.5901 839.632 -89.1616 847.281 -86.8764 855.364C-84.5912 863.447 -80.9324 870.699 -77.3352 878.052C-73.3395 886.238 -69.1499 894.333 -64.7818 902.363C-55.9394 918.591 -46.3821 934.387 -36.11 949.749C-25.8633 965.097 -15.1842 980.533 -2.76592 994.251C8.77066 1007.02 22.835 1018.2 40.0973 1021.54C54.2256 1024.26 69.5918 1021.28 79.6519 1010.5C85.6081 1004.13 90.021 995.605 93.2758 987.557C94.5273 984.467 95.7195 980.96 94.8743 977.602C93.8644 973.485 90.2475 970.456 87.7263 967.224C71.4454 946.304 69.5479 916.812 80.4257 893.069C86.0986 880.698 95.6077 870.137 107.614 863.591C121.576 855.943 137.257 855.306 151.817 861.723C159.572 865.15 166.48 869.971 173.055 875.284C179.255 880.299 185.581 885.563 189.919 892.327C198.328 905.378 193.69 920.91 186.022 933.075C172.963 953.827 143.255 975.15 119.779 956.518C108.49 947.579 99.7864 932.094 100.087 917.466C100.388 902.837 111.463 890.557 126.271 889.354C141.08 888.152 154.668 899.945 155.696 914.444C156.194 921.407 153.309 928.846 146.999 932.366C140.689 935.887 133.122 934.897 126.953 932.121C114.345 926.439 107.668 912.254 107.744 898.911C107.814 884.663 116.093 872.522 128.234 865.468C140.375 858.414 155.893 856.672 169.786 859.666C172.955 860.342 176.225 861.426 179.474 861.284C184.007 861.09 186.903 857.924 189.272 854.368C194.522 846.527 199.123 838.152 203.931 830.008C223.868 796.16 242.713 761.648 260.455 726.605C269.098 709.517 277.471 692.3 285.616 674.944L286.09 679.429C273.954 665.188 262.745 648.736 259.821 629.86C257.199 613.004 261.798 593.876 275.059 582.403C288.32 570.931 306.78 570.525 322.911 575.156C339.042 579.787 356.997 590 365.75 605.689C373.422 619.437 372.359 637.037 361.84 649.031C349.468 663.16 331.016 658.402 316.427 650.718C301.837 643.035 286.048 630.46 289.848 612.13C291.322 605.013 296.083 598.262 303.222 596.009C307.23 594.732 311.204 595.516 315.307 595.684C319.65 595.86 323.337 594.596 326.462 591.569C332.697 585.54 335.174 576.084 337.187 567.907C340.066 556.301 342.913 544.919 347.445 533.798C351.977 522.676 357.382 512.119 363.864 502.078C368.546 494.829 378.05 485.306 374.513 475.907C372.838 471.456 380.066 469.742 381.732 474.153C384.383 481.175 381.555 488.406 377.901 494.477C373.222 502.179 367.828 509.343 363.464 517.271C358.596 526.142 354.485 535.369 351.188 544.917C348.226 553.454 346.328 562.187 344.109 570.932C340.987 583.223 335.48 599.441 321.407 602.581C314.485 604.134 306.3 600.098 300.854 606.086C296.479 610.886 295.558 618.582 298.021 624.483C301.22 632.15 308.279 637.409 315.18 641.498C322.082 645.586 329.93 649.833 338.073 650.791C353.422 652.589 363.359 638.75 363.423 624.567C363.528 608.259 349.974 595.724 336.579 588.592C323.183 581.461 306.547 576.974 291.724 581.462C273.883 586.857 265.674 605.978 266.541 623.432C267.507 642.784 279.304 660.044 291.465 674.3C292.62 675.66 292.679 677.222 291.938 678.785C275.689 713.486 258.404 747.662 240.057 781.297C230.891 798.102 221.456 814.778 211.767 831.3C206.953 839.51 202.114 847.705 197.123 855.807C193.434 861.822 188.845 867.602 181.351 868.495C174.422 869.315 167.622 866.26 160.776 865.743C153.929 865.226 146.71 866.009 140.014 868.219C126.979 872.511 115.901 883.194 115.231 897.459C114.623 910.132 121.906 925.552 135.963 927.015C143.969 927.855 149.047 922.129 148.278 914.239C147.563 906.833 141.702 900.289 134.828 897.813C127.955 895.337 120.457 896.922 114.958 901.455C109.458 905.988 106.96 913.42 107.604 920.714C108.834 934.538 119.42 951.444 133.309 955.303C145.504 958.688 158.072 951.962 166.963 944.078C176.626 935.553 186.36 922.562 187.047 909.243C187.439 901.33 183.572 894.992 178.154 889.55C172.735 884.108 165.988 878.621 159.261 874.188C145.68 865.244 130.055 861.268 114.696 868.24C90.066 879.431 77.8281 907.759 81.5642 933.824C82.4776 940.102 84.2367 946.304 86.9807 952.03C89.9163 958.183 94.1671 962.916 98.2315 968.299C102.908 974.505 103.473 981.3 100.792 988.516C98.1117 995.733 94.156 1003.39 89.5948 1009.81C71.4833 1035.33 36.8936 1034.02 12.7645 1017.84C-2.24175 1007.75 -13.6851 993.515 -24.3589 979.157C-35.0328 964.799 -44.8357 950.38 -54.1268 935.405C-63.4179 920.43 -72.1864 904.767 -80.231 888.884C-87.1954 875.115 -95.4031 860.416 -96.2225 844.656C-97.0972 827.614 -86.9458 812.449 -78.9121 798.251C-69.4616 781.55 -59.8841 764.926 -50.1796 748.379C-30.7454 715.3 -10.8895 682.443 9.17956 649.75C49.1945 584.566 90.0473 519.892 130.656 455.104C140.751 439.002 150.642 422.776 161.067 406.875C170.917 391.804 181.426 376.336 194.392 363.747C199.384 358.905 205.66 354.983 212.898 355.599C220.533 356.248 227.693 360.598 234.415 363.953C251.074 372.234 267.409 381.221 283.329 390.892C315.041 410.157 345.159 431.991 373.33 456.111C380.579 462.318 387.694 468.687 394.676 475.218C397.399 477.774 401.104 480.371 403.024 483.619C404.945 486.867 403.798 490.298 402.135 493.381C393.045 510.232 383.097 526.665 373.56 543.28C364.023 559.894 355.004 575.713 345.729 591.896C343.353 596.037 337.005 592.181 339.382 588.04L339.366 588.066Z" fill="#FFFCF4"/>
<path d="M293.818 460.429C271.737 449.513 249.379 439.226 226.697 429.644C221.736 427.567 216.661 424.935 211.407 423.685C205.654 422.341 201.817 425.109 198.355 429.492C190.939 438.897 184.496 449.274 178.608 459.71C175.63 465.012 172.764 470.416 170.157 475.909C168.183 480.017 166.208 484.471 166.136 489.11C165.986 499.598 177.792 504.654 185.666 508.744C196.253 514.204 207.025 519.36 217.946 524.156C222.642 526.211 227.524 528.76 232.622 529.638C237.72 530.515 241.461 528.59 244.747 525.071C248.677 520.833 251.344 515.412 254.432 510.559C258.052 504.884 261.861 499.359 265.847 493.941C273.917 483.061 282.686 472.744 292.126 463.043C295.456 459.62 300.544 465.035 297.229 468.432C287.585 478.356 278.611 488.895 270.489 500.091C266.405 505.726 262.508 511.511 258.856 517.409C256.065 521.888 253.473 526.556 249.84 530.42C241.97 538.854 231.988 538.063 222.067 533.909C209.712 528.728 197.557 523.044 185.634 516.98C176.357 512.281 164.54 507.357 160.264 497.059C155.988 486.76 161.72 475.952 166.385 466.784C172.659 454.397 179.893 442.488 187.918 431.165C191.168 426.618 194.404 421.577 199.189 418.449C203.975 415.32 209.332 415.314 214.539 416.812C221.216 418.753 227.694 421.994 234.067 424.721C241.045 427.711 248.017 430.767 254.959 433.874C269.33 440.315 283.557 447.05 297.671 454.028C301.949 456.142 298.076 462.46 293.823 460.363L293.818 460.429Z" fill="#FFFCF4"/>
<path d="M201.231 588.751C194.385 580.222 185.23 574.522 175.721 569.404C165.536 563.911 155.182 558.696 144.905 553.355C140.994 551.326 136.735 548.323 132.365 547.506C127.165 546.567 123.749 551.846 120.775 555.312C113.327 563.968 106.517 573.289 100.642 583.075C95.7112 591.249 91.6568 600.441 94.4543 610.083C96.675 617.815 102.508 624.063 108.513 629.169C116.34 635.796 125.421 641.104 134.324 646.132C139.012 648.771 143.777 651.284 148.619 653.671C152.181 655.418 158.593 659.626 162.194 655.986C164.082 654.08 165.241 651.142 166.55 648.816C168.259 645.83 169.953 642.87 171.637 639.87C174.794 634.33 177.935 628.815 181.092 623.275C187.652 611.79 194.187 600.289 200.747 588.804C203.098 584.648 209.445 588.504 207.094 592.66C200.437 604.364 193.753 616.051 187.096 627.755C183.816 633.497 180.536 639.24 177.281 644.998C174.278 650.285 171.635 657.039 167.323 661.391C159.358 669.352 147.387 661.421 139.564 657.362C128.555 651.68 117.58 645.429 107.72 637.913C100.179 632.188 92.8523 625.309 88.9868 616.509C84.7381 606.852 85.7409 596.847 90.0054 587.366C95.0926 576.131 102.854 565.757 110.551 556.177C116.84 548.343 123.897 537.298 135.472 540.618C141.747 542.418 147.671 546.399 153.412 549.366C160.173 552.883 166.96 556.417 173.722 559.935C185.787 566.223 198.024 572.859 206.697 583.643C209.659 587.35 204.3 592.454 201.312 588.731L201.231 588.751Z" fill="#FFFCF4"/>
<path d="M131.67 711.326C112.644 696.126 91.9631 683.078 69.9926 672.61C67.0304 671.192 64.0373 669.825 61.0389 668.523C59.8802 668.028 58.6914 667.41 57.4711 667.015C55.8492 666.481 55.3698 666.64 54.2994 668.002C50.6525 672.689 47.6088 677.986 44.3019 682.914C37.4882 693.101 30.4405 703.214 24.0584 713.663C20.9493 718.781 18.018 724.007 15.4575 729.423C13.2979 734.008 9.79169 740.238 10.8576 745.464C11.9235 750.69 16.9329 755.433 20.8583 758.928C25.1337 762.704 29.9825 765.823 34.842 768.81C45.409 775.333 56.1144 781.628 66.8353 787.898C69.3797 789.375 71.9341 790.892 74.494 792.343C75.0525 792.682 76.4582 793.744 77.1361 793.601C77.9771 793.418 78.9492 791.303 79.3747 790.66C82.6977 785.533 86.0208 780.406 89.3438 775.279C104.646 751.692 119.923 728.089 135.24 704.477C137.845 700.475 144.193 704.331 141.588 708.333C126.286 731.92 111.009 755.523 95.6913 779.135C91.9273 784.931 88.3911 791.038 84.3378 796.623C81.0072 801.19 76.6705 801.92 71.7278 799.299C59.445 792.74 47.5894 785.191 35.6913 777.998C25.0274 771.519 13.591 764.711 6.64324 754.004C-0.304554 743.297 6.03384 731.261 11.3302 721.054C17.7364 708.678 25.7729 697.222 33.4994 685.648C37.3857 679.823 41.2974 674.013 45.1837 668.188C48.0188 663.979 50.7824 658.685 56.6309 659.186C59.6087 659.434 62.5593 661.157 65.2477 662.339C68.7847 663.898 72.2909 665.508 75.7509 667.193C82.8895 670.663 89.925 674.416 96.7811 678.408C110.316 686.283 123.219 695.197 135.467 704.961C139.146 707.89 135.333 714.28 131.619 711.296L131.67 711.326Z" fill="#FFFCF4"/>
<path d="M56.4059 830.471C44.9627 822.93 33.1808 815.946 21.0242 809.636C14.9535 806.469 8.80057 803.494 2.55524 800.671C0.0754221 799.546 -2.68673 797.799 -5.45687 798.926C-8.0077 799.978 -10.3293 802.14 -12.4401 803.841C-31.1454 818.84 -44.2452 840.747 -48.0856 864.464C-49.0388 870.267 -49.1825 876.112 -46.9163 881.651C-44.6501 887.19 -41.1896 892.136 -37.9938 897.061C-30.8844 908.074 -23.2387 918.719 -15.0667 928.956C-11.0161 934.018 -6.87848 938.995 -2.59777 943.85C-0.596661 946.106 1.40446 948.362 3.43636 950.568C4.50038 951.734 5.53282 953.125 6.72999 954.13C8.62729 955.698 9.16824 955.437 10.7504 953.519C19.4447 942.984 24.1997 929.778 28.2353 916.898C32.7203 902.591 36.7783 888.129 40.5209 873.614C44.2634 859.099 46.8464 844.262 55.0916 831.719C57.7066 827.758 64.0695 831.588 61.4391 835.575C53.194 848.118 50.8225 863.466 47.1116 877.757C43.4006 892.048 39.2071 907.191 34.5073 921.679C30.1124 935.208 24.6324 949.951 14.5739 960.386C12.9009 962.11 10.6178 963.637 8.08789 963.453C4.52459 963.196 2.1758 960.139 -0.0638251 957.703C-4.93851 952.452 -9.71087 947.09 -14.3247 941.582C-23.5877 930.509 -32.2782 918.951 -40.3355 906.981C-47.4418 896.42 -56.2808 885.05 -56.1948 871.748C-56.1088 858.445 -51.6209 845.736 -46.0951 834.351C-40.5692 822.966 -32.1765 811.554 -22.3843 802.587C-17.8642 798.465 -11.8842 792.455 -5.67151 791.269C-2.49131 790.668 0.396303 791.694 3.25237 792.944C6.98249 794.585 10.6664 796.303 14.3604 798.061C30.2333 805.692 45.536 814.433 60.2284 824.121C64.1985 826.741 60.376 833.091 56.3805 830.456L56.4059 830.471Z" fill="#FFFCF4"/>
</g>
<g clip-path="url(#clip8_63_21288)">
<path d="M1235.37 387.766C1245.26 370.503 1255.13 353.225 1265.05 335.936L1279.68 310.351L1286.64 298.207L1290.32 291.805C1290.77 291.07 1291.48 290.078 1291.77 289.251C1292.53 287.317 1292.51 286.89 1291.03 285.436C1263.39 258.617 1232.87 234.527 1200.86 213.109C1184.99 202.497 1168.66 192.539 1151.96 183.295C1143.61 178.674 1135.15 174.229 1126.61 169.978C1119.91 166.638 1110.89 160.43 1103.12 163.443C1095.77 166.265 1090.05 174.479 1085.23 180.293C1079 187.813 1073.27 195.747 1067.82 203.811C1056.92 219.913 1046.85 236.549 1036.53 253.031C994.478 320.135 952.199 387.1 910.758 454.573C890.166 488.128 869.827 521.837 849.987 555.813C840.046 572.806 830.273 589.867 820.586 607.014C816.269 614.693 811.631 622.386 809.02 630.859C806.41 639.333 806.839 646.982 809.124 655.064C811.409 663.147 815.068 670.399 818.665 677.753C822.661 685.938 826.851 694.033 831.219 702.063C840.061 718.292 849.618 734.087 859.89 749.45C870.137 764.797 880.816 780.234 893.235 793.952C904.771 806.718 918.836 817.898 936.098 821.239C950.226 823.96 965.592 820.981 975.652 810.2C981.609 803.828 986.022 795.305 989.276 787.258C990.528 784.168 991.72 780.661 990.875 777.303C989.865 773.186 986.248 770.156 983.727 766.925C967.446 746.004 965.548 716.513 976.426 692.77C982.099 680.399 991.608 669.838 1003.61 663.291C1017.58 655.644 1033.26 655.007 1047.82 661.423C1055.57 664.851 1062.48 669.672 1069.06 674.984C1075.26 679.999 1081.58 685.264 1085.92 692.027C1094.33 705.079 1089.69 720.61 1082.02 732.775C1068.96 753.528 1039.26 774.851 1015.78 756.219C1004.49 747.28 995.787 731.795 996.088 717.166C996.389 702.538 1007.46 690.257 1022.27 689.055C1037.08 687.853 1050.67 699.645 1051.7 714.145C1052.19 721.107 1049.31 728.547 1043 732.067C1036.69 735.588 1029.12 734.598 1022.95 731.822C1010.35 726.14 1003.67 711.955 1003.74 698.612C1003.81 684.363 1012.09 672.223 1024.23 665.169C1036.38 658.114 1051.89 656.372 1065.79 659.366C1068.96 660.043 1072.23 661.127 1075.47 660.985C1080.01 660.79 1082.9 657.624 1085.27 654.068C1090.52 646.227 1095.12 637.853 1099.93 629.709C1119.87 595.86 1138.71 561.348 1156.46 526.305C1165.1 509.217 1173.47 492 1181.62 474.645L1182.09 479.129C1169.95 464.889 1158.75 448.437 1155.82 429.56C1153.2 412.705 1157.8 393.577 1171.06 382.104C1184.32 370.631 1202.78 370.226 1218.91 374.857C1235.04 379.488 1253 389.701 1261.75 405.389C1269.42 419.138 1268.36 436.738 1257.84 448.732C1245.47 462.86 1227.02 458.103 1212.43 450.419C1197.84 442.736 1182.05 430.161 1185.85 411.831C1187.32 404.714 1192.08 397.963 1199.22 395.709C1203.23 394.433 1207.2 395.216 1211.31 395.385C1215.65 395.56 1219.34 394.297 1222.46 391.27C1228.7 385.241 1231.17 375.785 1233.19 367.608C1236.07 356.002 1238.91 344.62 1243.45 333.498C1247.98 322.377 1253.38 311.82 1259.86 301.779C1264.55 294.529 1274.05 285.006 1270.51 275.608C1268.84 271.156 1276.07 269.443 1277.73 273.854C1280.38 280.875 1277.56 288.106 1273.9 294.177C1269.22 301.88 1263.83 309.043 1259.46 316.971C1254.6 325.843 1250.49 335.07 1247.19 344.617C1244.23 353.155 1242.33 361.887 1240.11 370.633C1236.99 382.924 1231.48 399.142 1217.41 402.282C1210.49 403.835 1202.3 399.799 1196.85 405.787C1192.48 410.587 1191.56 418.282 1194.02 424.184C1197.22 431.85 1204.28 437.11 1211.18 441.198C1218.08 445.287 1225.93 449.534 1234.07 450.492C1249.42 452.289 1259.36 438.45 1259.42 424.268C1259.53 407.959 1245.97 395.424 1232.58 388.293C1219.18 381.161 1202.55 376.675 1187.72 381.163C1169.88 386.558 1161.67 405.678 1162.54 423.133C1163.51 442.485 1175.3 459.745 1187.47 474C1188.62 475.361 1188.68 476.923 1187.94 478.485C1171.69 513.187 1154.4 547.363 1136.06 580.998C1126.89 597.803 1117.46 614.479 1107.77 631C1102.95 639.211 1098.11 647.405 1093.12 655.508C1089.43 661.522 1084.85 667.302 1077.35 668.195C1070.42 669.016 1063.62 665.961 1056.78 665.444C1049.93 664.926 1042.71 665.709 1036.01 667.92C1022.98 672.211 1011.9 682.894 1011.23 697.159C1010.62 709.832 1017.91 725.252 1031.96 726.716C1039.97 727.556 1045.05 721.83 1044.28 713.94C1043.56 706.534 1037.7 699.99 1030.83 697.514C1023.96 695.038 1016.46 696.623 1010.96 701.156C1005.46 705.689 1002.96 713.12 1003.6 720.414C1004.83 734.239 1015.42 751.145 1029.31 755.003C1041.5 758.388 1054.07 751.662 1062.96 743.778C1072.63 735.253 1082.36 722.262 1083.05 708.944C1083.44 701.031 1079.57 694.693 1074.15 689.251C1068.74 683.808 1061.99 678.322 1055.26 673.889C1041.68 664.945 1026.06 660.968 1010.7 667.941C986.066 679.132 973.829 707.46 977.565 733.524C978.478 739.803 980.237 746.005 982.981 751.73C985.917 757.884 990.168 762.617 994.232 768C998.909 774.205 999.474 781 996.793 788.217C994.112 795.434 990.156 803.09 985.595 809.511C967.484 835.033 932.894 833.723 908.765 817.539C893.759 807.452 882.315 793.216 871.642 778.858C860.968 764.5 851.165 750.081 841.874 735.106C832.583 720.131 823.814 704.468 815.77 688.585C808.805 674.815 800.597 660.117 799.778 644.357C798.903 627.315 809.055 612.149 817.088 597.952C826.539 581.251 836.116 564.626 845.821 548.079C865.255 515.001 885.111 482.143 905.18 449.45C945.195 384.267 986.048 319.592 1026.66 254.804C1036.75 238.702 1046.64 222.477 1057.07 206.576C1066.92 191.505 1077.43 176.036 1090.39 163.447C1095.38 158.606 1101.66 154.684 1108.9 155.3C1116.53 155.949 1123.69 160.299 1130.42 163.653C1147.07 171.935 1163.41 180.922 1179.33 190.593C1211.04 209.858 1241.16 231.691 1269.33 255.812C1276.58 262.019 1283.69 268.388 1290.68 274.918C1293.4 277.474 1297.1 280.072 1299.02 283.32C1300.95 286.568 1299.8 289.999 1298.14 293.081C1289.05 309.932 1279.1 326.366 1269.56 342.98C1260.02 359.595 1251 375.413 1241.73 391.597C1239.35 395.738 1233.01 391.882 1235.38 387.741L1235.37 387.766Z" fill="#FFFCF4"/>
<path d="M1189.82 260.129C1167.74 249.213 1145.38 238.926 1122.7 229.344C1117.74 227.267 1112.66 224.635 1107.41 223.386C1101.65 222.042 1097.82 224.81 1094.36 229.193C1086.94 238.597 1080.5 248.974 1074.61 259.411C1071.63 264.713 1068.76 270.117 1066.16 275.61C1064.18 279.718 1062.21 284.171 1062.14 288.81C1061.99 299.299 1073.79 304.355 1081.67 308.445C1092.25 313.905 1103.03 319.061 1113.95 323.857C1118.64 325.912 1123.52 328.461 1128.62 329.338C1133.72 330.215 1137.46 328.291 1140.75 324.772C1144.68 320.534 1147.34 315.113 1150.43 310.259C1154.05 304.585 1157.86 299.059 1161.85 293.642C1169.92 282.761 1178.69 272.445 1188.13 262.744C1191.46 259.321 1196.54 264.736 1193.23 268.133C1183.59 278.057 1174.61 288.596 1166.49 299.791C1162.41 305.427 1158.51 311.211 1154.86 317.109C1152.07 321.588 1149.47 326.257 1145.84 330.12C1137.97 338.555 1127.99 337.764 1118.07 333.61C1105.71 328.428 1093.56 322.744 1081.63 316.68C1072.36 311.981 1060.54 307.058 1056.26 296.759C1051.99 286.461 1057.72 275.652 1062.39 266.485C1068.66 254.097 1075.89 242.189 1083.92 230.866C1087.17 226.318 1090.4 221.278 1095.19 218.149C1099.98 215.021 1105.33 215.014 1110.54 216.513C1117.22 218.453 1123.69 221.695 1130.07 224.421C1137.05 227.412 1144.02 230.468 1150.96 233.575C1165.33 240.016 1179.56 246.751 1193.67 253.729C1197.95 255.842 1194.08 262.161 1189.82 260.063L1189.82 260.129Z" fill="#FFFCF4"/>
<path d="M1097.23 388.452C1090.39 379.923 1081.23 374.223 1071.72 369.105C1061.54 363.612 1051.18 358.397 1040.91 353.056C1036.99 351.027 1032.74 348.023 1028.37 347.207C1023.17 346.268 1019.75 351.547 1016.78 355.012C1009.33 363.669 1002.52 372.99 996.642 382.776C991.712 390.949 987.657 400.141 990.455 409.784C992.675 417.515 998.508 423.764 1004.51 428.869C1012.34 435.497 1021.42 440.805 1030.32 445.832C1035.01 448.472 1039.78 450.985 1044.62 453.372C1048.18 455.119 1054.59 459.326 1058.19 455.687C1060.08 453.781 1061.24 450.843 1062.55 448.516C1064.26 445.531 1065.95 442.571 1067.64 439.57C1070.79 434.03 1073.94 428.516 1077.09 422.976C1083.65 411.491 1090.19 399.99 1096.75 388.505C1099.1 384.349 1105.45 388.205 1103.09 392.361C1096.44 404.064 1089.75 415.752 1083.1 427.456C1079.82 433.198 1076.54 438.941 1073.28 444.699C1070.28 449.985 1067.64 456.739 1063.32 461.092C1055.36 469.053 1043.39 461.121 1035.56 457.063C1024.56 451.381 1013.58 445.13 1003.72 437.614C996.18 431.888 988.853 425.009 984.987 416.209C980.739 406.552 981.741 396.547 986.006 387.067C991.093 375.832 998.855 365.458 1006.55 355.878C1012.84 348.043 1019.9 336.999 1031.47 340.318C1037.75 342.119 1043.67 346.099 1049.41 349.066C1056.17 352.584 1062.96 356.117 1069.72 359.635C1081.79 365.924 1094.02 372.56 1102.7 383.344C1105.66 387.051 1100.3 392.155 1097.31 388.432L1097.23 388.452Z" fill="#FFFCF4"/>
<path d="M1027.67 511.027C1008.64 495.827 987.964 482.778 965.993 472.31C963.031 470.893 960.038 469.525 957.039 468.224C955.881 467.728 954.692 467.11 953.472 466.716C951.85 466.181 951.37 466.341 950.3 467.703C946.653 472.39 943.609 477.686 940.302 482.615C933.489 492.801 926.441 502.915 920.059 513.364C916.95 518.482 914.018 523.708 911.458 529.124C909.298 533.709 905.792 539.939 906.858 545.165C907.924 550.391 912.933 555.134 916.859 558.628C921.134 562.405 925.983 565.524 930.843 568.511C941.409 575.034 952.115 581.329 962.836 587.599C965.38 589.075 967.935 590.592 970.494 592.043C971.053 592.383 972.459 593.445 973.137 593.302C973.978 593.119 974.95 591.004 975.375 590.36C978.698 585.234 982.021 580.107 985.344 574.98C1000.65 551.393 1015.92 527.79 1031.24 504.177C1033.85 500.175 1040.19 504.031 1037.59 508.033C1022.29 531.621 1007.01 555.223 991.692 578.836C987.928 584.631 984.392 590.739 980.338 596.324C977.008 600.891 972.671 601.621 967.728 599C955.446 592.44 943.59 584.891 931.692 577.698C921.028 571.22 909.592 564.411 902.644 553.704C895.696 542.997 902.034 530.961 907.331 520.755C913.737 508.378 921.773 496.923 929.5 485.349C933.386 479.523 937.298 473.714 941.184 467.888C944.019 463.679 946.783 458.386 952.631 458.886C955.609 459.134 958.56 460.858 961.248 462.04C964.785 463.599 968.291 465.208 971.751 466.894C978.89 470.363 985.925 474.117 992.782 478.109C1006.32 485.984 1019.22 494.898 1031.47 504.662C1035.15 507.59 1031.33 513.981 1027.62 510.996L1027.67 511.027Z" fill="#FFFCF4"/>
<path d="M952.406 630.172C940.963 622.63 929.181 615.647 917.025 609.337C910.954 606.169 904.801 603.195 898.556 600.372C896.076 599.247 893.314 597.5 890.544 598.627C887.993 599.679 885.671 601.841 883.56 603.542C864.855 618.541 851.755 640.448 847.915 664.165C846.962 669.968 846.818 675.812 849.084 681.351C851.35 686.89 854.811 691.837 858.007 696.761C865.116 707.775 872.762 718.42 880.934 728.657C884.984 733.719 889.122 738.695 893.403 743.55C895.404 745.807 897.405 748.063 899.437 750.268C900.501 751.435 901.533 752.826 902.73 753.83C904.628 755.399 905.169 755.138 906.751 753.22C915.445 742.685 920.2 729.479 924.236 716.599C928.721 702.292 932.779 687.83 936.521 673.315C940.264 658.8 942.847 643.962 951.092 631.42C953.707 627.458 960.07 631.289 957.44 635.276C949.194 647.819 946.823 663.166 943.112 677.458C939.401 691.749 935.208 706.892 930.508 721.38C926.113 734.909 920.633 749.652 910.574 760.087C908.901 761.811 906.618 763.337 904.088 763.153C900.525 762.897 898.176 759.839 895.937 757.404C891.062 752.153 886.29 746.791 881.676 741.283C872.413 730.21 863.722 718.652 855.665 706.681C848.559 696.121 839.72 684.75 839.806 671.448C839.892 658.146 844.38 645.437 849.905 634.052C855.431 622.667 863.824 611.254 873.616 602.288C878.136 598.166 884.116 592.155 890.329 590.969C893.509 590.369 896.397 591.395 899.253 592.644C902.983 594.286 906.667 596.003 910.361 597.762C926.234 605.393 941.536 614.134 956.229 623.822C960.199 626.442 956.376 632.792 952.381 630.156L952.406 630.172Z" fill="#FFFCF4"/>
</g>
</g>
<defs>
<clipPath id="clip0_63_21288">
<rect width="1440" height="780" fill="white"/>
</clipPath>
<clipPath id="clip1_63_21288">
<rect width="676.359" height="301.685" fill="white" transform="translate(210.027 301.982) rotate(-59.4712)"/>
</clipPath>
<clipPath id="clip2_63_21288">
<rect width="676.359" height="301.685" fill="white" transform="translate(1106.03 101.683) rotate(-59.4712)"/>
</clipPath>
<clipPath id="clip3_63_21288">
<rect width="676.359" height="301.685" fill="white" transform="matrix(-0.51919 0.854659 0.854659 0.51919 707.162 100.546)"/>
</clipPath>
<clipPath id="clip4_63_21288">
<rect width="676.359" height="301.685" fill="white" transform="matrix(-0.51919 0.854659 0.854659 0.51919 1603.16 -99.7529)"/>
</clipPath>
<clipPath id="clip5_63_21288">
<rect width="676.359" height="301.685" fill="white" transform="matrix(-0.51919 0.854659 0.854659 0.51919 175.158 -301.701)"/>
</clipPath>
<clipPath id="clip6_63_21288">
<rect width="676.359" height="301.685" fill="white" transform="matrix(-0.51919 0.854659 0.854659 0.51919 1071.16 -502)"/>
</clipPath>
<clipPath id="clip7_63_21288">
<rect width="676.359" height="301.685" fill="white" transform="matrix(-0.51919 0.854659 0.854659 0.51919 197.866 338.975)"/>
</clipPath>
<clipPath id="clip8_63_21288">
<rect width="676.359" height="301.685" fill="white" transform="matrix(-0.51919 0.854659 0.854659 0.51919 1093.87 138.675)"/>
</clipPath>
</defs>
</svg>
